<?xml version="1.0" encoding="UTF-8"?>
<svg xmlns="http://www.w3.org/2000/svg" xmlns:xlink="http://www.w3.org/1999/xlink" width="70pt" height="70pt" viewBox="0 0 70 70" version="1.1">
<g id="surface1">
<path style=" stroke:none;fill-rule:nonzero;fill:rgb(12.156863%,44.705882%,70.980392%);fill-opacity:1;" d="M 20.398438 56.152344 L 17.148438 19.699219 L 52.851562 19.699219 L 49.601562 56.140625 L 34.972656 60.199219 Z M 20.398438 56.152344 "/>
<path style=" stroke:none;fill-rule:nonzero;fill:rgb(31.764706%,63.921569%,86.27451%);fill-opacity:1;" d="M 35 57.105469 L 46.816406 53.828125 L 49.601562 22.679688 L 35 22.679688 Z M 35 57.105469 "/>
<path style=" stroke:none;fill-rule:nonzero;fill:rgb(92.156863%,92.156863%,92.156863%);fill-opacity:1;" d="M 23.394531 31.09375 L 22.960938 26.878906 L 47.039062 26.878906 L 46.761719 31.765625 L 36.582031 36.261719 L 46.339844 36.261719 L 45.289062 50.121094 L 35.449219 52.765625 L 25.242188 50.289062 L 24.613281 43.261719 L 29.121094 43.261719 L 29.371094 46.96875 L 35.28125 48.074219 L 40.738281 46.394531 L 40.992188 40.460938 L 24.21875 40.460938 L 23.910156 36.050781 L 35 31.191406 Z M 23.394531 31.09375 "/>
<path style=" stroke:none;fill-rule:nonzero;fill:rgb(80.784314%,80.784314%,80.784314%);fill-opacity:1;" d="M 23.910156 36.050781 L 24.21875 40.460938 L 35 40.460938 L 35 31.191406 Z M 23.910156 36.050781 "/>
<path style=" stroke:none;fill-rule:nonzero;fill:rgb(80.784314%,80.784314%,80.784314%);fill-opacity:1;" d="M 29.371094 46.96875 L 29.121094 43.261719 L 24.613281 43.261719 L 25.242188 50.289062 L 35 52.652344 L 35 48.019531 Z M 29.371094 46.96875 "/>
<path style=" stroke:none;fill-rule:nonzero;fill:rgb(80.784314%,80.784314%,80.784314%);fill-opacity:1;" d="M 22.960938 26.878906 L 23.394531 31.09375 L 35 31.191406 L 35 26.878906 Z M 22.960938 26.878906 "/>
<path style=" stroke:none;fill-rule:nonzero;fill:rgb(0%,0%,0%);fill-opacity:1;" d="M 38.359375 11.480469 L 38.359375 9.800781 L 31.640625 9.800781 L 31.640625 13.71875 L 36.261719 13.71875 L 36.261719 14.980469 L 31.5 14.980469 L 31.5 16.519531 L 38.21875 16.519531 L 38.21875 12.460938 L 33.460938 12.460938 L 33.460938 11.480469 Z M 38.359375 11.480469 "/>
<path style=" stroke:none;fill-rule:nonzero;fill:rgb(0%,0%,0%);fill-opacity:1;" d="M 26.179688 13.761719 L 26.179688 14.980469 L 30.941406 14.980469 L 30.941406 16.519531 L 24.21875 16.519531 L 24.21875 9.800781 L 30.800781 9.800781 L 30.800781 11.480469 L 26.179688 11.480469 Z M 26.179688 13.761719 "/>
<path style=" stroke:none;fill-rule:nonzero;fill:rgb(0%,0%,0%);fill-opacity:1;" d="M 45.78125 11.480469 L 45.78125 9.800781 L 39.058594 9.800781 L 39.058594 13.71875 L 43.679688 13.71875 L 43.679688 14.980469 L 38.921875 14.980469 L 38.921875 16.519531 L 45.640625 16.519531 L 45.640625 12.460938 L 40.878906 12.460938 L 40.878906 11.480469 Z M 45.78125 11.480469 "/>
</g>
</svg>
