<?xml version="1.0" encoding="UTF-8"?>
<svg xmlns="http://www.w3.org/2000/svg" xmlns:xlink="http://www.w3.org/1999/xlink" width="70pt" height="70pt" viewBox="0 0 70 70" version="1.1">
<g id="surface1">
<path style=" stroke:none;fill-rule:nonzero;fill:rgb(96.862745%,87.45098%,11.764706%);fill-opacity:1;" d="M 9.449219 9.449219 L 60.550781 9.449219 L 60.550781 60.550781 L 9.449219 60.550781 Z M 9.449219 9.449219 "/>
<path style=" stroke:none;fill-rule:nonzero;fill:rgb(0%,0%,0%);fill-opacity:1;" d="M 22.890625 52.148438 L 26.796875 49.785156 C 27.550781 51.128906 28.238281 52.246094 29.875 52.246094 C 31.457031 52.246094 32.453125 51.632812 32.453125 49.222656 L 32.453125 32.914062 L 37.253906 32.914062 L 37.253906 49.308594 C 37.253906 54.277344 34.34375 56.546875 30.085938 56.546875 C 26.25 56.546875 24.023438 54.558594 22.890625 52.148438 "/>
<path style=" stroke:none;fill-rule:nonzero;fill:rgb(0%,0%,0%);fill-opacity:1;" d="M 39.871094 51.632812 L 43.777344 49.363281 C 44.8125 51.042969 46.144531 52.277344 48.511719 52.277344 C 50.496094 52.277344 51.773438 51.28125 51.773438 49.910156 C 51.773438 48.257812 50.46875 47.683594 48.273438 46.71875 L 47.066406 46.199219 C 43.609375 44.730469 41.300781 42.867188 41.300781 38.960938 C 41.300781 35.363281 44.042969 32.621094 48.328125 32.621094 C 51.378906 32.621094 53.578125 33.683594 55.160156 36.457031 L 51.421875 38.851562 C 50.597656 37.378906 49.714844 36.792969 48.34375 36.792969 C 46.941406 36.792969 46.046875 37.6875 46.046875 38.851562 C 46.046875 40.292969 46.941406 40.878906 49 41.761719 L 50.203125 42.28125 C 54.292969 44.03125 56.589844 45.808594 56.589844 49.824219 C 56.589844 54.152344 53.1875 56.519531 48.636719 56.519531 C 44.15625 56.546875 41.273438 54.417969 39.871094 51.632812 "/>
</g>
</svg>
