<?xml version="1.0" encoding="utf-8"?>
<svg id="master-artboard" viewBox="0 0 2340 1560" version="1.1" xmlns="http://www.w3.org/2000/svg" x="0px" y="0px" width="2340px" height="1560px" enable-background="new 0 0 2340 1560">
<metadata><!--?xpacket begin="﻿" id="W5M0MpCehiHzreSzNTczkc9d"?-->

                                                                                                    
                                                                                                    
                                                                                                    
                                                                                                    
                                                                                                    
                                                                                                    
                                                                                                    
                                                                                                    
                                                                                                    
                                                                                                    
                                                                                                    
                                                                                                    
                                                                                                    
                                                                                                    
                                                                                                    
                                                                                                    
                                                                                                    
                                                                                                    
                                                                                                    
                                                                                                    
                           
<!--?xpacket end="w"?-->
	</metadata>


<linearGradient id="SVGID_1_" gradientUnits="userSpaceOnUse" x1="1073.2007" y1="915.2539" x2="1349.9929" y2="544.183">
	<stop offset="0" style="stop-color:#942280"/>
	<stop offset="1" style="stop-color:#282B5C"/>
</linearGradient>
<path fill="url(#SVGID_1_)" d="M1353.653,777.586l-149.518-258.973c-15.913-24.085-35.041-77.944-62.826-28.104L969.527,788.045&#10;&#9;c-10.858,18.805,2.922,58.37,24.421,58.37l147.347-255.212l0,0c26.791-49.862,46.383,1.127,62.912,28.208l101.999,176.669h-20.335&#10;&#9;c-20.334,0-30.63-4.813-40.779-14.964l-48.03-48.028c-18.078-18.079-27.633-20.585-40.217-20.585h-16.088&#10;&#9;c-24.8,0-29.766,36.2-44.773,50.336h34.861c22.896,0,30.499,5.716,45.336,20.553l46.824,46.825&#10;&#9;c13.717,13.715,26.878,16.198,50.283,16.198h100.977C1374.266,825.99,1374.266,811.812,1353.653,777.586z" transform="matrix(4.058390469246671, 0, 0, 4.058390469246671, -3576.278797482819, -1885.0427593736604)"/>
</svg>