<?xml version="1.0" encoding="utf-8"?>
<svg id="master-artboard" viewBox="0 0 595.3 595.3" version="1.1" xmlns="http://www.w3.org/2000/svg" x="0px" y="0px" width="595.2999877929688px" height="595.2999877929688px" enable-background="new 0 0 595.3 595.3">

<g>
	<g>
		<g>
			<path fill="#471219" d="M459.4,387.6c-1.3-37.5-3.8-77.5-6.2-116.3c-5.3-83.8-10.7-170.5,0.1-193l4.3-9L442,53.8l-9.8-1.8&#10;&#9;&#9;&#9;&#9;c-5-0.9-10.7-1.4-17-1.4c-8.8,0-18.8,1-26.6,2.7c-30.2,6.4-59.6,29-87.3,67c-22.8,31.2-44.2,72.9-62.3,120.9&#10;&#9;&#9;&#9;&#9;c-9,1.1-17.3,2.5-23.8,3.9c-29.4,6.3-55.3,19-72.9,35.8c-18.4,17.6-26.3,38-22.2,57.5c1.8,8.4,5.6,15.5,11,20.8l0,0l14.7,14.7&#10;&#9;&#9;&#9;&#9;c0.5,0.5,1,1.1,1.6,1.6l0.1,0.1l0,0c6.7,6.3,15.7,9.8,25.7,9.8c3.1,0,6.2-0.3,9.3-1c7.2-1.5,13.6-4.5,18.7-8.3&#10;&#9;&#9;&#9;&#9;c-9.7,52.6-12.3,99.2-6.1,128.2c3,14.2,8.3,25.3,15.7,33.4l0,0l0.1,0.1c0.9,1,1.9,2,2.9,2.9l12.1,12.1c1.4,1.5,2.8,2.9,4.3,4.3&#10;&#9;&#9;&#9;&#9;l0,0l0,0c9.4,8.2,21.7,12.3,36.8,12.3c11.1,0,21.9-2.1,32.2-4.3l14-3l-10.2-10c-3.1-3-7.7-7.5-11.4-25&#10;&#9;&#9;&#9;&#9;c-10.3-48.2-3.6-146.4,15.8-235.2c6.8-0.7,13.1-1,19.2-1c7.9,0,15.9,0.5,24.3,1.6c0.9,13.5,2,27.4,3,41&#10;&#9;&#9;&#9;&#9;c4.8,61.8,9.8,125.7-3.2,152.2l-8.6,17.5l15.5,15.5l18.2-7c25.1-9.6,46.2-26.5,61.3-48.8c15-22.3,22.7-48.2,22.2-75.1&#10;&#9;&#9;&#9;&#9;L459.4,387.6z M345.8,172.9c0.4,11,1.1,22.4,1.8,34.3c0.6,10.8,1.3,21.9,1.7,33.3c-8.8-1.3-18.1-2.2-27.9-2.7&#10;&#9;&#9;&#9;&#9;C329,212.6,337.2,190.8,345.8,172.9z M204.6,330.1c1.9-4,5.1-7.6,9.6-11.1c-1.5,5.5-2.8,11.1-4.2,16.6&#10;&#9;&#9;&#9;&#9;C208.5,333.4,206.7,331.5,204.6,330.1z"/>
			<g>
				<path fill="#C74F00" d="M445.5,271.8c-6.5-104.2-10-174.2,0.8-196.8l2-4.1l-10-10l-7.5-1.4c-4.5-0.8-9.8-1.3-15.6-1.3&#10;&#9;&#9;&#9;&#9;&#9;c-8.3,0-17.7,0.9-25,2.5c-28.3,6-56.1,27.6-82.7,64c-22.3,30.6-43.5,71.7-61.3,119.1l-1.6,4.3l-4.6,0.6&#10;&#9;&#9;&#9;&#9;&#9;c-8.9,1.1-16.9,2.4-23.1,3.8c-28,6-52.6,18-69.2,33.8c-16.4,15.7-23.5,33.6-20,50.4c1.4,6.8,4.5,12.6,8.9,17l14.7,14.7l0.2,0.2&#10;&#9;&#9;&#9;&#9;&#9;c0.4,0.4,0.8,0.9,1.3,1.3l0.1,0.1c5.5,5.1,12.5,7.7,20.5,7.7c2.5,0,5.2-0.3,7.7-0.8c5.9-1.3,11.4-3.7,15.7-7l15.7-11.8&#10;&#9;&#9;&#9;&#9;&#9;l-3.6,19.3c-9.7,52.4-11.9,98.1-6.2,125.2c2.7,12.7,7.4,22.8,13.9,29.8l0,0.1c0.7,0.8,1.6,1.6,2.4,2.4l0.1,0.1l12.4,12.3&#10;&#9;&#9;&#9;&#9;&#9;l0.2,0.2c1.2,1.3,2.4,2.5,3.5,3.5l0.1,0.1c7.9,6.9,18.6,10.4,31.8,10.4c10.3,0,20.8-2,30.6-4.1l0,0c-4.7-4.6-9.7-10.7-13.6-28.9&#10;&#9;&#9;&#9;&#9;&#9;c-10.5-49.5-4-147.5,15.8-238.4l1.2-5.4l5.5-0.5c7-0.7,13.6-1,20-1c8.3,0,16.5,0.6,25.3,1.7l6.2,0.8l0.4,6.3&#10;&#9;&#9;&#9;&#9;&#9;c0.9,13.5,2,27.5,3,41c5.1,65.7,10,127.7-4,156.2l-6.2,12.6l8.2,8.2l13.6-5.2c23.6-9.1,43.5-25,57.7-45.9&#10;&#9;&#9;&#9;&#9;&#9;c14.1-21,21.4-45.4,20.9-70.6l0,0C450.5,350.5,448,310.5,445.5,271.8z M221.6,321c-1.4,5.5-2.8,11-4.1,16.4l-4,16.7l-9.7-14.1&#10;&#9;&#9;&#9;&#9;&#9;c-1-1.4-2.1-2.6-3.4-3.5l-5.5-3.7l2.8-6c2.4-5.1,6.4-9.8,11.9-13.9l17.6-13.2L221.6,321z M348.2,248.1&#10;&#9;&#9;&#9;&#9;&#9;c-8.5-1.2-17.6-2.1-27.2-2.6l-9.7-0.5l2.8-9.3c7.6-25.5,24.7-67.3,33.6-85.7l5.8,22.6c0.4,11,1.1,22.8,1.7,34.2&#10;&#9;&#9;&#9;&#9;&#9;c0.6,10.8,1.3,21.9,1.7,33.3l0.4,9.2L348.2,248.1z"/>
			</g>
			<g>
				<path fill="#FF6500" d="M336.2,91.7c-4.1,3.8-8.1,8-12.1,12.5l81.4-45.6c-4.6,0.4-9.2,0.9-13.3,1.7L336.2,91.7z"/>
				<path fill="#FF6500" d="M307.5,124.7c-2,2.7-3.9,5.4-5.8,8.3l130.7-73.2l-1.6-0.3c-2-0.4-4.2-0.7-6.5-0.9l-115.9,64.9&#10;&#9;&#9;&#9;&#9;&#9;C308.1,123.9,307.8,124.3,307.5,124.7z"/>
				<path fill="#FF6500" d="M286,158l159.9-89.5l-3.7-3.7l-151.2,84.6C289.4,152.3,287.7,155.1,286,158z"/>
				<path fill="#FF6500" d="M273.4,181.3l169.3-94.8c0.5-2.4,1.1-4.7,1.7-6.7l-166.9,93.4C276.2,175.9,274.8,178.6,273.4,181.3z"/>
				<path fill="#FF6500" d="M349,155.3l91.4-51.2c0.2-2.1,0.4-4.1,0.6-6l-93.3,52.2L349,155.3z"/>
				<path fill="#FF6500" d="M347.5,150.5l-81.1,45.4c-1.2,2.5-2.4,5.1-3.6,7.7l81.1-45.4C345.2,155.3,346.4,152.7,347.5,150.5z"/>
				<path fill="#FF6500" d="M153.8,280.9l37.3-20.9C176.9,265.4,164.2,272.5,153.8,280.9z"/>
				<path fill="#FF6500" d="M352.7,169.5l86.9-48.7c0.1-2,0.1-3.9,0.2-5.8l-88.4,49.5L352.7,169.5z"/>
				<path fill="#FF6500" d="M337.8,172.1l-81.2,45.4c-1,2.5-2.1,4.9-3.1,7.5l81.1-45.4C335.8,177,336.8,174.5,337.8,172.1z"/>
				<path fill="#FF6500" d="M354,185.1l85.4-47.8c0-1.9,0-3.9,0-5.7l-85.7,48C353.8,181.3,353.9,183.2,354,185.1z"/>
				<path fill="#FF6500" d="M240,248.7c-4.7,0.6-9.2,1.2-13.3,1.9l-92.1,51.6c-1.6,2.6-3,5.3-4.1,8l110-61.6L240,248.7z"/>
				<path fill="#FF6500" d="M329.2,193.2l-81.1,45.4c-0.7,1.7-1.3,3.4-2,5.2l-0.8,2.1l81-45.3C327.3,198.1,328.3,195.6,329.2,193.2z&#10;&#9;&#9;&#9;&#9;&#9;"/>
				<path fill="#FF6500" d="M354.9,200.9l84.8-47.5c0-1.9-0.1-3.8-0.1-5.7l-85,47.6C354.6,197.2,354.8,199,354.9,200.9z"/>
				<path fill="#FF6500" d="M321.4,213.9L127.1,322.6c-0.3,2-0.4,3.9-0.3,5.9L318.9,221C319.7,218.7,320.5,216.3,321.4,213.9z"/>
				<path fill="#FF6500" d="M355.8,216.6l84.3-47.2c-0.1-1.9-0.1-3.8-0.2-5.6l-84.5,47.3C355.6,212.9,355.7,214.8,355.8,216.6z"/>
				<path fill="#FF6500" d="M314.1,235.7c0.2-0.6,0.3-1.1,0.5-1.7L128.1,338.4c0.4,1.7,1,3.3,1.6,4.8l182.9-102.4L314.1,235.7z"/>
				<path fill="#FF6500" d="M356.6,232.4l84.1-47.1c-0.1-1.9-0.2-3.7-0.2-5.6l-84.2,47.1C356.4,228.7,356.5,230.6,356.6,232.4z"/>
				<path fill="#FF6500" d="M209.6,312.9l17.6-13.2l-1.6,6.1L332,246.2c-3-0.3-6-0.5-9-0.7L134.4,351.1c0.7,0.9,1.4,1.7,2.2,2.5&#10;&#9;&#9;&#9;&#9;&#9;l1.3,1.3l66.1-37C205.6,316.2,207.5,314.5,209.6,312.9z"/>
				<path fill="#FF6500" d="M357.3,248.3l84.2-47.1c-0.1-1.9-0.2-3.7-0.3-5.6l-84.1,47.1L357.3,248.3z"/>
				<path fill="#FF6500" d="M347.6,248l-125.3,70.2l-0.7,2.8c-0.3,1.3-0.7,2.6-1,3.9l135.2-75.7l-7.5-1.1&#10;&#9;&#9;&#9;&#9;&#9;C348,248.1,347.8,248,347.6,248z"/>
				<path d="M 195.5 333.20001220703125 L 144.6999969482422 361.70001220703125 L 148.3000030517578 365.29998779296875 L 200.10000610351562 336.29998779296875 Z" fill="#FF6500"/>
				<path fill="#FF6500" d="M217.5,337.4l-1.5,6.4l82.4-46.2c0.5-2.2,0.9-4.3,1.4-6.5l-82.2,46C217.5,337.2,217.5,337.3,217.5,337.4&#10;&#9;&#9;&#9;&#9;&#9;z"/>
				<path fill="#FF6500" d="M324.4,283l117.9-66c-0.1-1.9-0.2-3.7-0.3-5.5l-128.6,72C317.1,283.2,320.8,283.1,324.4,283z"/>
				<path fill="#FF6500" d="M206.2,343.5l-50.8,28.5c1.6,1.1,3.2,2.1,5,2.9l48.7-27.3L206.2,343.5z"/>
				<path fill="#FF6500" d="M350.8,284.6l92.4-51.7c-0.1-1.9-0.2-3.7-0.3-5.5l-100.7,56.4C345,283.9,347.8,284.2,350.8,284.6z"/>
				<path fill="#FF6500" d="M181.1,376.8c5.9-1.3,11.4-3.7,15.7-7l15.7-11.8l-0.8,4.4l83-46.5c0.4-2.1,0.8-4.3,1.2-6.4l-121.6,68.1&#10;&#9;&#9;&#9;&#9;&#9;C176.6,377.5,178.8,377.3,181.1,376.8z"/>
				<path fill="#FF6500" d="M358.6,291.8c0.1,1.5,0.2,3,0.3,4.5l85.2-47.7c-0.1-1.9-0.2-3.7-0.3-5.5l-85.2,47.7L358.6,291.8z"/>
				<path fill="#FF6500" d="M209,377.3c-0.2,1.1-0.4,2.1-0.6,3.2l83.1-46.5c0.4-2.1,0.7-4.2,1.1-6.3l-83.1,46.5L209,377.3z"/>
				<path fill="#FF6500" d="M360,311.9l85.1-47.6c-0.1-1.9-0.2-3.7-0.3-5.5l-85.1,47.7C359.8,308.3,359.9,310.1,360,311.9z"/>
				<path fill="#FF6500" d="M205.4,398.5l83.3-46.6c0.3-2.1,0.6-4.2,1-6.2l-83.2,46.6C206,394.3,205.7,396.4,205.4,398.5z"/>
				<path fill="#FF6500" d="M203,416.1l83.2-46.6c0.3-2.1,0.5-4.1,0.8-6.2L203.8,410C203.5,412,203.2,414.1,203,416.1z"/>
				<path fill="#FF6500" d="M361.2,327.5l84.8-47.5c-0.1-1.8-0.2-3.7-0.3-5.5L360.8,322C360.9,323.9,361.1,325.7,361.2,327.5z"/>
				<path fill="#FF6500" d="M362.4,343.1l84.6-47.4c-0.1-1.8-0.2-3.7-0.3-5.5L362,337.6C362.2,339.5,362.3,341.3,362.4,343.1z"/>
				<path fill="#FF6500" d="M201.2,433.4l82.9-46.4c0.2-2,0.5-4.1,0.7-6.1l-83,46.5C201.5,429.4,201.3,431.4,201.2,433.4z"/>
				<path fill="#FF6500" d="M200,450.3l82.3-46.1c0.2-2,0.4-4,0.6-6l-82.5,46.2C200.2,446.4,200.1,448.4,200,450.3z"/>
				<path fill="#FF6500" d="M363.6,358.7l84.4-47.2c-0.1-1.8-0.2-3.7-0.3-5.5l-84.4,47.3C363.4,355.1,363.5,356.9,363.6,358.7z"/>
				<path fill="#FF6500" d="M364.7,374.4l84.2-47.1c-0.1-1.8-0.2-3.7-0.3-5.5l-84.2,47.2C364.5,370.7,364.6,372.6,364.7,374.4z"/>
				<path fill="#FF6500" d="M199.6,466.8l81.3-45.5c0.1-2,0.3-4,0.4-6l-81.7,45.7C199.6,463,199.6,464.9,199.6,466.8z"/>
				<path fill="#FF6500" d="M365.7,390.1l84.1-47.1c-0.1-1.8-0.2-3.7-0.3-5.5l-84.1,47.1C365.5,386.5,365.6,388.3,365.7,390.1z"/>
				<path fill="#FF6500" d="M200.2,482.8l79.7-44.6c0.1-2,0.2-3.9,0.3-5.9l-80.3,45C200,479.1,200.1,481,200.2,482.8z"/>
				<path fill="#FF6500" d="M366.4,406l84.2-47.1c-0.1-1.9-0.2-3.7-0.3-5.6l-84.1,47.1C366.3,402.3,366.3,404.2,366.4,406z"/>
				<path fill="#FF6500" d="M201.9,498.1l77.4-43.3c0-1.9,0.1-3.9,0.2-5.8l-78.3,43.8C201.4,494.6,201.7,496.4,201.9,498.1z"/>
				<path fill="#FF6500" d="M205.5,512.4l73.7-41.3c0-1.9,0-3.8,0-5.7L204,507.5C204.4,509.2,204.9,510.8,205.5,512.4z"/>
				<path fill="#FF6500" d="M366.8,422.1l84.5-47.3c-0.1-1.9-0.2-3.7-0.2-5.6l-84.3,47.2C366.7,418.3,366.8,420.2,366.8,422.1z"/>
				<path fill="#FF6500" d="M366.6,438.4l85.1-47.7c0-1,0-1.9,0-2.9l0,0c0-0.9-0.1-1.8-0.1-2.8l-84.9,47.5&#10;&#9;&#9;&#9;&#9;&#9;C366.7,434.6,366.7,436.5,366.6,438.4z"/>
				<path fill="#FF6500" d="M211.4,525.3l68.2-38.2c-0.1-1.8-0.1-3.7-0.2-5.6L209,521C209.7,522.5,210.5,524,211.4,525.3z"/>
				<path fill="#FF6500" d="M219.1,534.8l0.1,0.1l1.5,1.5l59.8-33.5c-0.2-1.8-0.3-3.6-0.4-5.5L217,532.8&#10;&#9;&#9;&#9;&#9;&#9;C217.7,533.5,218.4,534.2,219.1,534.8z"/>
				<path fill="#FF6500" d="M365.6,455.3l84.9-47.5c0.3-2,0.5-4.1,0.7-6.1l-85.1,47.7C366,451.3,365.8,453.3,365.6,455.3z"/>
				<path fill="#FF6500" d="M362.9,473.1l83.4-46.7c0.7-2.2,1.3-4.5,1.9-6.8l-84,47C363.8,468.9,363.4,471,362.9,473.1z"/>
				<path fill="#FF6500" d="M231.2,546.8l51.2-28.6c-0.3-1.7-0.5-3.5-0.7-5.3l-54.1,30.3L231.2,546.8z"/>
				<path fill="#FF6500" d="M357.6,488.9l-2.3,4.7l82-45.9c1.4-2.6,2.7-5.2,3.8-7.9l-82.2,46C358.6,486.9,358.1,487.9,357.6,488.9z"/>
				<path fill="#FF6500" d="M243.3,556.3l41.9-23.5c-0.3-1.4-0.7-2.9-1-4.4c0-0.2-0.1-0.4-0.1-0.6l-45.7,25.6&#10;&#9;&#9;&#9;&#9;&#9;C239.9,554.5,241.5,555.5,243.3,556.3z"/>
				<path fill="#FF6500" d="M263.3,561.4l26.6-14.9c-0.7-1.4-1.3-2.9-2-4.6l-33,18.5C257.6,560.9,260.4,561.2,263.3,561.4z"/>
				<path fill="#FF6500" d="M358.2,508.3l59.3-33.2c3.3-3.4,6.4-7.1,9.3-10.9l-72.3,40.5L358.2,508.3z"/>
				<path fill="#FF6500" d="M297.7,557.4L297.7,557.4c-1-0.9-1.9-1.9-2.9-3.1l-9.9,5.5C289.3,559.1,293.6,558.3,297.7,557.4z"/>
			</g>
			<path fill="#471219" d="M251.6,553.6c-30.4,0-49.3-16.6-56.3-49.5c-9.3-43.8,1.3-127.7,26.5-212.2c-17.9,6.4-28.6,13.8-32.8,22.7&#10;&#9;&#9;&#9;&#9;c5.5,3.7,9.3,10.6,10.1,19.1c1.4,16.1-12,30.9-32,35.1c-3.1,0.7-6.3,1-9.3,1c-18.8,0-33.5-12.4-37.6-31.5&#10;&#9;&#9;&#9;&#9;c-4.1-19.5,3.7-39.9,22.2-57.5c17.6-16.8,43.5-29.5,72.9-35.8c6.5-1.4,14.8-2.7,23.8-3.9c18.1-48,39.5-89.7,62.3-120.9&#10;&#9;&#9;&#9;&#9;c27.7-38,57.1-60.6,87.3-67c7.8-1.7,17.8-2.7,26.6-2.7c6.3,0,12,0.5,17,1.4l9.8,1.8l-4.3,9c-10.8,22.5-5.3,109.2-0.1,193&#10;&#9;&#9;&#9;&#9;c2.4,38.7,4.9,78.7,6.2,116.3l0,0.1c0.5,26.9-7.2,52.8-22.2,75.1c-15,22.3-36.2,39.1-61.3,48.8l-18.2,7l8.6-17.5&#10;&#9;&#9;&#9;&#9;c13.1-26.6,8.1-90.4,3.2-152.2c-1.4-18.1-2.9-36.7-3.8-54.2c-14.1-2.8-26.6-4.1-39-4.1c-6.1,0-12.5,0.3-19.2,1&#10;&#9;&#9;&#9;&#9;c-19.4,88.9-26.1,187-15.8,235.2c3.7,17.5,8.4,22,11.4,25l10.2,10l-14,3C273.6,551.5,262.7,553.6,251.6,553.6z M301.6,237.3&#10;&#9;&#9;&#9;&#9;c17.4,0.1,33.1,1.1,47.7,3.2c-0.5-11.4-1.1-22.5-1.7-33.3c-1.7-28.7-3.1-54.6-1.4-77.7C330,152.8,314.6,189.8,301.6,237.3z"/>
			<path fill="#FD3F58" d="M357.6,488.9c18.5-37.6,3.7-137.9-0.1-216.1c-28.4-6.2-49.1-6.5-71.9-3.8c-20.4,90.8-27.9,192.6-17,243.8&#10;&#9;&#9;&#9;&#9;c4.1,19.3,9.6,25,13.6,28.9c-27.4,5.8-68.2,13.5-79.4-39.3c-9.7-45.7,3-135.3,30.6-222.3c-31,8.7-50.8,20.4-53.7,39&#10;&#9;&#9;&#9;&#9;c6.1,0.2,11.1,6.3,11.9,15.1c1.1,12.4-10.2,23.6-26,27c-17.2,3.7-33.6-4.8-37.9-24.6c-7.3-34.5,30.8-71.8,89.2-84.2&#10;&#9;&#9;&#9;&#9;c7.1-1.5,16.8-3.1,27.7-4.3c34-92.1,85.3-174.6,145.7-187.4c10.1-2.2,27.3-3.7,40.6-1.2c-16.6,34.7,1.1,188.3,5.4,312.8&#10;&#9;&#9;&#9;&#9;C437.1,423.8,405.7,470.4,357.6,488.9L357.6,488.9z M357.4,105.3c-27,22.7-49.4,76.8-65.7,139.7c21.7-0.4,44.2,0.7,65.7,4.6&#10;&#9;&#9;&#9;&#9;C355.4,193.2,348.7,143.5,357.4,105.3z"/>
		</g>
		<g>
			<path d="M 357.6000061035156 488.8999938964844 L 357.6000061035156 488.8999938964844 L 357.6000061035156 488.8999938964844 Z" fill="#E7E198"/>
			<path fill="#FD3F58" d="M430.8,59.5L390,78.1c-16.8,46.5,4.7,244.9,7.5,315s-39.8,95.8-39.8,95.8c48.1-18.5,79.5-65.1,78.6-116.6&#10;&#9;&#9;&#9;&#9;C431.9,247.7,414.2,94.2,430.8,59.5z"/>
			<path fill="#FFFFFF" d="M390.3,60.7c-60.4,12.9-111.7,95.4-145.7,187.4c-10.9,1.3-20.6,2.8-27.7,4.3&#10;&#9;&#9;&#9;&#9;c-58.3,12.4-96.5,49.7-89.2,84.2c4.2,19.8,20.6,28.3,37.9,24.6c15.7-3.3,27.1-14.6,26-27c-0.8-8.8-5.7-14.8-11.9-15.1&#10;&#9;&#9;&#9;&#9;c0,0-23.4,0.7-20.6,20c0,0-15.4-18.1-2.3-34.9c13.1-16.8,46.6-39.3,106.5-44.4l0,0c1.7-5.3,3.6-10.4,5.5-15.4&#10;&#9;&#9;&#9;&#9;C299.3,166,316.6,109.8,390,78.1l40.8-18.6C417.6,57,400.4,58.5,390.3,60.7z"/>
			<path fill="#FFFFFF" d="M231.4,486.3c0-40.9,6-148.4,31.9-226.4l0,0l-29.9,20.3c-27.6,87-40.3,176.7-30.6,222.3&#10;&#9;&#9;&#9;&#9;c11.2,52.8,52,45.1,79.4,39.3C282.2,541.8,231.4,529.9,231.4,486.3z"/>
			<path fill="#FD3F58" d="M156.8,304.3c-13.1,16.8,2.3,34.9,2.3,34.9c-2.8-19.3,20.6-20,20.6-20c2.9-18.6,22.7-30.3,53.7-39&#10;&#9;&#9;&#9;&#9;l29.9-20.3C203.3,265,169.8,287.5,156.8,304.3z"/>
			<path d="M 263.20001220703125 259.8999938964844 L 263.20001220703125 259.8999938964844 L 263.20001220703125 259.8999938964844 Z" fill="#E7E198"/>
			<path fill="#FD3F58" d="M335.6,255.4c-1.3-0.1-2.6-0.2-3.9-0.3c-12.6-0.9-23.6-0.8-33-0.3c-22.7,1.2-35.4,5.1-35.4,5.1&#10;&#9;&#9;&#9;&#9;c0,0,0,0,0,0l22.4,9.2c3.6-0.4,7.2-0.8,10.8-1.1c10.4-0.8,20.6-0.8,31.8,0.2c2,0.2,4,0.4,6.1,0.7c7.2,0.9,14.9,2.2,23.2,4&#10;&#9;&#9;&#9;&#9;l31.2-8.5C369,259.4,351.2,256.7,335.6,255.4z"/>
			<path fill="#FFFFFF" d="M397.5,393.1c-2.8-70.1-24.3-268.6-7.5-315c0,0-19.9,13.9-32.6,27.3c-2.7,12-3.9,25-4.2,39.1&#10;&#9;&#9;&#9;&#9;c-0.2,8.9,0,18.3,0.3,28c0.9,23.8,2.9,49.7,3.9,77.1c-6.9-1.2-13.9-2.2-20.9-2.9c-0.8-0.1-1.6-0.2-2.4-0.2&#10;&#9;&#9;&#9;&#9;c-11.2-1-22.5-1.5-33.6-1.5c-2.9,0-5.8,0-8.7,0.1l-28.4,14.9c0,0,12.8-3.9,35.4-5.1c9.4-0.5,20.4-0.5,33,0.3&#10;&#9;&#9;&#9;&#9;c1.3,0.1,2.6,0.2,3.9,0.3c15.6,1.3,33.5,4,53.1,9l-31.2,8.5c3.9,78.2,18.6,178.4,0.1,216.1h0&#10;&#9;&#9;&#9;&#9;C357.6,488.9,400.3,463.2,397.5,393.1z"/>
			<path fill="#FD3F58" d="M268.8,244.5c-1.9,5-3.8,10.1-5.5,15.4l28.4-14.9c16.3-62.9,38.7-116.9,65.7-139.7&#10;&#9;&#9;&#9;&#9;C370,92,390,78.1,390,78.1C316.6,109.8,299.3,166,268.8,244.5z"/>
			<path fill="#FD3F58" d="M263.2,259.9c-25.9,78-31.9,185.5-31.9,226.4c0,43.6,50.8,55.5,50.8,55.5c-4-3.9-9.5-9.6-13.6-28.9&#10;&#9;&#9;&#9;&#9;c-10.9-51.2-3.4-153,17-243.8L263.2,259.9z"/>
		</g>
	</g>
	<g>
		<g>
			<path fill="#FFD88A" d="M383.4,537.7c-2.6,0-5.2-1.6-6.3-4.1c-1.5-3.5,0.1-7.4,3.6-8.9c5.7-2.4,11.4-5.2,16.8-8.3&#10;&#9;&#9;&#9;&#9;c3.3-1.9,7.4-0.7,9.3,2.5c1.9,3.3,0.7,7.4-2.5,9.3c-5.9,3.3-12,6.4-18.2,9C385.2,537.6,384.3,537.7,383.4,537.7z"/>
		</g>
	</g>
	<g>
		<g>
			<path fill="#FFD88A" d="M424.7,512.6c-2,0-3.9-0.8-5.2-2.5c-2.4-2.9-2-7.2,0.9-9.6c2.9-2.4,5.8-5,8.6-7.6c2.7-2.6,7-2.5,9.6,0.2&#10;&#9;&#9;&#9;&#9;c2.6,2.7,2.5,7-0.2,9.6c-3,2.9-6.1,5.7-9.3,8.3C427.8,512.1,426.3,512.6,424.7,512.6z"/>
		</g>
	</g>
	<g>
		<g>
			<path fill="#FFD88A" d="M453.9,480.9c-1.3,0-2.7-0.4-3.8-1.2c-3.1-2.1-3.9-6.4-1.7-9.4c6.3-9.2,11.5-19,15.2-29.1&#10;&#9;&#9;&#9;&#9;c1.3-3.5,5.2-5.3,8.7-4c3.5,1.3,5.3,5.2,4,8.7c-4.1,11.2-9.8,22-16.7,32.1C458.2,479.9,456,480.9,453.9,480.9z"/>
		</g>
	</g>
	<g>
		<g>
			<path fill="#FFD88A" d="M477.8,421.5c-0.4,0-0.8,0-1.2-0.1c-3.7-0.6-6.2-4.2-5.5-7.9c1.9-10.7,2.5-21.6,2-32.3&#10;&#9;&#9;&#9;&#9;c-0.2-3.7,2.7-6.9,6.4-7.1c3.8-0.2,6.9,2.7,7.1,6.4c0.6,11.7-0.1,23.6-2.2,35.3C483.9,419.2,481.1,421.5,477.8,421.5z"/>
		</g>
	</g>
	<g>
		<g>
			<path fill="#FFD88A" d="M478.6,358.6c-3.6,0-6.6-2.8-6.8-6.4c-1.2-22.7-2.5-44.8-3.8-66c-0.2-3.7,2.6-7,6.4-7.2&#10;&#9;&#9;&#9;&#9;c3.7-0.2,7,2.6,7.2,6.4c1.3,21.1,2.6,43.4,3.8,66.1c0.2,3.7-2.7,6.9-6.4,7.1C478.9,358.6,478.7,358.6,478.6,358.6z"/>
		</g>
	</g>
	<g>
		<g>
			<path fill="#FFD88A" d="M473,263.6c-3.6,0-6.5-2.8-6.8-6.4c-2.6-40.2-4.6-73.6-5.1-108.6c-0.1-3.8,2.9-6.8,6.7-6.9&#10;&#9;&#9;&#9;&#9;c0,0,0.1,0,0.1,0c3.7,0,6.7,3,6.8,6.7c0.6,34.6,2.6,67.9,5.1,107.9c0.2,3.7-2.6,7-6.3,7.2C473.3,263.6,473.2,263.6,473,263.6z"/>
		</g>
	</g>
	<g>
		<g>
			<path fill="#FFD88A" d="M468,126.7c-0.4,0-0.7,0-1.1-0.1c-3.7-0.6-6.2-4.1-5.6-7.8c0.6-3.8,0.9-7.8,1.1-12.1&#10;&#9;&#9;&#9;&#9;c0.4-7,0.8-14.3,3.1-21.5c1.1-3.6,4.9-5.6,8.5-4.5c3.6,1.1,5.6,4.9,4.5,8.5c-1.7,5.6-2.1,11.8-2.5,18.3c-0.3,4.4-0.5,9-1.3,13.5&#10;&#9;&#9;&#9;&#9;C474.2,124.4,471.3,126.7,468,126.7z"/>
		</g>
	</g>
	<g>
		<g>
			<path fill="#FFD88A" d="M346.2,55.2c-2.3,0-4.5-1.2-5.8-3.3c-1.9-3.2-0.9-7.4,2.3-9.3c13.1-7.9,26.6-13.3,40.3-16.3&#10;&#9;&#9;&#9;&#9;c3.7-0.8,7.3,1.6,8.1,5.2c0.8,3.7-1.6,7.3-5.2,8.1c-12.2,2.6-24.3,7.5-36.1,14.6C348.6,54.8,347.4,55.2,346.2,55.2z"/>
		</g>
	</g>
	<g>
		<g>
			<path fill="#FFD88A" d="M307.4,87.2c-1.7,0-3.5-0.7-4.8-2c-2.6-2.7-2.6-7,0-9.6c5.6-5.5,10.2-10,14.5-14.1c2.7-2.6,7-2.5,9.6,0.2&#10;&#9;&#9;&#9;&#9;c2.6,2.7,2.5,7-0.2,9.6c-4.2,4.1-8.8,8.5-14.3,14C310.9,86.6,309.2,87.2,307.4,87.2z"/>
		</g>
	</g>
	<g>
		<g>
			<path fill="#FFD88A" d="M273.3,130.7c-1.1,0-2.3-0.3-3.4-0.9c-3.3-1.9-4.4-6-2.5-9.3c5.2-9,9.6-15.5,14.6-21.1&#10;&#9;&#9;&#9;&#9;c2.5-2.8,6.8-3.1,9.6-0.6c2.8,2.5,3.1,6.8,0.6,9.6c-4.3,4.9-8.3,10.7-13,18.9C277.9,129.5,275.6,130.7,273.3,130.7z"/>
		</g>
	</g>
	<g>
		<g>
			<path fill="#FFD88A" d="M198.9,233.6c-3,0-5.8-2.1-6.6-5.1c-0.9-3.6,1.3-7.3,4.9-8.2l2.3-0.6c3.5-0.9,7.2-1.8,10.9-2.6&#10;&#9;&#9;&#9;&#9;c1.8-0.3,3.5-0.4,4.9-0.4c0.8,0,2.5-0.1,2.9-0.2c3.4-4.1,14.9-29.6,21.8-44.9c4.1-9.2,8-17.9,10.7-23.3c1.7-3.4,5.7-4.8,9.1-3.1&#10;&#9;&#9;&#9;&#9;c3.4,1.7,4.8,5.7,3.1,9.1c-2.5,5.2-6.4,13.8-10.5,22.9c-15.1,33.5-21.2,46.1-25.2,49.6c-3.9,3.4-8.5,3.5-11.5,3.6&#10;&#9;&#9;&#9;&#9;c-1,0-2,0.1-2.7,0.2c-3.3,0.6-6.8,1.5-10.1,2.4l-2.4,0.6C200,233.5,199.5,233.6,198.9,233.6z"/>
		</g>
	</g>
	<g>
		<g>
			<path fill="#FFD88A" d="M149.7,255.1c-2.4,0-4.7-1.3-5.9-3.5c-1.8-3.3-0.6-7.4,2.7-9.2c5.2-2.9,10.5-5.6,15.6-8.3&#10;&#9;&#9;&#9;&#9;c2.4-1.3,4.9-2.5,7.3-3.8c3.3-1.8,7.4-0.5,9.2,2.8c1.8,3.3,0.5,7.4-2.8,9.2c-2.4,1.3-4.9,2.6-7.3,3.9c-5,2.6-10.3,5.4-15.3,8.1&#10;&#9;&#9;&#9;&#9;C151.9,254.8,150.8,255.1,149.7,255.1z"/>
		</g>
	</g>
	<g>
		<g>
			<path fill="#FFD88A" d="M112.4,290c-1.3,0-2.7-0.4-3.8-1.2c-3.1-2.1-3.9-6.3-1.8-9.4c4.2-6.1,9.2-11.9,14.8-17&#10;&#9;&#9;&#9;&#9;c2.8-2.5,7.1-2.4,9.6,0.4c2.5,2.8,2.4,7.1-0.4,9.6c-4.9,4.5-9.2,9.4-12.8,14.7C116.6,289,114.5,290,112.4,290z"/>
		</g>
	</g>
	<g>
		<g>
			<path fill="#FFD88A" d="M99.9,349.3c-3.1,0-5.9-2.1-6.6-5.3c-2.6-11.3-2.5-23.3,0.1-34.7c0.8-3.7,4.5-5.9,8.1-5.1&#10;&#9;&#9;&#9;&#9;c3.7,0.8,5.9,4.5,5.1,8.1c-2.2,9.5-2.2,19.4-0.1,28.7c0.8,3.7-1.5,7.3-5.1,8.1C100.9,349.3,100.4,349.3,99.9,349.3z"/>
		</g>
	</g>
</g>
</svg>