<?xml version="1.0" encoding="utf-8"?>
<svg id="master-artboard" viewBox="0 0 2800 2800" version="1.1" xmlns="http://www.w3.org/2000/svg" x="0px" y="0px" width="2800px" height="2800px" enable-background="new 0 0 2800 2800">
<g transform="matrix(1, 0, 0, 1, 0, 0)">
			<path fill="#FEAAAA" d="M2003.4,378c-2.7-12.6-13.4-27.3-26.5-30.4c-7.1-1.7-11.1,6.3-6.7,11.6c3.6,4.3,4.2,12.6,6.6,17.9&#10;&#9;&#9;&#9;&#9;c3.5,7.6,10.1,12.4,18.6,11.8c3.2-0.2,5.2-2.1,6.1-4.5C2003.1,383,2004,380.8,2003.4,378z"/>
			<path fill="#FEAAAA" d="M2050.8,328.1c0,0,0-0.1,0-0.1c0.1-1.9-0.2-3.6-1-5.3c-1.3-6.8-1.5-13.6-6.1-19.5&#10;&#9;&#9;&#9;&#9;c-4.5-5.8-11-9.3-17.1-13.2c-5.6-3.5-11.2,2.2-10.2,7.8c3.1,16.6,8.7,40.1,29.2,41.4C2052.2,339.6,2053.9,332.3,2050.8,328.1z"/>
			<path fill="#FEAAAA" d="M2153.4,308.5c-0.1-7.2-9.2-9.1-12.9-3.5c-9.1,13.5-14.2,29.8-10.2,46c1.9,7.8,12.8,5.6,13.5-1.1&#10;&#9;&#9;&#9;&#9;c5.3-5.6,8.7-12,9.7-19.8C2154.4,322.9,2153.5,315.7,2153.4,308.5z"/>
			<path fill="#FEAAAA" d="M2272.2,426.5c-7.5-18.1-31.5-30.6-50-21.9c-6.1,2.9-3.6,10.4,1.5,12.3c1.1,1.5,2.8,2.6,5,2.8&#10;&#9;&#9;&#9;&#9;c2.1,0.2,3.6,1.7,5.2,3c2.6,2.1,5.4,3.6,8.4,5c6.8,3.2,14,5.6,21.3,7.4C2268.2,436.1,2274.4,431.7,2272.2,426.5z"/>
			<path fill="#FEAAAA" d="M2203,472.5c-4.1-2.3-8.7-3.6-13.4-4.5c-0.7-0.5-1.3-1-2-1.5c-3.1-2.2-7.7-0.6-9.5,2.5&#10;&#9;&#9;&#9;&#9;c0,0.1-0.1,0.2-0.1,0.3c-0.6,0.7-1.2,1.6-1.4,2.7c-3.8,14.5,10.4,21.7,22.2,24.5c3.4,0.8,6-0.7,7.4-3c0.4-0.3,0.7-0.6,1.1-1&#10;&#9;&#9;&#9;&#9;C2213.3,485.3,2211.1,477,2203,472.5z"/>
			<path fill="#333333" d="M2303.8,673c-4-6.9-8.5-14-13.5-20.7c7.7-18.2,9.5-39.1,8.1-58.9c-1.3-17.9-5.1-35.6-10.8-52.5&#10;&#9;&#9;&#9;&#9;c-2.7-8-5.9-15.8-9.5-23.5c-1.6-3.5-3.4-6.9-5.2-10.2c-0.9-1.6-1.8-3.2-2.7-4.7c-0.3-0.6-0.7-2.1-1.1-2.9&#10;&#9;&#9;&#9;&#9;c-0.5-0.7-1.1-1.5-1.7-2.1c-0.9-0.7-0.9-0.9-0.2-0.5c-0.6-3.7-5.2-5.8-8.5-4.8c-4,1.1-5.4,4.8-4.8,8.5c0.4,2.7,1.9,4.7,3.7,6.6&#10;&#9;&#9;&#9;&#9;c-0.7-0.7,1.5,3.7,2,4.5c2.1,3.5,3.9,7.2,5.7,10.8c3.6,7.4,6.6,15.1,9.2,22.9c5.6,16.8,9.3,34.4,10.2,52.1&#10;&#9;&#9;&#9;&#9;c0.7,14.1-0.5,28.7-4.8,41.9c-21.6-24.3-50.3-42.2-84-35.8c-17.8,3.4-34.2,14.4-41.1,31.5c-5.8,14.3-3.3,31.2,6,43.5&#10;&#9;&#9;&#9;&#9;c23.8,31.4,76.8,27.1,105.5,5c6.7-5.2,12.1-11.2,16.5-17.9c3.4,5,6.5,10.1,9.5,15.3c11.4,19.8,19.3,41.2,24.3,63.5&#10;&#9;&#9;&#9;&#9;c12.1,53.9,7.8,111.6-6.3,164.7c-11.8,44-31.2,93.9-72.4,118.1c-30.8,18.2-68.7,16.2-100.3,1.1c-0.9-0.4-1.8-0.9-2.7-1.4&#10;&#9;&#9;&#9;&#9;c31.2-19.8,53.3-51.6,59.3-88.3c5.7-35.2-8.4-70.6-35.2-93.8c-22.2-19.1-54.7-31-82.7-17.6c-34.4,16.5-37.2,63.5-32.4,96.2&#10;&#9;&#9;&#9;&#9;c6,40.4,29.9,77.9,62.8,102.3c-30.5,13-66.1,16.2-98.3,9c-17.7-4-34.4-11.1-49.3-21.5c-16.6-11.5-28.9-27.5-39.1-44.8&#10;&#9;&#9;&#9;&#9;c-27.8-46.6-35.5-102-39.6-155.2c-4.1-53.7-3.5-108.1-13.4-161.3c-9.3-49.9-23.7-98.9-45-145.1c-20.7-45.1-49-87.1-85.4-121&#10;&#9;&#9;&#9;&#9;c-38.4-35.7-86.6-61.5-137.5-74.2c-47.2-11.8-96.6-12.1-144.9-12.1c-8.9,0-8.9,13.9,0,13.9c56.7,0,115.7,0,169.4,20.3&#10;&#9;&#9;&#9;&#9;c24.5,9.3,47.8,20.4,69.6,35.1c20.5,13.9,38.9,30.6,55.4,49c33.1,37,57.2,81.6,74.8,127.8c18,47.3,30.4,97.7,35.6,148.1&#10;&#9;&#9;&#9;&#9;c5.6,54.6,4.9,109.7,12.2,164.2c6.9,51.3,21.7,103.4,55.3,144c45.7,55.2,131.9,63.6,194.2,32.9c25.7,15.1,55.6,22.4,86.1,17.9&#10;&#9;&#9;&#9;&#9;c42.3-6.2,73.5-37.8,92.2-74.5c25.2-49.4,37.3-105.8,38.4-161C2338.4,767.4,2329,716.9,2303.8,673z M2246.6,679.8&#10;&#9;&#9;&#9;&#9;c-26.6,12.9-80,10.9-80.9-27.7c-0.4-14.4,10.1-26.5,23.6-31.9c20.4-8.1,41.5-2.8,59.1,9.2c9.7,6.6,18.2,15,25.6,24.3&#10;&#9;&#9;&#9;&#9;C2267.9,664.6,2259.1,673.8,2246.6,679.8z M2064.1,946.9c-6.9-19.2-9.6-39.9-7.6-60.3c1.5-15.7,6.9-31.8,19-42.2&#10;&#9;&#9;&#9;&#9;c8.8-7.6,21.9-10,33.2-8.4c14,1.9,27.3,8.3,38.3,17.2c26.4,21.1,39.5,54.5,32.8,87.8c-7.2,35.5-29.8,61.8-58.9,78.1&#10;&#9;&#9;&#9;&#9;C2095,1001.9,2074.7,976.2,2064.1,946.9z"/>
			<path fill="#333333" d="M2211.4,401.5c-28.7-10.1-60.6-2-89.2,7.1c6.4-13.6,11-28.1,13.4-43.5c0.8-0.1,1.7-0.3,2.6-0.8&#10;&#9;&#9;&#9;&#9;c13-6.5,22-17.4,23.8-32c1.7-13.4-2.2-27-5.7-39.8c-1.3-4.8-8.1-7.1-11.6-3.1c-9.2,10.6-19.8,19.8-25,33.3&#10;&#9;&#9;&#9;&#9;c-2.6,6.8-3.2,14.3-1.7,21.4c0.7,3.3,1.9,6.4,3,9.5c0.4,1.2,0.8,2.4,1.2,3.6c0.2,0.7,0.3,1.1,0.4,1.4c-0.3,0.9-0.4,1.7-0.3,2.6&#10;&#9;&#9;&#9;&#9;c-4.6,29-17,55.3-35.4,77.1c4.8-14.7,3-31.9-0.8-46.6c-4.8-18.3-14.4-38.8-29.8-51c12.7-29.7-14.2-66.5-47.1-59.4&#10;&#9;&#9;&#9;&#9;c-4.7,1-6,6.4-4.1,10.2c5.5,11.4,6.9,24.9,11.9,36.6c4.9,11.4,14.2,19.8,26.3,20.3c15.6,9.3,24.4,28.9,29.2,45.6&#10;&#9;&#9;&#9;&#9;c4.3,15,6.8,35.6-3.2,49c-13.5-23.3-36.5-40.7-56.6-57.9c-0.1-0.1-0.2-0.1-0.3-0.2c-1.4-12.8-5.3-24.7-14.4-34.3&#10;&#9;&#9;&#9;&#9;c-9.1-9.6-22-14.7-34.1-19.2c-7.1-2.7-10.8,6.8-6.7,11.6c3.9,4.6,4.7,11.1,5.6,16.8c1,6.4,2.2,12.5,5,18.4c3,6.4,9,11.3,15.4,14&#10;&#9;&#9;&#9;&#9;c6.7,2.8,14.1,3.1,20.8,5.8c1,0.4,2,0.4,2.9,0.3c10,8.5,20,16.9,29.4,26c10.2,10,20.4,21.3,25.7,34.8c0.3,0.9,0.8,1.6,1.3,2.2&#10;&#9;&#9;&#9;&#9;c-3,2.4-6.1,4.7-9.3,6.9c-36.1,24.9-80.7,36.6-124.4,33.9c-41.3-2.5-78.4-20.2-111-44.9c-34.9-26.4-64.2-59.3-97-88.1&#10;&#9;&#9;&#9;&#9;c-6.7-5.9-16.5,3.9-9.8,9.8c40.6,35.7,76.4,77.2,122.6,106c41.5,25.9,89.7,35.7,138,29.2c37.5-5.1,73.3-20.7,101.9-44.4&#10;&#9;&#9;&#9;&#9;c1,0.7,2.3,1,4,0.8c29.7-2.7,59.3-5.4,88.9-1.5c0.1,11.2,4.2,23.3,13.7,29.6c3.8,2.6,8.8,3.5,13.2,4.6c3,0.8,5.8,1.3,6.3,4&#10;&#9;&#9;&#9;&#9;c0,0.5,0.1,0.9,0.1,1.4c1,8.7,13.5,9.1,13.9,0c0-1.1,0-2.1-0.1-3c0.2-10.4,7.3-19.5,2.5-30.2c-2.8-6.3-8-11.7-14.5-14.2&#10;&#9;&#9;&#9;&#9;c-5.5-2.1-11.6-1.7-16.9-4.4c-2.4-1.2-4.7-1-6.5,0c-29.9-5.2-59.4-3.7-89.3-1.2c8.8-9.1,16.7-19,23.4-29.8c0.7,0,1.5-0.1,2.3-0.4&#10;&#9;&#9;&#9;&#9;c15.2-5,30.5-9.7,46.2-12.6c14.2-2.6,30.3-3.8,44.2,1c0.3,0.5,0.6,1.1,1.1,1.6c8.2,9.4,19.2,16.4,30.4,21.7&#10;&#9;&#9;&#9;&#9;c10.4,4.9,22.6,9.3,34.2,8.1c4-0.4,6.6-2.9,6.9-6.9C2281.2,405.7,2236.9,383,2211.4,401.5z M2132,330.7c1.9-8.9,8-15.9,14.3-22.4&#10;&#9;&#9;&#9;&#9;c1.5,6.3,2.6,12.7,2.5,19.3c-0.2,10.5-5.6,17.9-14,23c-0.1-0.2-0.1-0.4-0.2-0.5C2132.2,343.2,2130.4,337.8,2132,330.7z&#10;&#9;&#9;&#9;&#9; M2044,334.5c-8.8-0.8-13.2-7.9-16.3-16.7c-2.7-7.6-4.3-15.7-6.8-23.4C2038.2,296.7,2051,318.1,2044,334.5z M1989.7,380&#10;&#9;&#9;&#9;&#9;c-6-1.8-9.6-6.7-11.3-12.4c-1.8-5.6-2.5-11.2-3.6-16.6c4.6,2.3,8.9,5.1,12.6,8.7c6.3,6,9.3,14,10.7,22.4&#10;&#9;&#9;&#9;&#9;C1995.3,381.4,1992.5,380.8,1989.7,380z M2192.2,473.1c5.6,0.9,9.1,3,11.9,8.1c1.7,3.2,0,7.5-1.2,10.8c-2.6-1.2-5.4-2.1-8.3-2.8&#10;&#9;&#9;&#9;&#9;c-4.6-1.2-7.6-2.3-10.2-6.5c-2.3-3.7-3.2-8.1-3.4-12.5C2184.6,471.6,2188.2,472.4,2192.2,473.1z M2242.6,424.5&#10;&#9;&#9;&#9;&#9;c-7.4-3.5-14.5-7.9-20.6-13.3c15.2-8.2,37.9,3.3,41.8,20.1C2256.5,430.5,2249.2,427.7,2242.6,424.5z"/>
			<path fill="#333333" d="M1740.1,505.3c-11.3-24-26.1-46.1-42.9-66.4c-17.7-21.5-37.6-41-61.8-55.1c-30-17.5-64.3-25.9-97.1-36.3&#10;&#9;&#9;&#9;&#9;c-8.5-2.7-12.2,10.7-3.7,13.4c25.1,8,50.8,14.7,74.8,25.3c25.1,11.1,45.9,27.4,64.5,47.4c36.1,38.7,61.8,85.1,74.1,136.6&#10;&#9;&#9;&#9;&#9;c7.1,29.8,9.6,60.5,9.7,91.1c0,8.9,13.9,8.9,13.9,0C1771.6,607.5,1763.1,554.2,1740.1,505.3z"/>
			<path fill="#333333" d="M2147.7,886.9c-7.2-10.3-17.4-19.4-30-22.1c-13.8-3-26.6,3.4-35.8,13.4c-6,6.6,3.7,16.4,9.8,9.8&#10;&#9;&#9;&#9;&#9;c32.7-35.5,72.5,36,47.8,64.8c-5.8,6.7,4,16.6,9.8,9.8C2167.8,941,2163,908.8,2147.7,886.9z"/>
			<path fill="#333333" d="M2219.3,638.1c-1.1-4-4.8-5.4-8.5-4.8c-8.9,1.3-17.2,6.2-20,15.2c-3,9.7,4.3,18.4,12,23&#10;&#9;&#9;&#9;&#9;c7.7,4.6,14.6-7.3,7-12c-2.5-1.5-6.3-4.1-5.6-7.4c0.9-4.1,7.1-5.1,10.4-5.6C2218.2,646,2220.2,641.4,2219.3,638.1z"/>
			<path fill="#333333" d="M2354,938.5c-0.2-8.9-14.1-8.9-13.9,0c0.9,39.1-17.4,78.6-41.8,108.4c-23.6,28.8-59.6,54.1-98.8,47&#10;&#9;&#9;&#9;&#9;c-8.7-1.6-12.5,11.8-3.7,13.4c43.9,8,83.9-17,111.3-49.5C2334.6,1025.4,2355,981.7,2354,938.5z"/>
			<path fill="#333333" d="M2362.5,1032.4c0-0.6-0.1-1.1-0.2-1.6c0.2-3.6-2-7.4-6.7-7.4c-4.4,0-6.7,3.4-6.7,6.9&#10;&#9;&#9;&#9;&#9;c-0.2,0.7-0.3,1.4-0.2,2.2c1.6,37.9-25.6,72.3-63.2,78.6c-8.8,1.5-5.1,14.8,3.7,13.4C2332.5,1117.1,2364.4,1075.9,2362.5,1032.4z&#10;&#9;&#9;&#9;&#9;"/>
			<path fill="#333333" d="M2055.2,517c-20,42.7-74.8,22.5-111.3,24.3c-8.9,0.4-8.9,14.3,0,13.9c22.4-1.1,44.5,3.9,66.9,2.9&#10;&#9;&#9;&#9;&#9;c24.2-1.1,45.7-11.3,56.4-34C2071,515.9,2059,508.9,2055.2,517z"/>
			<path fill="#333333" d="M2321,538.3c-4.7-7.5-16.8-0.6-12,7c7.9,12.5,12.3,26,12.7,40.8c0.4,15.4-3.3,30.7-7,45.6&#10;&#9;&#9;&#9;&#9;c-2.2,8.7,11.2,12.4,13.4,3.7c4-16.1,7.6-32.6,7.4-49.3C2335.4,569,2330.1,552.7,2321,538.3z"/>
		</g><g transform="matrix(1, 0, 0, 1, 0, 0)">
				<path fill="#FEAAAA" d="M2296.3,2389.5c-0.3-3.9-3.7-7.8-8.6-6.7c-5.1,1.1-7.6,5.7-9.4,10.1c-0.8,2-1.4,4-2.1,6&#10;&#9;&#9;&#9;&#9;&#9;c-0.3,0.8-0.3,0.8-0.8,1.9c-0.2,0.3-0.4,0.6-0.6,0.9c0,0,0,0,0,0c0,0,0,0,0,0c-0.1,0.1-0.1,0.2-0.2,0.3c0.1-0.1,0.1-0.2,0.1-0.3&#10;&#9;&#9;&#9;&#9;&#9;c-6.3,4-2.2,15.5,5.4,12.6c0.5-0.2,1.1-0.4,1.7-0.7c0,0,0,0,0,0c0,0,0,0,0,0C2290.2,2409.8,2301.4,2399,2296.3,2389.5z"/>
				<path fill="#FEAAAA" d="M2274.7,2401.8C2274.7,2401.8,2274.7,2401.8,2274.7,2401.8C2274.7,2401.8,2274.7,2401.8,2274.7,2401.8&#10;&#9;&#9;&#9;&#9;&#9;C2274.7,2401.8,2274.7,2401.8,2274.7,2401.8C2274.7,2401.8,2274.7,2401.8,2274.7,2401.8z"/>
				<path fill="#FEAAAA" d="M2274.7,2401.8C2274.8,2401.4,2273.7,2402.5,2274.7,2401.8L2274.7,2401.8z"/>
			</g><path fill="#FEAAAA" d="M2329.9,2447.1c5.2-7.3-6.8-14.2-12-7c-0.3,0.4-0.5,0.8-0.8,1.2c-0.8,0.8-1.4,1.8-1.8,2.9&#10;&#9;&#9;&#9;&#9;c-4.8,8.3-7.6,17.6-13.1,25.5c-3.5,5.1,2.3,11.9,7.8,10.2c14.4-4.3,22.1-18,19.2-31.8C2329.5,2447.7,2329.7,2447.4,2329.9,2447.1&#10;&#9;&#9;&#9;&#9;z" transform="matrix(1, 0, 0, 1, 0, 0)"/><path fill="#FEAAAA" d="M2439.5,2457.3c-0.9-3.4-2.9-6.3-5.1-9c-2.3-2.7-5.5-4.5-7.3-7.7c-2.2-3.9-6.3-4.1-9.3-2.3&#10;&#9;&#9;&#9;&#9;c-2.6,0.8-4.7,2.9-4.7,6.4c-0.1,10.6,9.3,18.1,9.7,28.7c0.2,6,7.4,9.2,11.8,4.9C2440.3,2472.7,2441.4,2464.8,2439.5,2457.3z" transform="matrix(1, 0, 0, 1, 0, 0)"/><path fill="#FEAAAA" d="M2520.4,2322.4c-0.3-7.2-9-9-12.9-3.5c-1.8,2.5-5.1,4-7.6,5.5c-3.4,2-6.5,4.2-9.5,6.8&#10;&#9;&#9;&#9;&#9;c-6,5.3-11,12.5-13.4,20.1c-2.2,6.9,6.1,10.6,10.8,7.3c2.4,1.7,5.6,1.8,8.1-1.1c1.8-2.1,5.1-2.8,7.5-4.1&#10;&#9;&#9;&#9;&#9;c3.9-2.1,7.7-4.4,10.8-7.7C2520.1,2339.6,2520.8,2330.6,2520.4,2322.4z" transform="matrix(1, 0, 0, 1, 0, 0)"/><path fill="#FEAAAA" d="M2466.7,2232.8c-1.8-6.9-11.3-6.4-13.4,0c0.4-0.7,0.3-0.6-0.1,0.2c-0.4,0.7-0.9,1.4-1.3,2.1&#10;&#9;&#9;&#9;&#9;c-1,1.5-2.3,2.8-3.5,4.2c-3,3.4-6,6.7-8.7,10.3c-5.3,7.1-8.3,15.4-2,22.9c2.5,3.1,5.9,2.8,8.3,1c3.5,0.5,7.6-1.5,10.5-3.8&#10;&#9;&#9;&#9;&#9;c4.2-3.5,7.8-8.9,10.8-13.3C2472.5,2248.5,2468.8,2240.8,2466.7,2232.8z" transform="matrix(1, 0, 0, 1, 0, 0)"/><path fill="#333333" d="M2537.4,1543.5c-5.6-7-15.3,2.9-9.8,9.8c26.2,32.9,20.4,79.7-6.8,110c-5.3,6-11.5,11.2-18.3,15.5&#10;&#9;&#9;&#9;&#9;c-2.5-16.6-9.6-31.7-20.7-44.4c-12.2-14-29.5-25.8-48.7-26c-32.9-0.3-53.1,36.7-36,64.3c10.9,17.6,33.1,27,52.7,30.2&#10;&#9;&#9;&#9;&#9;c13.4,2.2,26.8,1,39.5-3c0,0.7-0.1,1.5-0.2,2.2c-3.3,37.9-26.7,73.3-51.9,100.4c-23,24.8-52.8,47.9-86.3,56.3&#10;&#9;&#9;&#9;&#9;c-2.5-11-6.1-21.7-11-32c-8.4-17.7-21.5-35.9-38.6-46.1c-14.4-8.6-33.3-12.4-49.1-5.7c-18.2,7.8-23.4,29.1-20.5,47.2&#10;&#9;&#9;&#9;&#9;c3.2,19.5,21.5,32.4,38.3,39.7c18.1,7.9,38,12,57.7,13.1c4.1,0.2,8.1,0.1,12.1-0.3c1.9,13.5,2.2,27.2,1.4,40.8&#10;&#9;&#9;&#9;&#9;c-2.7,47-18.8,93.6-40.7,135c-22.1,41.8-53.2,78.7-91,107.2c-41.2,31.1-89.2,51.7-138.9,64.7c-50.3,13.2-102.4,18.6-154.3,19.7&#10;&#9;&#9;&#9;&#9;c-20.8,0.5-41.7,0.6-62.5-1.4c-17.9-1.7-35.6-4.5-53.3-7.9c-41.2-8.1-82.4-19.9-120.2-38.3c-31.3-15.3-65.6-37.4-78.9-71.3&#10;&#9;&#9;&#9;&#9;c-1.3-3.4-2.4-6.9-3.3-10.4c-2.2-8.7-15.5-5-13.4,3.7c9,36.2,39.2,62,70.1,80.1c36.6,21.4,78,34.9,119,44.6&#10;&#9;&#9;&#9;&#9;c35.9,8.5,72.9,14.4,109.8,14.9c52,0.7,104.3-2.7,155.5-12.5c50.7-9.7,100.4-26.4,145-52.6c43.1-25.3,80.5-60.1,108.7-101.3&#10;&#9;&#9;&#9;&#9;c26-38.1,44.8-82.2,55.1-127.2c6.7-29.3,9.6-60.3,5.2-90.1c7.8-1.9,15.5-4.7,22.9-7.9c36.4-15.8,67.3-44.7,90.7-76.3&#10;&#9;&#9;&#9;&#9;c19.7-26.7,36.2-60.2,36.4-94.2c1.9-1,3.8-2.1,5.7-3.2c23.3-14.3,40.1-38.7,46.6-65.1C2563,1596.7,2556,1566.8,2537.4,1543.5z&#10;&#9;&#9;&#9;&#9; M2294.2,1855.7c-17.2-4.6-37.4-12.4-46.3-28.9c-6.9-12.9-3.1-34.4,11.4-39.7c13.8-5,31,1.3,41.9,10.3&#10;&#9;&#9;&#9;&#9;c15.7,13,26.6,32.6,32.9,51.8c1.3,4,2.4,8,3.4,12.1C2323.1,1862.4,2307.9,1859.4,2294.2,1855.7z M2414.3,1671.9&#10;&#9;&#9;&#9;&#9;c-10.1-9.6-12.5-23.3-6.6-34.5c5.8-11,18.2-17,31-14.7c17.2,3,32.3,17.6,41,32.1c5.7,9.4,8.7,19.9,9.6,30.7&#10;&#9;&#9;&#9;&#9;c-5.7,2.2-11.7,3.8-17.9,4.5C2451.9,1692.1,2428.7,1685.8,2414.3,1671.9z" transform="matrix(1, 0, 0, 1, 0, 0)"/><path fill="#333333" d="M2523.3,2303.3c-13.6,4.1-26.7,9.7-37.2,19.5c-9.3,8.8-14.8,20.7-19.2,32.5c-18.8,5.8-38.4,8.6-57.8,11.9&#10;&#9;&#9;&#9;&#9;c-2,0.3-3.3,1.2-4.1,2.4c-8.7-18.2-19.8-35.3-33-50.8c22.8-9.3,44.7-20.7,64.8-35c0.5-0.3,0.8-0.7,1.2-1&#10;&#9;&#9;&#9;&#9;c13.8-0.1,27.5-8.2,35.3-19.4c4.5-6.4,4.5-14.6,2.9-21.9c-0.9-4.3-5.8-12.3-3.7-16.6c2.8-5.8-3.2-13.7-9.5-9.5&#10;&#9;&#9;&#9;&#9;c-11.2,7.5-23.2,15-31.3,26.1c-7.5,10.2-8.9,21.5-5.5,32.9c-19.9,13.7-41.5,24.7-64,33.5c-1.3-1.4-2.7-2.8-4-4.1&#10;&#9;&#9;&#9;&#9;c-34.9-34.7-79.7-58.8-126.6-73c-15.1-4.6-30.6-8-46.2-10.4c-18.4-2.8-37-1.9-55.4,0c-18.4,1.9-36.7,5.1-55.1,7.4&#10;&#9;&#9;&#9;&#9;c-16.1,2.1-33,4.1-49.2,1.7c-3.7-0.5-7.4,0.9-8.5,4.8c-0.9,3.3,1.1,8,4.8,8.5c26.1,3.8,52.7-1.1,78.5-4.8&#10;&#9;&#9;&#9;&#9;c27.7-4,56.3-8.3,84.1-3.9c46.3,7.3,91.1,24.5,129.7,51.1c0.2,0.8,0.5,1.6,1.1,2.4c4.8,6.9,8,14.2,8.2,22.7&#10;&#9;&#9;&#9;&#9;c0.2,7.9-2.6,15.7-5.9,22.8c-6.4,13.6-15.6,25.7-22.5,39.1c-12.7-1.3-22.6,4.7-27.6,16.5c-3.6,8.4-5.2,22-15.1,25.4l0,0&#10;&#9;&#9;&#9;&#9;c-0.6,0.2-1.1,0.4-1.7,0.7c-7.2,3.2-2,15.2,5.3,12.7c1-0.4,2-0.8,2.9-1.2c5.4-1.9,11.9-1.1,17.5-1.8c7.4-0.9,13.5-3.7,18.6-9.2&#10;&#9;&#9;&#9;&#9;c6.6-7.1,10.6-19.5,8.6-29.8c0.5-0.5,0.9-1.1,1.2-1.8c7.5-16.6,19.3-30.9,26.5-47.6c4.8-11.2,6.7-22.7,4.9-33.7&#10;&#9;&#9;&#9;&#9;c6.1,5.3,11.8,10.8,17.3,16.7c0.6,1.9,1.9,3.4,3.7,4c7.3,8.2,14.1,16.9,20.1,26c-23.7,20.9-33.2,52-51.3,77.3&#10;&#9;&#9;&#9;&#9;c-10.1-1.9-17.7,12.1-21.4,20.2c-3.2,7.2-6,14.5-9,21.8c-1.1,2.6-2.3,5.2-3.6,7.8c-1.4,2.7-1.7,3.4-3.4,4.9&#10;&#9;&#9;&#9;&#9;c-4.8,4-0.8,11.9,4.9,11.8c15-0.2,30.7-4.5,39.8-17.3c8.6-11.9,8-27.3,3.5-40.7c17.1-23.2,25.8-54.4,47.7-74&#10;&#9;&#9;&#9;&#9;c12.4,21.6,21.1,45.3,25.2,70.5c-7.1,6.9-5.3,18.4-1.2,28.3c2.5,6.2,5.6,12.1,7.8,18.3c0.9,2.6,1.5,5.2,1.5,6.6&#10;&#9;&#9;&#9;&#9;c-1.2,0.9-2.4,1.8-3.3,2.7c-4.7,4.5,0.1,14.3,6.7,11.6c3.5-1.4,5.9-3.3,7.5-5.6c3.9-3,8.1-5.7,11.8-9c6-5.3,9.6-12.1,10.4-20&#10;&#9;&#9;&#9;&#9;c0.9-8.6-3.1-16.6-8.7-22.8c-4.8-5.3-11.7-8.8-15.9-14.6c-1.1-1.5-2.5-2.4-4-2.8c-2.7-15.1-7-29.7-12.8-43.7&#10;&#9;&#9;&#9;&#9;c0.9,0.2,1.9,0.3,3,0.1c20.4-3.4,41-6.3,60.8-12.8c1-0.3,1.8-0.8,2.4-1.3c0.7,0.3,1.4,0.5,2.2,0.6c15.1,1.8,33.3-3,42.4-15.6&#10;&#9;&#9;&#9;&#9;c4.3-5.9,5-13.8,5-20.8c0-6-0.6-11.6,4.4-15.8C2535.5,2310.4,2529.7,2301.4,2523.3,2303.3z M2459.6,2234.5c0,0.1,0,0.2,0.1,0.3&#10;&#9;&#9;&#9;&#9;c1.5,5.3,4.5,11.1,3.7,16.7c-1.5,10.1-14.6,16.6-24.5,17.4C2435.1,2254.1,2447.3,2243.1,2459.6,2234.5z M2282.4,2408.4&#10;&#9;&#9;&#9;&#9;c-2.5,1.8-5.6,2.5-8.8,2.7c1.4-2.9,2.7-6,3.8-9.2c1.4-4,2.8-9,5.1-12c1.9-2.4,4.2-3.5,6.8-3.8&#10;&#9;&#9;&#9;&#9;C2292.6,2393,2288.1,2404.2,2282.4,2408.4z M2322.2,2467.8c-3.5,5.3-9.2,8.2-15.3,9.7c2.5-5.8,4.8-11.7,7.1-17.5&#10;&#9;&#9;&#9;&#9;c2.2-5.4,4.5-10.8,7.6-15.8c0.2-0.3,1.5-2.2,1.2-1.9c0.2-0.2,1.1-1.1,1.5-1.5C2327.1,2449.9,2327.7,2459.4,2322.2,2467.8z&#10;&#9;&#9;&#9;&#9; M2418.5,2443c0-0.1,0.1-0.2,0.1-0.4c0.1-0.5,0.2-0.6,0.4-0.9c-0.2,0.3,0.2-0.1,0.6-0.4c0.5-0.2,0.9-0.3,1.3-0.6&#10;&#9;&#9;&#9;&#9;c7.3,6.5,16.1,12.2,16.4,22.5c0.2,5.1-3,9.2-7.2,12.8c-1-3.6-2.5-7.2-3.9-10.4c-2.5-5.8-5.4-11.4-7-17.5&#10;&#9;&#9;&#9;&#9;c-0.1-0.5-0.6-2.9-0.6-2.7c-0.1-0.6-0.1-1.3-0.1-1.9C2418.5,2443.1,2418.5,2443,2418.5,2443z M2482.5,2353.5&#10;&#9;&#9;&#9;&#9;c3.1-7.3,7-14.3,12.6-20.1c4.9-5,10.9-8.7,17.3-11.5c-0.4,5.5-0.1,11.2-1.3,16.9C2508.7,2350.5,2493.6,2353.8,2482.5,2353.5z" transform="matrix(1, 0, 0, 1, 0, 0)"/><path fill="#333333" d="M2316.8,1822.3c-7.3-11.1-17.7-18.9-31.3-19.4c-9.7-0.4-20.3,4.2-26.5,11.6c-5.7,6.8,4.1,16.7,9.8,9.8&#10;&#9;&#9;&#9;&#9;c3.9-4.7,9.5-7.3,15.6-7.6c8.8-0.4,15.8,5.6,20.4,12.6C2309.7,1836.7,2321.7,1829.8,2316.8,1822.3z" transform="matrix(1, 0, 0, 1, 0, 0)"/><path fill="#333333" d="M2472.5,1649.6c-13.3-20.3-39.9-21.7-54.6-2.1c-5.4,7.2,6.7,14.1,12,7c8.4-11.2,23.5-8.8,30.7,2.1&#10;&#9;&#9;&#9;&#9;C2465.4,1664,2477.4,1657.1,2472.5,1649.6z" transform="matrix(1, 0, 0, 1, 0, 0)"/><path fill="#333333" d="M2193.9,2012.2c-48.3,72.7-144,90.5-224.4,101.1c-3.7,0.5-6.9,2.8-6.9,6.9c0,3.4,3.2,7.4,6.9,6.9&#10;&#9;&#9;&#9;&#9;c85.8-11.3,184.9-30.5,236.3-107.9C2210.8,2011.7,2198.8,2004.7,2193.9,2012.2z" transform="matrix(1, 0, 0, 1, 0, 0)"/><path fill="#333333" d="M2183.2,2091.1c-13.3,19.3-30.7,33.8-52.2,43.1c-21.3,9.2-44.8,13-67.4,17.7c-8.8,1.8-5,15.2,3.7,13.4&#10;&#9;&#9;&#9;&#9;c24-5,48.1-9.5,70.7-19.1c23.7-10,42.6-27.1,57.1-48.1C2200.3,2090.7,2188.2,2083.8,2183.2,2091.1z" transform="matrix(1, 0, 0, 1, 0, 0)"/><path fill="#333333" d="M2209,2322.2c-74-75.1-189.7-37.9-280.3-25.1c-52.2,7.4-105.6,2.7-157.4-6.6c-29.1-5.2-58-13-85.1-25.2&#10;&#9;&#9;&#9;&#9;c-21-9.5-40.6-21.9-58.6-36.2c-14.3-11.4-27.9-23.9-39.7-38c-8.9-10.7-18.8-24.4-19-38.9c-0.1-8.9-14-8.9-13.9,0&#10;&#9;&#9;&#9;&#9;c0.3,20.8,14.4,39.2,27.6,54c15.2,17.1,33.1,31.9,51.7,45.2c45.5,32.5,99.6,48,154.4,55.9c28.2,4,57,7.1,85.5,7.7&#10;&#9;&#9;&#9;&#9;c23.3,0.5,46.6-2.7,69.6-6.2c49.3-7.6,98.4-19.1,148.6-18.1c39.8,0.9,78.2,12.4,106.7,41.3&#10;&#9;&#9;&#9;&#9;C2205.5,2338.3,2215.3,2328.5,2209,2322.2z" transform="matrix(1, 0, 0, 1, 0, 0)"/><path fill="#333333" d="M2176,2357.7c-23.9-39.6-81.1-49-123-39.4c-8.7,2-5,15.4,3.7,13.4c19-4.4,39.3-3.6,58.2,1&#10;&#9;&#9;&#9;&#9;c19.4,4.7,38.6,14.6,49.2,32.1C2168.6,2372.3,2180.6,2365.4,2176,2357.7z" transform="matrix(1, 0, 0, 1, 0, 0)"/><path fill="#333333" d="M2554.5,1719.2c-0.5-8.9-14.4-8.9-13.9,0c2.1,34.5-10.6,69.7-30.1,97.8c-19.6,28.2-51.3,50.5-87,44.8&#10;&#9;&#9;&#9;&#9;c-8.7-1.4-12.5,12-3.7,13.4c40.8,6.5,75.7-15.3,99.6-46.9C2542.3,1798,2556.8,1757.3,2554.5,1719.2z" transform="matrix(1, 0, 0, 1, 0, 0)"/><path fill="#333333" d="M2564.9,1800.5c-1.5-8.8-14.9-5.1-13.4,3.7c5.5,32.6-30.9,57.8-56.5,69c-8.2,3.6-1.1,15.5,7,12&#10;&#9;&#9;&#9;&#9;C2534.6,1870.9,2571.6,1840.1,2564.9,1800.5z" transform="matrix(1, 0, 0, 1, 0, 0)"/><path fill="#333333" d="M2568.1,1531.9c-7.6-4.8-14.6,7.2-7,12c20,12.5,20,43.7,20,64.4c0,8.9,13.9,8.9,13.9,0&#10;&#9;&#9;&#9;&#9;C2594.9,1581.8,2593,1547.5,2568.1,1531.9z" transform="matrix(1, 0, 0, 1, 0, 0)"/><path fill="#333333" d="M2351.6,2265.5c-5.8-16.6-19.6-28.9-33.7-38.8c-13.9-9.7-30.6-17.9-47.7-19.7c-8.9-0.9-8.8,12.9,0,13.9&#10;&#9;&#9;&#9;&#9;c13.6,1.4,26.9,8.8,38.2,16.1c11.8,7.7,25,18.4,29.8,32.2C2341.2,2277.6,2354.6,2274,2351.6,2265.5z" transform="matrix(1, 0, 0, 1, 0, 0)"/><path fill="#FEAAAA" d="M1209.7,2149.2c0.1-7.6-3.5-14.6-5.1-21.9c-1.2-5.6-10.1-7.1-12.7-1.7c-5.5,11.6-18.6,31.4-3.9,41.5&#10;&#9;&#9;&#9;&#9;c2.9,2,5.6,1.4,7.6-0.4C1204.5,2165,1209.6,2158.2,1209.7,2149.2z" transform="matrix(1, 0, 0, 1, 0, 0)"/><path fill="#FEAAAA" d="M1132.8,2338.8c-0.7-4.9-7.2-8.9-11.8-4.3c-7.8,7.6-7.9,16.4-1.1,24.7c5.4,6.7,12.7,9.7,14.2,18.8&#10;&#9;&#9;&#9;&#9;c1.1,6.7,12.1,6.6,13.4,0C1149.8,2365.9,1144.8,2345.8,1132.8,2338.8z" transform="matrix(1, 0, 0, 1, 0, 0)"/><path fill="#FEAAAA" d="M1223.8,2330c-0.8-2.7-2.6-4.1-4.6-4.7c-1.4-3.6-5.5-6.3-9.8-3.7c-6.2,3.7-11.1,9.2-9.6,16.8&#10;&#9;&#9;&#9;&#9;c1.2,5.9,5.5,10.5,7.5,16.1c2.1,5.9,12,7.3,13.4,0C1222.2,2346.4,1226.2,2338.4,1223.8,2330z" transform="matrix(1, 0, 0, 1, 0, 0)"/><path fill="#FEAAAA" d="M1303.5,2317.6c-2.9-2.8-6.6-4.8-10.1-6.6c-1.6-0.8-3.2-1.7-4.8-2.6c-1.4-0.7-2.4-1.6-2.5-1.7&#10;&#9;&#9;&#9;&#9;c-0.2-0.2-0.4-0.4-0.6-0.5c-2.5-4.3-10.8-4.8-13.1,1.5c-2.4,6.4,1.9,12.1,6.4,16.2c3.1,2.8,11,7.2,11.5,11.8&#10;&#9;&#9;&#9;&#9;c0.6,6,7.1,9.2,11.8,4.9C1309.2,2334,1310.9,2324.7,1303.5,2317.6z" transform="matrix(1, 0, 0, 1, 0, 0)"/><path fill="#FEAAAA" d="M1290.9,2146.7c-11.8,5.6-21.2,17.1-24.4,29.8c-4.1,3.5-2.6,12.2,4.5,12.4c17.7,0.6,30.6-20.3,30.4-36.3&#10;&#9;&#9;&#9;&#9;C1301.3,2147.1,1295.6,2144.5,1290.9,2146.7z" transform="matrix(1, 0, 0, 1, 0, 0)"/><path fill="#333333" d="M932.9,2253.7c-0.6-3.7-5.2-5.8-8.5-4.8c-4,1.1-5.4,4.8-4.8,8.5c4.7,30.6,2.5,63.2-12.3,90.6&#10;&#9;&#9;&#9;&#9;c-12.5,23.1-32.8,39.8-56.9,50.6c-49.2,22-111.6,16.9-159.7-6.8c-24-11.8-45.4-29-59.6-51.4c-1.3-2-2.5-4.2-3.7-6.3&#10;&#9;&#9;&#9;&#9;c14.6-3.4,28.6-8.9,41.6-16.8c17.1-10.5,31.4-25.5,41.7-42.7c7.7-12.8,12.3-27.8,9.5-42.8c-4.7-25.1-32.1-37.2-55.4-35.5&#10;&#9;&#9;&#9;&#9;c-30.7,2.2-54,24.7-61.9,53.7c-6.5,23.9-4,50.3,4.7,73.7c-31.3,4-64-0.9-94-9.3c-40-11.2-78.5-29.8-111.6-54.9&#10;&#9;&#9;&#9;&#9;c-39.9-30.2-69.2-74.8-86.1-121.5c-9.6-26.6-15.2-54.6-16.9-82.9c-0.9-14.4-0.7-28.8,0.3-43.2c0.9-12.4,2.1-25.1,5.3-37.2&#10;&#9;&#9;&#9;&#9;c5.3-19.7,15-38.3,26.2-55.3c11.8-17.8,26.6-34.6,45.2-45.4c14.3-8.3,30.4-10.9,46.1-5.3c8.4,3,12-10.4,3.7-13.4&#10;&#9;&#9;&#9;&#9;c-43.4-15.5-81.9,20.9-104.7,53.6c-12.1,17.4-21.9,36.7-28.4,56.9c-3.5,11-5,22.4-6.2,33.8c-1.6,14.4-2.2,28.9-1.9,43.4&#10;&#9;&#9;&#9;&#9;c1.1,56.9,17.8,113.3,48.8,161.1c13.4,20.7,29.5,40.2,48.1,56.5c14.9,12.9,31.3,24,48.4,33.7c37.3,21.2,79.1,36.4,121.7,42.1&#10;&#9;&#9;&#9;&#9;c20.3,2.7,41.3,3.3,61.7,0.3c0.7,1.5,1.5,2.9,2.3,4.4c27.7,50.6,85.8,77.3,141,83.6c54,6.2,115.9-8,151.1-52.2&#10;&#9;&#9;&#9;&#9;C934.3,2338.7,939.3,2295.2,932.9,2253.7z M615.4,2256.6c3.1-13.9,10.4-27.5,21.4-35.8c9.9-7.6,21.2-11.1,33-11.1&#10;&#9;&#9;&#9;&#9;c5.8,0,9.9,0.7,15.9,2.7c3.8,1.3,9.1,4.3,12,6.9c7.5,6.7,10.7,16.1,9.4,25.9c-2.3,16.7-13.4,31.8-24.8,43.6&#10;&#9;&#9;&#9;&#9;c-13.2,13.6-29.8,23.1-47.8,28.8c-4.3,1.4-8.7,2.5-13.1,3.5C613.2,2300.9,610.7,2278.2,615.4,2256.6z" transform="matrix(1, 0, 0, 1, 0, 0)"/><path fill="#333333" d="M1312.6,2315.7c-3.6-7.8-9.2-14.5-17.2-17.9c-6.4-2.7-13.6-2.6-19.9-5.6c-1.6-0.8-3.2-0.9-4.6-0.6&#10;&#9;&#9;&#9;&#9;c-12.9-17.4-29.1-31.3-47.6-41.3c18.7-9.3,33.7-25.1,42.7-44c0.8-0.3,1.6-0.7,2.4-1.3c8.4-7,19.2-10,27.2-17.7&#10;&#9;&#9;&#9;&#9;c5.1-4.9,7.9-11.3,8.8-18.2c0.9-6.8-0.4-14.5,2.4-21c2.5-5.6-1.5-11.4-7.8-10.2c-26.2,5.1-53.3,28.6-42.1,55.8&#10;&#9;&#9;&#9;&#9;c-0.5,0.6-1,1.3-1.3,2.2c-8.4,21.7-27.1,39.6-49.5,46.3c-9.1-3.5-18.7-6.2-28.5-8.1c-11.6-2.1-23.4-3.1-35.2-3.2&#10;&#9;&#9;&#9;&#9;c22.1-12.9,42.4-29,52.6-52.9c12.6-5.9,22.3-13.9,24-28.8c0.9-7.8-0.8-14.5-3.4-21.7c-1.2-3.3-2.4-6.7-3.4-10.1&#10;&#9;&#9;&#9;&#9;c-0.3-1-1.2-5.5-1.2-5.5c5.8-6.7-3.6-16.4-9.8-9.8c-9.9,10.6-20.4,21.7-25.8,35.4c-5.5,13.7-3,27.1,5.7,38.1&#10;&#9;&#9;&#9;&#9;c-13.2,28.6-46,44.2-72.6,57.6c-0.1,0-0.1,0.1-0.2,0.1c-17.9,2.5-35.6,7-52.6,12.6c-34.1,11.4-66.6,28.3-95.5,49.8&#10;&#9;&#9;&#9;&#9;c-25.9,19.3-49.8,42.7-65.4,71.2c-4.3,7.8,7.7,14.8,12,7c18.1-32.9,47.6-58.7,78.7-78.9c25-16.2,52.3-29.1,80.8-37.9&#10;&#9;&#9;&#9;&#9;c1,1,2.4,1.6,4.1,1.8c31,3.6,50.4,38,50.7,66.7c0,0,0,0.1,0,0.1c-6.7,4.7-13,10.4-15.4,18.4c-2,7.1,0.8,14.4,4.9,20.1&#10;&#9;&#9;&#9;&#9;c7.6,10.6,23.1,20.7,21.3,35c-0.4,3.8,3.5,6.9,6.9,6.9c4.1,0,6.5-3.2,6.9-6.9c1.6-14.7,13.6-26.8,10.4-42.4&#10;&#9;&#9;&#9;&#9;c-1.4-6.7-5.2-12.2-9.7-17.2c-3.9-4.3-8.7-7.9-11.3-13.3c-0.1-0.2-0.2-0.4-0.3-0.6c0-0.1,0-0.1,0-0.2&#10;&#9;&#9;&#9;&#9;c-0.3-30.3-17.3-61.9-44.7-74.8c4-0.9,8-1.7,12-2.4c29.6-5.3,60.7-5.2,89.7,3.4c4.2,1.2,8.2,2.7,12.2,4.3c-2.4,1.4-3.9,4-2.8,7.5&#10;&#9;&#9;&#9;&#9;c5.3,16,9.3,33.4,3.5,49.8c0,0-0.1,0-0.1,0.1c-12.5,7.3-17.7,19-12,32.6c4.4,10.5,14.7,21.2,13.9,33.1c-0.6,8.9,13.2,8.9,13.9,0&#10;&#9;&#9;&#9;&#9;c0.8-12,9.7-22.1,13.3-33.3c4.5-13.8-3.5-24.4-14.9-30.8c5.5-17.6,1.7-36.6-3.8-53.8c18.5,9.6,34.4,23.6,46.5,40.8&#10;&#9;&#9;&#9;&#9;c-3.7,10.5,1.7,19.7,9,27.8c6.9,7.7,17.2,15.5,15.9,27c-0.7,5.9,8.1,9.3,11.8,4.9C1309.4,2348.6,1320.8,2333.6,1312.6,2315.7z&#10;&#9;&#9;&#9;&#9; M1291.4,2154.8c-0.2,1.8-0.3,3.6-0.3,5.5c-0.2,6.6-0.7,12.2-5.4,17.2c-4.4,4.7-10.3,7.7-16.2,10.8&#10;&#9;&#9;&#9;&#9;C1263.6,2172.9,1277,2160.9,1291.4,2154.8z M1189.1,2140.3c2.7-5.6,6.3-10.7,10.3-15.5c1.9,5.8,4.5,11.5,5.7,16.5&#10;&#9;&#9;&#9;&#9;c2.9,12.4-5.4,19.3-14.9,24C1185.2,2157.7,1184.9,2149.4,1189.1,2140.3z M1126.5,2338.9c5.5,6.8,13.5,12,15.9,20.6&#10;&#9;&#9;&#9;&#9;c1.5,5.6-1.3,12.1-3.6,17.4c-3.5-5-7.8-9.6-11.7-13.9c-2-2.2-3.9-4.4-5.6-6.8c-1.4-2-2.6-4.6-2.7-5.5c-0.3-2.5,0.3-3.7,1.9-6.1&#10;&#9;&#9;&#9;&#9;C1122.2,2342.3,1124.3,2340.5,1126.5,2338.9z M1220.7,2335.4c1.2,3.7-0.7,8.1-2.2,11.4c-1.5,3.3-3.2,6.6-4.8,9.8&#10;&#9;&#9;&#9;&#9;c-1.6-2.9-3.3-5.7-4.8-8.5c-2.2-3.8-4.7-8.1-5.1-12.6c-0.3-4.4,3-7.1,6.5-9.2C1214.4,2328.3,1219.2,2331,1220.7,2335.4z&#10;&#9;&#9;&#9;&#9; M1297,2340.9c-2.7-5.3-6.7-10.1-10.8-14.5c-3.3-3.6-7-6.9-9.7-10.9c-2.2-3.1-3.3-5.6-1.9-8.8c3.1,1,6.2,1.7,9.4,2.4&#10;&#9;&#9;&#9;&#9;c5.4,1,9.6,2.7,13,7.2C1303.7,2325.2,1301.7,2333.3,1297,2340.9z" transform="matrix(1, 0, 0, 1, 0, 0)"/><path fill="#333333" d="M661.4,2226.2c-6.9,8.1-14.4,15.5-20.1,24.6c-7.5,12-10.4,26-9.7,40c0.5,8.9,14.4,8.9,13.9,0&#10;&#9;&#9;&#9;&#9;c-0.7-12.4,1.9-23.6,8.5-34.1c4.8-7.7,11.5-13.9,17.2-20.7C676.9,2229.2,667.1,2219.3,661.4,2226.2z" transform="matrix(1, 0, 0, 1, 0, 0)"/><path fill="#333333" d="M881.3,2274.5c-4.7-7.6-16.7-0.6-12,7c22,35.6-2.6,89.7-45.2,94.1c-8.8,0.9-8.9,14.8,0,13.9&#10;&#9;&#9;&#9;&#9;C876.6,2384.1,909.2,2319.8,881.3,2274.5z" transform="matrix(1, 0, 0, 1, 0, 0)"/><path fill="#333333" d="M1063.5,2290.8c0-3.4-3.2-7.4-6.9-6.9c-10,1.3-19.4,6.1-28.3,10.5c-13.3,6.5-26.2,13.9-38.7,21.8&#10;&#9;&#9;&#9;&#9;c-11.2,7.1-22.3,14.6-32.1,23.6c-5.8,5.3-14.4,14.4-9.3,22.8c4.3,7.2,15.2,1.5,12.6-5.6c0.4-0.6,0.8-1.3,1.2-1.9&#10;&#9;&#9;&#9;&#9;c0.1-0.1,0.1-0.2,0.2-0.2c0,0,0.2-0.2,0.6-0.7c0.7-0.9,1.5-1.7,2.3-2.5c1.7-1.7,3.5-3.3,5.3-4.8c9.3-8,19.7-14.7,30.1-21.1&#10;&#9;&#9;&#9;&#9;c11-6.8,22.3-13.2,33.9-18.9c4.5-2.3,9.4-4.5,13.7-6.2c1.9-0.7,3.8-1.4,5.7-2c0.9-0.3,5.2-1.1,2.9-0.8&#10;&#9;&#9;&#9;&#9;C1060.3,2297.3,1063.5,2294.9,1063.5,2290.8z" transform="matrix(1, 0, 0, 1, 0, 0)"/><path fill="#333333" d="M338.6,1843.3c-47.2,21.3-75.9,68.2-90.5,116.1c-7.9,26.1-11.3,53.1-11.1,80.3&#10;&#9;&#9;&#9;&#9;c0.1,28.1,2.1,58.7,13.2,84.8c12.7,29.9,39.3,52.6,46.8,84.9c2,8.7,15.4,5,13.4-3.7c-5.9-25.2-22.6-45.3-36.4-66.5&#10;&#9;&#9;&#9;&#9;c-7-10.9-13-22.3-16.2-34.8c-3.6-13.8-5-28.3-6.1-42.5c-3.9-53.5,5.6-108.3,34.7-154c14.5-22.7,34.5-41.5,59.2-52.7&#10;&#9;&#9;&#9;&#9;C353.7,1851.6,346.6,1839.7,338.6,1843.3z" transform="matrix(1, 0, 0, 1, 0, 0)"/><path fill="#333333" d="M264.6,1861.4c-23,18.3-40.1,41.8-49.4,69.7c-9.4,28.4-10.2,59.1-10.3,88.7c0,8.9,13.9,8.9,13.9,0&#10;&#9;&#9;&#9;&#9;c0-27.7,0.9-55.7,8.9-82.4c8.1-26.9,24.9-48.9,46.6-66.2C281.4,1865.7,271.5,1855.9,264.6,1861.4z" transform="matrix(1, 0, 0, 1, 0, 0)"/><path fill="#333333" d="M854.7,2453.3c-9.3,6.3-20.5,8.9-32.5,11c-15.8,2.8-32.2,3.4-48.3,3.2c-36.5-0.5-73.8-5.9-108.1-18.6&#10;&#9;&#9;&#9;&#9;c-14.7-5.4-29.4-12.7-41.1-23.2c-9.9-8.9-16.9-20.1-17.6-32.5c-0.5-8.9-14.4-8.9-13.9,0c1.9,30.9,28.1,50.9,54.1,62.9&#10;&#9;&#9;&#9;&#9;c33.6,15.5,71.3,22.1,108,24.5c20.9,1.4,42,1.1,62.7-1.8c14.8-2,31.1-5.1,43.7-13.6C869.1,2460.3,862.2,2448.3,854.7,2453.3z" transform="matrix(1, 0, 0, 1, 0, 0)"/><path fill="#333333" d="M743.8,2502.4c-13.2,7-29.7,7.6-44.3,6.1c-13.6-1.3-30.4-6.1-38-18.6c-4.6-7.6-16.6-0.7-12,7&#10;&#9;&#9;&#9;&#9;c9.9,16.3,29.4,22.9,47.4,25.1c17.8,2.2,37.7,0.8,53.8-7.7C758.7,2510.2,751.7,2498.2,743.8,2502.4z" transform="matrix(1, 0, 0, 1, 0, 0)"/><path fill="#FEAAAA" d="M438.6,379.6c1-9.7-2.2-19.8-6.6-28.3c-6.2-12.1-15.5-23.4-27.6-29.9c-5-2.7-9.9,2.7-9.6,7.4&#10;&#9;&#9;&#9;&#9;c-0.6,2.1-0.1,4.4,1.1,6.4c5.6,9.4,6.8,21.3,10.1,31.6c3.6,11.3,10.3,20.8,21.2,25.8c3.5,1.6,7.6-0.4,9.1-3.7&#10;&#9;&#9;&#9;&#9;c0.5-1.1,0.8-2.1,1.2-3.2C438.7,384,439.3,381.8,438.6,379.6z" transform="matrix(1, 0, 0, 1, 0, 0)"/><path fill="#FEAAAA" d="M525.6,331.9c-0.6-7.8-12.1-7.5-13.6-0.4c-2.1-0.3-4.3,0.5-5.9,2.7c-8.6,12.1-9.2,26.6-10.9,40.8&#10;&#9;&#9;&#9;&#9;c-0.8,6.2,6.3,9.8,11.1,6.3C521.5,370.8,527,349.5,525.6,331.9z" transform="matrix(1, 0, 0, 1, 0, 0)"/><path fill="#FEAAAA" d="M424.3,455.9c-2.9-0.7-5.8-0.7-8.7-0.5c-0.7-0.4-1.6-0.7-2.4-0.9l-25.4-3.2c-3.7-0.5-7.3,2.3-7.7,6&#10;&#9;&#9;&#9;&#9;l-0.4,3.2c-0.1,0.5-0.1,1,0,1.4c-1.5-0.3-3-0.6-4.3-0.9c-8.7-2.1-10.3,11.7-1.7,13.8c13,3.1,29,2.7,40.1-5.5&#10;&#9;&#9;&#9;&#9;c3-0.3,5.9-0.3,8.9,0.4C431.2,471.6,432.9,457.9,424.3,455.9z" transform="matrix(1, 0, 0, 1, 0, 0)"/><path fill="#FEAAAA" d="M613.9,414.2c0.3-6.4-5.9-9.6-11.1-6.3c-8,5-15.7,10.9-20.9,18.9c-5.4,8.2-7.4,17.9-8,27.5&#10;&#9;&#9;&#9;&#9;c0,0.5,0,1,0.1,1.5c-2.1,5.3,3.4,11.6,9.1,9C602.8,455.6,612.7,435.2,613.9,414.2z" transform="matrix(1, 0, 0, 1, 0, 0)"/><path fill="#333333" d="M890.5,1189.4c-1.4-14.2-6.6-28.4-17.7-37.9c-12.6-10.7-30.7-10.5-45.8-6.5c-8.5,2.2-6.7,16,2,13.7&#10;&#9;&#9;&#9;&#9;c8.5-2.2,17-3.3,25.6-1.4c5.6,1.3,10.5,5.1,14,9.7c8.4,10.9,9.4,27.4,8.3,41.1c-1.2,16.1-5.8,32.1-13.6,46.3&#10;&#9;&#9;&#9;&#9;c-8.3,15.2-22.9,27.1-37.3,36.3c-36.4,23.3-82.6,31.4-125.2,30.1c-40.6-1.2-84.2-11.3-115-39.2c-35.8-32.4-59.4-79-71.6-125.2&#10;&#9;&#9;&#9;&#9;c-12.2-46.2-14.2-97.6,4.9-142.3c5.5-12.9,13.4-25.1,22.7-35.9c15.1,10.4,32.1,16.3,50.9,16.1c16.2-0.2,42.2-5.4,46.9-24&#10;&#9;&#9;&#9;&#9;c2.3-9.1-3.7-17.2-10-23c-8.5-7.8-20-13.6-31.5-14.8c-21.9-2.2-42.3,11.8-57.1,26.4c-0.2,0.2-0.4,0.4-0.6,0.6&#10;&#9;&#9;&#9;&#9;c-25.1-21.9-38.3-54.6-44.8-86.9c-8.2-41.3-6.8-84.4-0.7-125.8c2.8-18.8,6.5-37.6,12.3-55.7c7.1-22.1,17.4-43.2,29.8-62.8&#10;&#9;&#9;&#9;&#9;c26.2-41.5,62.3-78.1,105-102.6c37.2-21.4,80.1-32.8,123-26.5c8.9,1.3,10.6-12.4,1.7-13.8c-99.6-14.8-192.1,56.7-242.3,136.9&#10;&#9;&#9;&#9;&#9;c-12.4,19.9-22.8,41.1-30.1,63.4c-6,18.5-9.9,37.7-12.9,56.9c-6.5,41.8-7.9,85.2-0.6,127c6.5,37.2,21.3,74.6,50,100&#10;&#9;&#9;&#9;&#9;c-10.7,12.4-19.5,26.5-25.8,41.6c-9.1,21.9-13.2,45.8-13.9,69.5c-1.5,50.3,12,101.3,35.7,145.5c11.4,21.3,25.3,41.2,42.3,58.4&#10;&#9;&#9;&#9;&#9;c14.7,14.9,31.5,26.2,51,34.1c40.8,16.6,87.6,19.3,130.8,12.7c41.7-6.3,84.4-22.9,113-54.9&#10;&#9;&#9;&#9;&#9;C884.5,1253.9,893.5,1219.8,890.5,1189.4z M555.5,964.5c14.8-13,34.8-23.9,54.1-14c5,2.6,10,6,13.7,10.2c1.1,1.3,2,2.6,2.6,4.2&#10;&#9;&#9;&#9;&#9;c0.6,1.3,0.4,1.7,0.1,3.2c0.2-1-0.2,0.2-0.4,0.7c-0.1,0-0.9,1.3-0.9,1.3c-0.8,1-1.9,1.9-3.2,2.8c-3.4,2.5-7.7,4-11.7,5.2&#10;&#9;&#9;&#9;&#9;c-19.6,6-40,1.7-56.9-9c-0.5-0.3-0.9-0.6-1.4-0.9C552.8,966.9,554.1,965.7,555.5,964.5z" transform="matrix(1, 0, 0, 1, 0, 0)"/><path fill="#333333" d="M522.4,318.1C522.4,318.1,522.4,318.2,522.4,318.1C522.4,318.1,522.4,318.1,522.4,318.1z" transform="matrix(1, 0, 0, 1, 0, 0)"/><path fill="#333333" d="M623.6,399.1c-0.1-4.5-5.9-7.1-9.6-5.4c-14.9,7-30.1,14.8-41,27.6c-10.5,12.3-12.8,28.4-10.6,43.8&#10;&#9;&#9;&#9;&#9;&#9;c-11.2,6-20.9,15.6-29,24.9c-1.3,1.5-2.7,3.2-4.2,5c-6.9-18.4-16.7-35.6-28.7-51.2c1.3-4.7,1.8-9.8,2.5-13.9&#10;&#9;&#9;&#9;&#9;&#9;c1.8-10.3,3.1-20.6,4.4-31c1-0.8,1.8-1.9,2.2-3.2c0.5-0.2,1-0.5,1.5-0.9c12.6-9.3,21.9-22.3,24.2-38&#10;&#9;&#9;&#9;&#9;&#9;c2.1-14.5-3.8-27.9-12.9-38.6c0,0,0-0.1,0-0.1c0,0,0,0.1-0.1,0.1c0,0,0,0,0,0c0-0.1,0.1-0.1,0.1-0.1c0.5-1.5,0.8-3.1,0.7-4.5&#10;&#9;&#9;&#9;&#9;&#9;c-0.2-5.1-7.4-7.8-11.1-4.5c-1.4,1.3-2.4,2.9-3.1,4.7c-0.4,0.3-0.9,2-1.3,2.8c-1,2-2.1,3.9-3.2,5.9c-1.9,3.4-3.8,6.9-5.6,10.3&#10;&#9;&#9;&#9;&#9;&#9;c-3.5,6.7-6.7,13.5-8.9,20.8c-4.2,13.9-2.8,27.4,4.3,39.4c-0.1,0.3-0.1,0.6-0.2,0.9c-1.2,9.7-2.5,19.4-4,29&#10;&#9;&#9;&#9;&#9;&#9;c-0.4,2.4-0.8,4.7-1.2,7.1c-6.3-7-13.1-13.6-20.3-19.9c-7.3-6.3-15-12.1-23-17.6c12.8-38.3-16.4-82.7-57.7-83.1&#10;&#9;&#9;&#9;&#9;&#9;c-5.6-0.1-10.5,6-6.3,11.1c19.6,24,11.6,87.1,56.1,83.4c17.5,12,33.5,26.2,46.9,42.3c-1.3,4.8,2.8,10.1,7.3,9.3&#10;&#9;&#9;&#9;&#9;&#9;c2.3,3.1,4.5,6.3,6.6,9.5c-0.6-0.1-1.2-0.2-1.9-0.1c-21.2,0.3-42.5-2.4-63-7.9c-1.4-0.4-2.9-0.5-4.2-0.2&#10;&#9;&#9;&#9;&#9;&#9;c-11-10.1-24.7-13.6-40.2-9.8c-13.6,3.3-28.2,12.9-42.5,10.5c-9-1.5-10.2,11.7-1.7,13.8c16.1,3.9,30.9,11.9,47.2,15.2&#10;&#9;&#9;&#9;&#9;&#9;c17.2,3.5,32.7-1.9,44.3-14.6c20.4,4.8,41.1,7.1,62.1,6.8c2.6,0,4.6-2.1,5.5-4.5c6.7,11.8,12.2,24.3,16,37.6&#10;&#9;&#9;&#9;&#9;&#9;c-0.6,3.4-0.3,6.9,1.8,9.9c0.3,0.5,0.7,0.9,1.1,1.3c9.8,45.7-0.1,92.7-21.1,134c-2.2,4.3-4.5,8.4-6.9,12.6&#10;&#9;&#9;&#9;&#9;&#9;c-1.9,3.3,0.6,7.8,3.7,9.1c3.8,1.6,7.2-0.5,9.1-3.7c24.6-42.6,37.7-91.9,31.1-141c-1-7.3-2.4-14.5-4.3-21.5&#10;&#9;&#9;&#9;&#9;&#9;c0.4-0.9,0.9-1.8,1.4-2.7c3.1-5.1,7-9.7,10.9-14.1c7.7-8.4,17.2-17,28-21c1.2-0.5,2.1-1.1,2.8-1.9&#10;&#9;&#9;&#9;&#9;&#9;C613.1,471.1,623.9,428.7,623.6,399.1z M432.5,387.9c-0.3,0.7-0.4,1.4-0.4,2.1c-12.8-1.9-17.8-17.3-21.4-29.3&#10;&#9;&#9;&#9;&#9;&#9;c-3.4-11.2-5.6-23.9-10.3-35.1C425,333.9,441.6,361.9,432.5,387.9z M505.3,351.4c2.6-6.7,6.1-13,9.5-19.2&#10;&#9;&#9;&#9;&#9;&#9;c0.1-0.3,0.3-0.5,0.4-0.8c4.7,7,7.2,15.1,6.3,23.8c-1.2,11.2-8.5,20.5-17.1,27.4C499.9,372.7,501,362.2,505.3,351.4z M390,471.7&#10;&#9;&#9;&#9;&#9;&#9;c-5.6-1.3-10.9-3.2-16.3-5.1c4-1.4,8-3,11.9-4.3c6.3-2.1,12.9-3.8,19.5-3.1c6.3,0.6,11.4,4,15.6,8.3&#10;&#9;&#9;&#9;&#9;&#9;C412,473.9,401.7,474.5,390,471.7z M577,459c-0.5,0-0.9,0-1.4,0.1c-0.8-10.7,1.1-20.7,8.3-29.4c6.6-8.1,16-13.7,25.5-18.4&#10;&#9;&#9;&#9;&#9;&#9;C607.5,431.6,599.2,459.2,577,459z" transform="matrix(1, 0, 0, 1, 0, 0)"/><path fill="#333333" d="M486.1,524.6c-1.4-8.8-15.1-6.9-13.7,2c2.7,16.8,6.9,33.4,8.4,50.4c1.4,15.8,0,33.9-12.2,45.5&#10;&#9;&#9;&#9;&#9;c-6.4,6.1,2,17.1,8.5,11C507.1,604.8,491.7,559.8,486.1,524.6z" transform="matrix(1, 0, 0, 1, 0, 0)"/><path fill="#333333" d="M720,1381.2c-47.6,2.9-95.5-5.1-137.5-28.4c-38.7-21.4-68.9-55.9-89-95c-10.9-21.2-19-43.7-24.7-66.8&#10;&#9;&#9;&#9;&#9;c-2.1-8.6-15.9-6.7-13.7,2c11.5,45.9,31.5,90,63.2,125.5c30.1,33.7,69.6,57.2,113.2,68.6c29.5,7.7,60.1,9.7,90.5,7.8&#10;&#9;&#9;&#9;&#9;C730.9,1394.3,728.9,1380.6,720,1381.2z" transform="matrix(1, 0, 0, 1, 0, 0)"/><path fill="#333333" d="M583.2,1406.7c-7.6-1-16-4.6-24-8.1c-11.2-4.9-22-10.9-32.1-17.6c-9.6-6.4-19-13.7-26.3-22.8&#10;&#9;&#9;&#9;&#9;c-2.4-3.1-5.1-7.4-6-10.6c-1.1-4-0.9-6.5,0.5-9.8c3.6-8.2-9.3-13.5-12.8-5.3c-10.3,23.8,16.1,45.6,33.1,57.4&#10;&#9;&#9;&#9;&#9;c11.4,8,23.7,14.8,36.3,20.6c9.3,4.3,19.3,8.6,29.5,9.9C590.3,1421.6,592.1,1407.9,583.2,1406.7z" transform="matrix(1, 0, 0, 1, 0, 0)"/><path fill="#333333" d="M551.6,895.2c-22.4-25.7-30.2-60.2-29.2-93.6c1-30.8,8.7-63.5,25.4-89.7c4.8-7.5-6.2-16-11-8.4&#10;&#9;&#9;&#9;&#9;c-18.1,28.4-26.9,63-28.2,96.5c-1.4,36.9,7.2,75.5,32,103.8C546.5,910.4,557.5,902,551.6,895.2z" transform="matrix(1, 0, 0, 1, 0, 0)"/><path fill="#333333" d="M842.2,1211.8c-3.2-15-15.9-24.7-28.6-31.7c-7.8-4.3-13.1,8.5-5.3,12.8c9.3,5.1,19.2,12.5,20.7,23.7&#10;&#9;&#9;&#9;&#9;c1.2,9-4.4,17.6-9.8,24.2c-14.2,17.4-36.4,30.1-57.6,36.7c-8.5,2.6-3,15.4,5.4,12.8c24.8-7.6,50.4-23.5,65.9-44.5&#10;&#9;&#9;&#9;&#9;C840,1236.1,844.7,1223.9,842.2,1211.8z" transform="matrix(1, 0, 0, 1, 0, 0)"/><g transform="matrix(1, 0, 0, 1, 0, 0)">
				<path fill="#333333" d="M1183,329.7c-23.3-1.4-46.5-0.1-69.5,3.4c-20.7,3.1-42.2,7-62.3,13.4c-14.9,4.7-29.2,11.4-43.6,17.6&#10;&#9;&#9;&#9;&#9;&#9;c-6.7,2.9-13.3,5.8-20.1,8.3c-1.9,0.7-3.9,1.3-6,1.9c-0.6,0.2-1.2,0.3-1.8,0.4c0.1,0,0.1,0.1,0.3,0.1c-0.1,0-0.2-0.1-0.3-0.1&#10;&#9;&#9;&#9;&#9;&#9;c-0.3,0.1-0.6,0.1-1,0.1c0.7-0.1,0.6-0.2,0.9-0.2c-7.8-3.3-12,9.5-4.2,13.3c3.7,1.8,8.8,0.1,12.4-1c6.5-2.1,12.8-4.7,19.1-7.4&#10;&#9;&#9;&#9;&#9;&#9;c14.9-6.3,29.5-13.2,44.7-18.6c8-2.9,16.4-4.4,24.7-6.3c11.5-2.6,23-5,34.6-7c23.6-4,47.3-5.4,71.2-4&#10;&#9;&#9;&#9;&#9;&#9;C1191,344.1,1191.9,330.3,1183,329.7z"/>
				<path fill="#333333" d="M979.7,374.7c0,0-0.1,0-0.1,0C979.6,374.6,979.7,374.7,979.7,374.7C979.7,374.7,979.7,374.7,979.7,374.7&#10;&#9;&#9;&#9;&#9;&#9;z"/>
			</g><path fill="#333333" d="M1233.1,326.7c-21.5-7.9-40.1-21.6-60.4-32c-7.9-4-15.7,7.4-7.7,11.5c18.5,9.5,35.7,21.5,54.6,29.9&#10;&#9;&#9;&#9;&#9;c-9.2,11.6-17.6,23.9-26.1,36.1c-5.1,7.4,6.4,15.1,11.5,7.7c10.1-14.6,20.1-29.3,31.6-42.9C1239.6,333.6,1237,328.1,1233.1,326.7&#10;&#9;&#9;&#9;&#9;z" transform="matrix(1, 0, 0, 1, 0, 0)"/><path fill="#333333" d="M1270.6,322.5c0.2-2.1-0.7-4.2-3.1-5.7c-18.8-11.2-33-28.3-56.1-30.2c-8.9-0.7-9.8,13.1-0.9,13.8&#10;&#9;&#9;&#9;&#9;c19.8,1.6,33.1,18.2,49.2,27.8c0.7,0.4,1.3,0.7,2,0.8c-6.5,11.1-13,22.3-19.5,33.4c-4.5,7.7,7,15.5,11.5,7.7&#10;&#9;&#9;&#9;&#9;c7.2-12.4,14.4-24.7,21.6-37.1C1278.1,328.4,1274.7,323.6,1270.6,322.5z" transform="matrix(1, 0, 0, 1, 0, 0)"/><path fill="#333333" d="M1312,319c0.1-2.1-0.6-4.3-2.6-5.9c-13.9-11.9-27.6-24.3-42.7-34.8c-7.4-5.1-15.1,6.4-7.7,11.5&#10;&#9;&#9;&#9;&#9;c13.8,9.6,26.3,20.7,39,31.6c-7.9,16.2-17,31.8-24.8,48c-3.9,8.1,9.3,12.5,13.1,4.5c8.1-16.8,17.5-32.9,25.6-49.7&#10;&#9;&#9;&#9;&#9;C1312.8,322.2,1312.7,320.4,1312,319z" transform="matrix(1, 0, 0, 1, 0, 0)"/><path fill="#333333" d="M1011.7,402.2c-21-4.1-41.5-10.5-62.4-15.3c4.1-7.5,7.5-15.3,11.1-23c1.5-3.4,3.1-6.7,5-10&#10;&#9;&#9;&#9;&#9;c0.4-0.6,0.8-1.3,1.2-1.9c5.6,0.3,10.8-6.3,5.9-11.3c-7.9-7.9-15.6,0-19.7,7.4c-6,10.9-10.1,22.7-16.3,33.5c-0.7,1.3-1,2.6-1,3.8&#10;&#9;&#9;&#9;&#9;c-2.1,1.2-3.6,3.6-3.8,5.8c-0.3,4.1,2.8,6.6,6.5,7.4c24.5,4.7,48.2,12.7,72.6,17.4c3.7,0.7,7.1-3.1,7.4-6.5&#10;&#9;&#9;&#9;&#9;C1018.4,405.4,1015.4,402.9,1011.7,402.2z" transform="matrix(1, 0, 0, 1, 0, 0)"/><path fill="#333333" d="M978.3,422.5c-13.7-2.6-26.6-8.4-39.9-12.5c-12.1-3.7-24.6-5.1-37-2.9c7.1-18,16.3-35.7,17.8-55.1&#10;&#9;&#9;&#9;&#9;c0.7-8.9-13.1-9.8-13.8-0.9c-1.6,20.3-12.6,39-19.5,57.8c-1.9,5.2,2.4,8.9,6.7,9c1.1,2.7,3.8,4.6,7.4,3.7&#10;&#9;&#9;&#9;&#9;c26.9-6.7,51.5,10,77.4,14.8c3.7,0.7,7.1-3.1,7.4-6.5C985,425.8,982,423.2,978.3,422.5z" transform="matrix(1, 0, 0, 1, 0, 0)"/><path fill="#333333" d="M938.4,445.6c-25.8-1.8-50.7-9.1-75.2-16.9c6.5-17.4,11.6-35.3,12.9-53.9c0.6-8.9-13.2-9.8-13.8-0.9&#10;&#9;&#9;&#9;&#9;c-1.5,21.3-8.5,41.5-16.5,61.2c-3.1,7.6,7.6,12,12,6.4c25.9,8.2,52.5,16,79.7,17.8C946.4,460.1,947.3,446.2,938.4,445.6z" transform="matrix(1, 0, 0, 1, 0, 0)"/><g transform="matrix(1, 0, 0, 1, 0, 0)">
				<path d="M 1945.200001 1265.699951 A 16.200001 16.200001 0 0 1 1929 1281.899952 A 16.200001 16.200001 0 0 1 1912.799999 1265.699951 A 16.200001 16.200001 0 0 1 1929 1249.49995 A 16.200001 16.200001 0 0 1 1945.200001 1265.699951 Z" fill="#FFFFFF"/>
				<path d="M 1988.700024 1350.199951 A 20.299999 20.299999 0 0 1 1968.400024 1370.49995 A 20.299999 20.299999 0 0 1 1948.100025 1350.199951 A 20.299999 20.299999 0 0 1 1968.400024 1329.899952 A 20.299999 20.299999 0 0 1 1988.700024 1350.199951 Z" fill="#FFFFFF"/>
				<path d="M 2044.900049 1440.099976 A 28.6 28.6 0 0 1 2016.300049 1468.699976 A 28.6 28.6 0 0 1 1987.700048 1440.099976 A 28.6 28.6 0 0 1 2016.300049 1411.499975 A 28.6 28.6 0 0 1 2044.900049 1440.099976 Z" fill="#FFFFFF"/>
			</g><path d="M 1095.100025 1259 A 16.200001 16.200001 0 0 1 1078.900024 1275.200001 A 16.200001 16.200001 0 0 1 1062.700024 1259 A 16.200001 16.200001 0 0 1 1078.900024 1242.799999 A 16.200001 16.200001 0 0 1 1095.100025 1259 Z" fill="#FFFFFF" transform="matrix(1, 0, 0, 1, 0, 0)"/><path d="M 1073.600048 1348.699951 A 20.299999 20.299999 0 0 1 1053.300049 1368.99995 A 20.299999 20.299999 0 0 1 1033.00005 1348.699951 A 20.299999 20.299999 0 0 1 1053.300049 1328.399952 A 20.299999 20.299999 0 0 1 1073.600048 1348.699951 Z" fill="#FFFFFF" transform="matrix(1, 0, 0, 1, 0, 0)"/><path d="M 1048.6 1445 A 28.6 28.6 0 0 1 1020 1473.6 A 28.6 28.6 0 0 1 991.4 1445 A 28.6 28.6 0 0 1 1020 1416.4 A 28.6 28.6 0 0 1 1048.6 1445 Z" fill="#FFFFFF" transform="matrix(1, 0, 0, 1, 0, 0)"/><path fill="#FFFFFF" d="M1865.3,1118c-4.9-27.1-10.3-54.2-16.7-81c-6.2-26-14.8-51.2-21.6-77.1c-12.9-49-20.4-100-41.3-146.5&#10;&#9;&#9;&#9;&#9;c-3.7-8.1-15.6-1.1-12,7c20.4,45.3,27.5,95.5,39.9,143.2c6.7,25.8,15.3,51.1,21.6,77.1c6.4,26.8,11.8,53.9,16.7,81&#10;&#9;&#9;&#9;&#9;C1853.5,1130.4,1866.9,1126.7,1865.3,1118z" transform="matrix(1, 0, 0, 1, 0, 0)"/><path fill="#FFFFFF" d="M2133.1,1867.8c-53.9,42.1-83-56.7-95.1-92.9c-2.8-8.4-16.2-4.8-13.4,3.7c9.7,29.2,19.3,59.7,37.4,85&#10;&#9;&#9;&#9;&#9;&#9;c8.6,12,19.7,23.1,34.3,27.3c16.9,4.8,33.3-3,46.5-13.2C2149.9,1872.2,2140.1,1862.4,2133.1,1867.8z" transform="matrix(1, 0, 0, 1, 0, 0)"/><path fill="#FFFFFF" d="M2134,1843.2c-1.1-4-4.8-5.4-8.5-4.8c-21.3,3.1-42.4-15-44.5-36c-0.9-8.8-14.8-8.9-13.9,0&#10;&#9;&#9;&#9;&#9;&#9;c3.1,30.7,31.3,53.9,62.1,49.3C2132.9,1851.2,2134.9,1846.5,2134,1843.2z" transform="matrix(1, 0, 0, 1, 0, 0)"/><path fill="#FFFFFF" d="M936.6,1725.6c-3.6,52.2-22.3,104.9-50.9,148.6c-12.7,19.4-28.5,38.2-48.1,50.9&#10;&#9;&#9;&#9;&#9;&#9;c-16.6,10.7-36.1,17.2-55.8,18.2c-16,0.9-32.2-2.2-46.2-10.2c-14.8-8.5-25.1-22.7-30.6-38.7c-2.9-8.4-16.3-4.8-13.4,3.7&#10;&#9;&#9;&#9;&#9;&#9;c6.8,20,19.5,37,37.9,47.5c17.1,9.8,37.6,12.9,57,11.2c20.6-1.8,40.6-8.8,58-19.8c20-12.7,36.1-31.3,49.5-50.6&#10;&#9;&#9;&#9;&#9;&#9;c32.5-46.3,52.5-104.4,56.4-160.8C951.1,1716.6,937.2,1716.7,936.6,1725.6z" transform="matrix(1, 0, 0, 1, 0, 0)"/><path fill="#FFFFFF" d="M901.4,1764c-0.2-8.9-14.1-8.9-13.9,0c0.4,17.6-4.6,35.3-11.4,51.4c-7.9,18.6-18.6,36.2-32.1,51.3&#10;&#9;&#9;&#9;&#9;&#9;c-11.7,13.1-26.1,25.1-43.2,29.9c-16.4,4.6-32.4-0.6-45-11.6c-3.7-3.2-7-6.9-10.1-10.6c-5.7-6.9-15.5,3-9.8,9.8&#10;&#9;&#9;&#9;&#9;&#9;c12.6,15.2,29.2,26.6,49.4,28c17.6,1.2,34.8-6.8,48.5-17.2c31.7-23.9,54.3-62.4,63.8-100.6&#10;&#9;&#9;&#9;&#9;&#9;C900.2,1784.4,901.7,1774.1,901.4,1764z" transform="matrix(1, 0, 0, 1, 0, 0)"/><path fill="#FFFFFF" d="M862.8,1792c-2.4-8.6-15.8-4.9-13.4,3.7c9,32.5-37.4,46.1-61.6,44.5c-8.9-0.6-8.9,13.3,0,13.9&#10;&#9;&#9;&#9;&#9;&#9;C821.8,1856.2,874.4,1834.2,862.8,1792z" transform="matrix(1, 0, 0, 1, 0, 0)"/><path fill="#FFFFFF" d="M1573.1,1928.5c-3.4-23.6-14.8-44.6-22.3-67c-3.9-11.6-5.5-23.7-8.2-35.6c-2.9-13.1-6.1-26.1-8.9-39.2&#10;&#9;&#9;&#9;&#9;&#9;c-5-23.1-10.8-45.9-15.9-69c-5.1-23.2-10.4-46.6-19.4-68.7c-1.4-3.5-4.6-5.9-8.5-4.8c-3.3,0.9-6.3,5-4.8,8.5&#10;&#9;&#9;&#9;&#9;&#9;c8.8,21.5,13.9,44.3,19,66.9c5.1,23,11,45.7,15.8,68.7c2.8,13.1,6,26.2,8.9,39.3c2.7,12,4.4,24.1,8.1,35.8&#10;&#9;&#9;&#9;&#9;&#9;c7.2,23.1,19.4,44.4,22.9,68.7c0.5,3.7,5.2,5.7,8.5,4.8C1572.2,1935.9,1573.6,1932.2,1573.1,1928.5z" transform="matrix(1, 0, 0, 1, 0, 0)"/><path fill="#FFFFFF" d="M1521.2,1871.4c-17-22.2-23.1-51.5-28.6-78.3c-6-28.8-9.7-58.6-19.7-86.4c-3-8.3-16.4-4.8-13.4,3.7&#10;&#9;&#9;&#9;&#9;&#9;c10,27.8,13.8,57.6,19.7,86.4c5.7,27.9,12.4,58.6,30,81.6c2.3,3,5.9,4.6,9.5,2.5C1521.6,1879.1,1523.5,1874.4,1521.2,1871.4z" transform="matrix(1, 0, 0, 1, 0, 0)"/><path fill="#FFFFFF" d="M1369.9,1339.8c-6.9,42.2-29.8,80.2-32.2,123.4c-0.5,8.9,13.4,8.9,13.9,0c2.4-41.8,25-78.8,31.7-119.7&#10;&#9;&#9;&#9;&#9;&#9;C1384.7,1334.7,1371.3,1331,1369.9,1339.8z" transform="matrix(1, 0, 0, 1, 0, 0)"/><path fill="#FFFFFF" d="M1396,1384.6c-1.7-8.8-15.1-5-13.4,3.7c3.5,17.8-8.8,35-12.8,51.8c-2.1,8.7,11.3,12.4,13.4,3.7&#10;&#9;&#9;&#9;&#9;&#9;C1388,1423.7,1400.2,1406,1396,1384.6z" transform="matrix(1, 0, 0, 1, 0, 0)"/><path fill="#FFFFFF" d="M1207.5,1836.5c-1.2,52.1-21.8,102.3-49.3,145.9c-28,44.6-65.6,84.8-110.5,112.6&#10;&#9;&#9;&#9;&#9;&#9;c-10,6.2-20.5,11.8-31.4,16.3c-3.5,1.5-5.9,4.5-4.8,8.5c0.9,3.3,5,6.3,8.5,4.8c47.5-19.8,87.7-54.5,120.2-94&#10;&#9;&#9;&#9;&#9;&#9;c34.1-41.4,61.1-90.1,74.1-142.3c4.2-17,6.6-34.5,7-51.9C1221.6,1827.5,1207.7,1827.6,1207.5,1836.5z" transform="matrix(1, 0, 0, 1, 0, 0)"/><path fill="#FFFFFF" d="M1219.1,1929c-13,26.1-21.1,54.2-33.2,80.7c-12.7,27.9-31.1,51-58.1,66.1c-7.8,4.4-0.8,16.3,7,12&#10;&#9;&#9;&#9;&#9;&#9;c27.7-15.5,47.6-38.9,61.3-67.2c13.3-27.5,21.5-57.2,35-84.6C1235,1928,1223.1,1921,1219.1,1929z" transform="matrix(1, 0, 0, 1, 0, 0)"/><g transform="matrix(1, 0, 0, 1, 0, 0)">
				<path fill="#FEAAAA" d="M2300.2,1200.6c-8.1-9.4-20.2-11-31.3-6.2c-7,3-13,8.1-18.4,13.4c-6,5.9-8.3,14.3-9,22.5&#10;&#9;&#9;&#9;&#9;&#9;c-1.6,19.2,6,39.2,11.9,57.1c3.3,9.9,6.7,19.8,9.5,29.9c2.2,7.7,4.2,15.7,3.8,23.8c-0.4,9.7-4.6,21.7-8.9,31.1&#10;&#9;&#9;&#9;&#9;&#9;c-5.3,11.7-12.5,22.4-21,32c-15.1,17.1-35,30.2-57.4,35c-0.4,0-0.8,0-1.2,0c-1.4,0-2.6,0.3-3.5,0.9c-0.5,0.1-0.9,0.1-1.4,0.2&#10;&#9;&#9;&#9;&#9;&#9;c-3.8,0.5-5.8,5.2-4.9,8.5c1.1,4,4.8,5.4,8.5,4.9c1.2-0.2,2.4-0.4,3.6-0.6c50.1-0.7,91.3-44.5,115.7-84.3&#10;&#9;&#9;&#9;&#9;&#9;c8.6-14,16.7-29.4,20-45.4c2.7-13.2,3.4-26.9,3.3-40.3c0-15.6-1.3-31.4-4.4-46.8C2312.8,1223.7,2308.7,1210.6,2300.2,1200.6z"/>
				<path fill="#333333" d="M2300.2,1200.6c-8.1-9.4-20.2-11-31.3-6.2c-7,3-13,8.1-18.4,13.4c-6,5.9-8.3,14.3-9,22.5&#10;&#9;&#9;&#9;&#9;&#9;c-1.6,19.2,6,39.2,11.9,57.1c3.3,9.9,6.7,19.8,9.5,29.9c2.2,7.7,4.2,15.7,3.8,23.8c-0.4,9.7-4.6,21.7-8.9,31.1&#10;&#9;&#9;&#9;&#9;&#9;c-5.3,11.7-12.5,22.4-21,32c-15.1,17.1-35,30.2-57.4,35c-0.4,0-0.8,0-1.2,0c-1.4,0-2.6,0.3-3.5,0.9c-0.5,0.1-0.9,0.1-1.4,0.2&#10;&#9;&#9;&#9;&#9;&#9;c-3.8,0.5-5.8,5.2-4.9,8.5c1.1,4,4.8,5.4,8.5,4.9c1.2-0.2,2.4-0.4,3.6-0.6c50.1-0.7,91.3-44.5,115.7-84.3&#10;&#9;&#9;&#9;&#9;&#9;c8.6-14,16.7-29.4,20-45.4c2.7-13.2,3.4-26.9,3.3-40.3c0-15.6-1.3-31.4-4.4-46.8C2312.8,1223.7,2308.7,1210.6,2300.2,1200.6z&#10;&#9;&#9;&#9;&#9;&#9; M2303.9,1251.5c2,15.1,2.4,30.5,1.6,45.7c-0.5,10.4-1.1,18.8-4,28.5c-0.2,0.8-0.5,1.5-0.7,2.2c0,0.1-0.1,0.2-0.1,0.3&#10;&#9;&#9;&#9;&#9;&#9;c0,0.1-0.1,0.2-0.1,0.3c-2,4.3-3.4,8.9-5.4,13.2c-4.4,9.7-9.8,18.9-15.7,27.8c-4.4,6.7-9.4,13.5-14.9,20.1&#10;&#9;&#9;&#9;&#9;&#9;c6.8-12,11.8-24.8,14.5-37.8c3.9-18.8-2-36.8-7.8-54.6c-6.2-19.1-14.3-38.7-15.9-58.9c-0.5-6.5-0.2-14.5,3.6-19.5&#10;&#9;&#9;&#9;&#9;&#9;c3.7-4.8,11.6-10.5,15.8-12.2c1.2-0.5,2.4-0.8,3.7-1.1c0.2,0,0.9-0.2,1.1-0.2c0.3,0,0.7,0,1-0.1c0.5,0,1.1,0,1.6,0&#10;&#9;&#9;&#9;&#9;&#9;c0.1,0,0.1,0,0.1,0c0.1,0,0.1,0,0.2,0c0.5,0.1,1,0.2,1.5,0.4c0.3,0.1,0.4,0.1,0.6,0.2c0,0,0.1,0.1,0.2,0.1&#10;&#9;&#9;&#9;&#9;&#9;c3.8,1.8,5.9,4.4,8.4,8.5C2299.5,1224.9,2302.3,1238.9,2303.9,1251.5z"/>
			</g><path fill="#FEAAAA" d="M2441.2,1503.5c-10.6-11.5-22.6-21.8-35.2-31c-10.9-7.9-22.3-15.5-34.6-21c-14.8-6.7-32.1-9.2-48.5-10.5&#10;&#9;&#9;&#9;&#9;&#9;c-46.5-3.7-106.2,3.9-136.2,44c-0.9,0.8-1.8,1.7-2.6,2.6c-2.6,2.7-3.6,6.5-1.1,9.7c2.2,2.7,7.1,3.8,9.7,1c0.3-0.3,0.7-0.7,1-1&#10;&#9;&#9;&#9;&#9;&#9;c1-0.5,2-1.2,2.8-2.4c0.2-0.3,0.5-0.6,0.7-1c17-15.3,39.3-23.6,62.1-25.8c12.7-1.2,25.7-0.7,38.2,1.8&#10;&#9;&#9;&#9;&#9;&#9;c10.2,2.1,22.3,5.7,30.4,11.1c6.7,4.5,12,10.8,17,17.1c6.5,8.2,12.5,16.8,18.6,25.3c11,15.3,22.8,33.2,39.2,43.2&#10;&#9;&#9;&#9;&#9;&#9;c7,4.3,15.1,7.4,23.5,6c7.4-1.2,15.1-3.1,21.7-7c10.4-6.1,16.2-16.8,13.4-28.9C2458.2,1524.1,2450,1513,2441.2,1503.5z" transform="matrix(1, 0, 0, 1, 0, 0)"/><path fill="#333333" d="M2441.2,1503.5c-10.6-11.5-22.6-21.8-35.2-31c-10.9-7.9-22.3-15.5-34.6-21c-14.8-6.7-32.1-9.2-48.5-10.5&#10;&#9;&#9;&#9;&#9;&#9;c-46.5-3.7-106.2,3.9-136.2,44c-0.9,0.8-1.8,1.7-2.6,2.6c-2.6,2.7-3.6,6.5-1.1,9.7c2.2,2.7,7.1,3.8,9.7,1c0.3-0.3,0.7-0.7,1-1&#10;&#9;&#9;&#9;&#9;&#9;c1-0.5,2-1.2,2.8-2.4c0.2-0.3,0.5-0.6,0.7-1c17-15.3,39.3-23.6,62.1-25.8c12.7-1.2,25.7-0.7,38.2,1.8&#10;&#9;&#9;&#9;&#9;&#9;c10.2,2.1,22.3,5.7,30.4,11.1c6.7,4.5,12,10.8,17,17.1c6.5,8.2,12.5,16.8,18.6,25.3c11,15.3,22.8,33.2,39.2,43.2&#10;&#9;&#9;&#9;&#9;&#9;c7,4.3,15.1,7.4,23.5,6c7.4-1.2,15.1-3.1,21.7-7c10.4-6.1,16.2-16.8,13.4-28.9C2458.2,1524.1,2450,1513,2441.2,1503.5z&#10;&#9;&#9;&#9;&#9;&#9; M2445.9,1534.1c1.9,4.4,2.8,7.6,2,11.8c0,0.1,0,0.2,0,0.3c0,0.1-0.1,0.3-0.2,0.5c-0.2,0.5-0.4,1-0.6,1.5c0,0.1-0.1,0.1-0.1,0.2&#10;&#9;&#9;&#9;&#9;&#9;c0,0,0,0.1-0.1,0.1c-0.3,0.5-0.6,0.9-0.9,1.3c-0.2,0.3-0.4,0.5-0.6,0.8c-0.2,0.1-0.7,0.7-0.9,0.8c-1,0.8-2,1.6-3.1,2.3&#10;&#9;&#9;&#9;&#9;&#9;c-3.8,2.4-13,5.4-19.1,5.6c-6.3,0.2-13-4.3-17.9-8.5c-15.4-13.1-26.5-31.2-38.3-47.5c-11-15.1-22.1-30.6-39.5-38.4&#10;&#9;&#9;&#9;&#9;&#9;c-12.1-5.4-25.4-8.9-39.1-10.5c8.6-0.5,17.1-0.6,25-0.2c10.6,0.5,21.3,1.6,31.7,3.7c4.7,0.9,9.2,2.5,13.9,3.4&#10;&#9;&#9;&#9;&#9;&#9;c0.1,0,0.2,0,0.3,0.1c0.1,0,0.2,0.1,0.3,0.1c0.7,0.2,1.5,0.5,2.2,0.7c9.6,3.4,16.7,7.9,25.4,13.6c12.8,8.4,24.9,17.7,36,28.2&#10;&#9;&#9;&#9;&#9;&#9;C2431.5,1512.7,2441.2,1523.2,2445.9,1534.1z" transform="matrix(1, 0, 0, 1, 0, 0)"/><path fill="#333333" d="M2349.2,1399.7c-0.1-5.5-2.6-10.9-7.3-14.3c-4.8-3.5-10.2-3.8-14.9-1.9c-4.8,0.9-8.6,4.6-11.3,8.7&#10;&#9;&#9;&#9;&#9;c-3.6,5.5-3.7,11.6-1,17.4c2.3,4.9,7.7,8.4,12.8,9.7c6.4,1.6,12.4-0.7,17-5.2C2348.9,1409.8,2350.2,1404.6,2349.2,1399.7z" transform="matrix(1, 0, 0, 1, 0, 0)"/><path fill="#333333" d="M2414.5,1351.8c-0.1-5.5-2.6-10.9-7.3-14.3c-4.8-3.5-10.2-3.8-14.9-1.9c-4.8,0.9-8.6,4.6-11.3,8.7&#10;&#9;&#9;&#9;&#9;c-3.6,5.5-3.7,11.6-1,17.4c2.3,4.9,7.7,8.4,12.8,9.7c6.4,1.6,12.4-0.7,17-5.2C2414.2,1361.9,2415.5,1356.6,2414.5,1351.8z" transform="matrix(1, 0, 0, 1, 0, 0)"/><path fill="#333333" d="M2362.5,1212.1c-4-8-15.9-1-12,7c7.6,15.3,13.7,31.7,13.9,49c0.1,18-8.1,34.5-19.2,48.2&#10;&#9;&#9;&#9;&#9;c-5.6,6.9,4.2,16.8,9.8,9.8c13-16.1,22-34.1,23.2-55C2379.3,1250.5,2371.5,1230.3,2362.5,1212.1z" transform="matrix(1, 0, 0, 1, 0, 0)"/><path fill="#333333" d="M2396.6,1220.3c-6.7-5.8-16.6,3.9-9.8,9.8c17.6,15.3,12.2,40.7,2.1,58.8c-4.4,7.8,7.6,14.8,12,7&#10;&#9;&#9;&#9;&#9;C2414,1272.6,2419.1,1239.8,2396.6,1220.3z" transform="matrix(1, 0, 0, 1, 0, 0)"/><path fill="#333333" d="M2396.3,1423.3c-8.8,1.5-5.1,14.8,3.7,13.4c31-5.2,64.4,22.8,64.8,54.1c0.1,8.9,14,8.9,13.9,0&#10;&#9;&#9;&#9;&#9;C2478.1,1449.8,2436.2,1416.6,2396.3,1423.3z" transform="matrix(1, 0, 0, 1, 0, 0)"/><path fill="#333333" d="M2510.4,1456.9c-5-17.8-14.1-35-28.8-46.7c-15.4-12.2-34.2-15.6-53.3-12.6c-8.8,1.4-5.1,14.7,3.7,13.4&#10;&#9;&#9;&#9;&#9;c14.9-2.3,30.1,0.9,41.8,10.6c12,9.9,19.1,24.2,23.2,38.9C2499.4,1469.2,2512.8,1465.6,2510.4,1456.9z" transform="matrix(1, 0, 0, 1, 0, 0)"/><g transform="matrix(1, 0, 0, 1, 0, 0)">
				<path fill="#FEAAAA" d="M481,1492.7c6.6,14.2,14.9,27.6,24.2,40.3c7.9,10.8,16.6,21.5,26.6,30.5c12.1,10.9,27.8,18.5,43,24.7&#10;&#9;&#9;&#9;&#9;&#9;c43.2,17.6,102.4,28.5,143.2-0.6c1.1-0.5,2.2-1.1,3.2-1.6c3.3-1.8,5.4-5.1,4-9c-1.2-3.2-5.6-5.8-9-4c-0.4,0.2-0.8,0.4-1.3,0.7&#10;&#9;&#9;&#9;&#9;&#9;c-1.1,0.1-2.2,0.6-3.4,1.4c-0.3,0.2-0.7,0.5-1,0.7c-20.9,9.4-44.6,10.6-67,5.8c-12.5-2.7-24.7-7.1-35.9-13.3&#10;&#9;&#9;&#9;&#9;&#9;c-9.1-5.1-19.6-12.2-25.6-19.8c-5-6.3-8.2-13.9-11-21.5c-3.7-9.8-6.8-19.8-10-29.7c-5.8-17.9-11.6-38.6-24.2-53.1&#10;&#9;&#9;&#9;&#9;&#9;c-5.4-6.2-12.2-11.6-20.6-12.8c-7.5-1.1-15.3-1.6-22.8,0.1c-11.7,2.7-20.6,11.1-21.5,23.5C471,1468,475.5,1481,481,1492.7z"/>
				<path fill="#333333" d="M481,1492.7c6.6,14.2,14.9,27.6,24.2,40.3c7.9,10.8,16.6,21.5,26.6,30.5c12.1,10.9,27.8,18.5,43,24.7&#10;&#9;&#9;&#9;&#9;&#9;c43.2,17.6,102.4,28.5,143.2-0.6c1.1-0.5,2.2-1.1,3.2-1.6c3.3-1.8,5.4-5.1,4-9c-1.2-3.2-5.6-5.8-9-4c-0.4,0.2-0.8,0.4-1.3,0.7&#10;&#9;&#9;&#9;&#9;&#9;c-1.1,0.1-2.2,0.6-3.4,1.4c-0.3,0.2-0.7,0.5-1,0.7c-20.9,9.4-44.6,10.6-67,5.8c-12.5-2.7-24.7-7.1-35.9-13.3&#10;&#9;&#9;&#9;&#9;&#9;c-9.1-5.1-19.6-12.2-25.6-19.8c-5-6.3-8.2-13.9-11-21.5c-3.7-9.8-6.8-19.8-10-29.7c-5.8-17.9-11.6-38.6-24.2-53.1&#10;&#9;&#9;&#9;&#9;&#9;c-5.4-6.2-12.2-11.6-20.6-12.8c-7.5-1.1-15.3-1.6-22.8,0.1c-11.7,2.7-20.6,11.1-21.5,23.5C471,1468,475.5,1481,481,1492.7z&#10;&#9;&#9;&#9;&#9;&#9; M485.8,1462.1c-0.5-4.8-0.4-8.1,1.7-11.8c0.1-0.1,0.1-0.2,0.1-0.2c0.1-0.1,0.2-0.2,0.4-0.5c0.3-0.4,0.6-0.8,1-1.2&#10;&#9;&#9;&#9;&#9;&#9;c0-0.1,0.1-0.1,0.1-0.1c0,0,0.1-0.1,0.1-0.1c0.4-0.3,0.8-0.7,1.3-1c0.3-0.2,0.6-0.4,0.9-0.6c0.2-0.1,0.9-0.4,1.1-0.5&#10;&#9;&#9;&#9;&#9;&#9;c1.2-0.5,2.4-0.9,3.6-1.2c4.3-1.1,14.1-1.2,19.9,0.5c6,1.7,11,8,14.5,13.5c10.7,17.2,15.8,37.8,22.1,56.8&#10;&#9;&#9;&#9;&#9;&#9;c5.8,17.7,11.8,35.8,26,48.6c9.9,8.9,21.5,16.2,34.1,21.8c-8.4-2.1-16.4-4.6-23.9-7.4c-10-3.7-19.8-7.9-29.1-13.1&#10;&#9;&#9;&#9;&#9;&#9;c-4.2-2.3-8-5.1-12.2-7.4c-0.1-0.1-0.2-0.1-0.3-0.2c-0.1-0.1-0.2-0.1-0.3-0.2c-0.6-0.4-1.3-0.9-1.9-1.4&#10;&#9;&#9;&#9;&#9;&#9;c-8.1-6.2-13.5-12.6-20.1-20.6c-9.6-11.8-18.4-24.5-25.8-37.8C493,1486.9,487,1474,485.8,1462.1z"/>
			</g><path fill="#FEAAAA" d="M541.4,1821.2c4.9,11.4,16,16.6,27.9,15.4c7.6-0.8,14.8-3.8,21.6-7.2c7.6-3.8,12.3-11.1,15.4-18.7&#10;&#9;&#9;&#9;&#9;&#9;c7.3-17.8,6.2-39.2,6-58c-0.1-10.4-0.4-20.9,0-31.3c0.3-8,0.8-16.2,3.6-23.8c3.3-9.1,10.9-19.3,17.9-27&#10;&#9;&#9;&#9;&#9;&#9;c8.6-9.5,18.7-17.6,29.7-24.1c19.6-11.7,42.5-18.2,65.3-16c0.4,0.1,0.8,0.2,1.2,0.3c1.3,0.4,2.5,0.5,3.6,0.3&#10;&#9;&#9;&#9;&#9;&#9;c0.5,0.1,0.9,0.1,1.4,0.2c3.7,0.6,7.1-3.2,7.2-6.6c0.2-4.1-2.9-6.6-6.6-7.2c-1.2-0.2-2.4-0.4-3.6-0.5&#10;&#9;&#9;&#9;&#9;&#9;c-48-14.5-100.5,14.7-135.8,45.2c-12.4,10.8-24.9,23-32.8,37.2c-6.6,11.7-11.3,24.6-15.4,37.4c-4.7,14.9-8.3,30.3-10,45.9&#10;&#9;&#9;&#9;&#9;&#9;C536.4,1795.3,536.2,1809.1,541.4,1821.2z" transform="matrix(1, 0, 0, 1, 0, 0)"/><path fill="#333333" d="M541.4,1821.2c4.9,11.4,16,16.6,27.9,15.4c7.6-0.8,14.8-3.8,21.6-7.2c7.6-3.8,12.3-11.1,15.4-18.7&#10;&#9;&#9;&#9;&#9;&#9;c7.3-17.8,6.2-39.2,6-58c-0.1-10.4-0.4-20.9,0-31.3c0.3-8,0.8-16.2,3.6-23.8c3.3-9.1,10.9-19.3,17.9-27&#10;&#9;&#9;&#9;&#9;&#9;c8.6-9.5,18.7-17.6,29.7-24.1c19.6-11.7,42.5-18.2,65.3-16c0.4,0.1,0.8,0.2,1.2,0.3c1.3,0.4,2.5,0.5,3.6,0.3&#10;&#9;&#9;&#9;&#9;&#9;c0.5,0.1,0.9,0.1,1.4,0.2c3.7,0.6,7.1-3.2,7.2-6.6c0.2-4.1-2.9-6.6-6.6-7.2c-1.2-0.2-2.4-0.4-3.6-0.5&#10;&#9;&#9;&#9;&#9;&#9;c-48-14.5-100.5,14.7-135.8,45.2c-12.4,10.8-24.9,23-32.8,37.2c-6.6,11.7-11.3,24.6-15.4,37.4c-4.7,14.9-8.3,30.3-10,45.9&#10;&#9;&#9;&#9;&#9;&#9;C536.4,1795.3,536.2,1809.1,541.4,1821.2z M553.3,1771.6c2.7-15,7-29.8,12.3-44.1c3.6-9.7,6.7-17.5,12.4-26&#10;&#9;&#9;&#9;&#9;&#9;c0.4-0.6,0.9-1.3,1.4-1.9c0.1-0.1,0.2-0.2,0.2-0.3c0.1-0.1,0.1-0.1,0.2-0.2c3.2-3.5,6-7.4,9.2-10.9c7.2-7.9,15.1-15,23.4-21.7&#10;&#9;&#9;&#9;&#9;&#9;c6.2-5,13-10,20.3-14.7c-10.1,9.3-18.8,20-25.3,31.6c-9.4,16.7-9.2,35.7-9.1,54.4c0.2,20.1,1.9,41.2-2.7,60.9&#10;&#9;&#9;&#9;&#9;&#9;c-1.5,6.3-4.2,13.9-9.4,17.4c-5,3.4-14.3,6.5-18.7,6.8c-1.3,0.1-2.6,0.1-3.8,0c-0.2,0-1-0.1-1.2-0.1c-0.3-0.1-0.7-0.2-1-0.3&#10;&#9;&#9;&#9;&#9;&#9;c-0.5-0.1-1-0.3-1.5-0.5c-0.1,0-0.1,0-0.1,0c0,0-0.1-0.1-0.2-0.1c-0.5-0.2-0.9-0.5-1.3-0.8c-0.2-0.2-0.4-0.2-0.5-0.3&#10;&#9;&#9;&#9;&#9;&#9;c0,0-0.1-0.1-0.2-0.2c-3.1-2.9-4.3-6-5.4-10.7C549.4,1798.3,551,1784.1,553.3,1771.6z" transform="matrix(1, 0, 0, 1, 0, 0)"/><path fill="#333333" d="M550.5,1644.3c-3.2-4.4-4.4-10.4-2.6-15.8c1.8-5.7,6-9.1,10.9-10.4c4.4-2.2,9.6-1.4,14.2,0.3&#10;&#9;&#9;&#9;&#9;c6.1,2.3,9.9,7.2,11.1,13.5c1.1,5.3-1.3,11.3-4.6,15.4c-4.2,5.1-10.4,6.8-16.8,5.9C556.7,1652.3,552.5,1648.9,550.5,1644.3z" transform="matrix(1, 0, 0, 1, 0, 0)"/><path fill="#333333" d="M469.4,1644.4c-3.2-4.4-4.4-10.4-2.6-15.9c1.8-5.7,6-9.1,10.9-10.4c4.4-2.2,9.6-1.4,14.2,0.3&#10;&#9;&#9;&#9;&#9;c6.1,2.3,9.9,7.2,11.1,13.5c1.1,5.3-1.3,11.3-4.6,15.4c-4.2,5.1-10.4,6.8-16.8,5.9C475.7,1652.3,471.5,1648.9,469.4,1644.4z" transform="matrix(1, 0, 0, 1, 0, 0)"/><path fill="#333333" d="M428.6,1501c-1.5-8.8,12.2-10.2,13.8-1.5c3,16.8,7.7,33.7,17.8,47.7c10.5,14.6,27,23,44,27.5&#10;&#9;&#9;&#9;&#9;c8.6,2.3,6.6,16-2.1,13.7c-20-5.3-37.9-14.4-51.2-30.6C437.8,1541.9,432.1,1521,428.6,1501z" transform="matrix(1, 0, 0, 1, 0, 0)"/><path fill="#333333" d="M406,1527.9c2-8.7,15.7-6.6,13.7,2.1c-5.1,22.8,14.3,40.1,33.1,48.6c8.1,3.7,2.6,16.4-5.5,12.7&#10;&#9;&#9;&#9;&#9;C423,1580.2,399.4,1556.9,406,1527.9z" transform="matrix(1, 0, 0, 1, 0, 0)"/><path fill="#333333" d="M526.5,1691.2c8-4,12.9,9,4.9,13c-28.1,14.2-38.4,56.5-20.2,82c5.2,7.3-6,15.5-11.2,8.2&#10;&#9;&#9;&#9;&#9;C476.3,1761,490.4,1709.5,526.5,1691.2z" transform="matrix(1, 0, 0, 1, 0, 0)"/><path fill="#333333" d="M454.4,1785.9c-6.5-17.3-9.4-36.6-4.4-54.6c5.2-18.9,18.3-32.8,35.5-41.7c7.9-4.1,12.8,8.9,4.9,13&#10;&#9;&#9;&#9;&#9;c-13.4,7-23.7,18.6-27.4,33.4c-3.8,15-1,30.8,4.3,45.1C470.6,1789.3,457.6,1794.3,454.4,1785.9z" transform="matrix(1, 0, 0, 1, 0, 0)"/><g transform="matrix(1, 0, 0, 1, 0, 0)">
				<g>
					<path fill="#D7E0DF" d="M2200.1,1964.8c-1.9-10.3-6.3-19.5-12.5-27.7c2.4-2.5,3.3-6.4,0-9.5c-7-6.7-16.4-8.7-25.7-9.9&#10;&#9;&#9;&#9;&#9;&#9;&#9;c-11.6-1.4-23.5-0.6-35.1,0.5c-22.6,2-45.2,7.3-67.9,7.4c-5.3,0-7.4,4.8-6.5,8.8c-1,0.6-2.1,1.1-3.2,1.7&#10;&#9;&#9;&#9;&#9;&#9;&#9;c-4.5-16.1-6.7-33.1-10.7-48.9c-8.2-32.3-18.9-64.1-29.4-95.8c-10.8-32.5-17.1-66.6-24.2-100c-6.5-30.5-12.9-60.9-20.6-91.1&#10;&#9;&#9;&#9;&#9;&#9;&#9;h62.5c0.8,2.5,2.9,4.6,6.4,4.3c36.9-2.2,73.9,2.1,110.9,2.1c2.4,6.2,13.4,5.3,13.4-2.7c0.1-28.9,3.8-58.9-5.1-86.8&#10;&#9;&#9;&#9;&#9;&#9;&#9;c1.5-3.5,0.5-8.2-4.3-9.4c-15.3-4.1-31-5.7-46.8-5.8c-10.7-0.1-21.3,1-32,1.4c-7,0.3-14,0.6-21,0.9c-5.1,0.3-11.3-0.2-16.1,1.7&#10;&#9;&#9;&#9;&#9;&#9;&#9;h-92c-5.4-13.9-8.9-28.8-12.4-42.8c-3.1-12.7-6-25.6-9.6-38.2c-3.8-13.7-9-27-13.4-40.5c-21.5-65.1-40.3-131-57.6-197.3&#10;&#9;&#9;&#9;&#9;&#9;&#9;c-34.7-132.7-63.2-266.9-94-400.5c-7.6-32.8-14.7-65.8-23.3-98.4c-6.1-23.3-14.1-46.2-24.2-68.1&#10;&#9;&#9;&#9;&#9;&#9;&#9;c-18.1-39.1-44.6-73.4-78.8-99.7c-37.1-28.4-82-45.3-127.1-55.9c-32-7.5-65.3-10.7-98.1-12.1c-16.5-0.7-33.1-0.8-49.7-0.9&#10;&#9;&#9;&#9;&#9;&#9;&#9;c-9.8-0.1-19.7-1.7-29.5-2.8c-9.5-1-19.2-1.9-28.8-1.1c-5.3,0.5-11.1,1.6-15.3,4.9c-11.6-0.4-23.5-0.7-35.8-0.7&#10;&#9;&#9;&#9;&#9;&#9;&#9;c-43.6,0-86.9,4.3-129.8,12.8c-43,8.6-84.2,21.2-123.6,38c-39.4,16.8-76.1,37.5-110.1,62.1c-34,24.6-63.5,53.1-88.5,85.6&#10;&#9;&#9;&#9;&#9;&#9;&#9;c-25,32.4-44.6,68.5-58.7,108.1c-14.1,39.6-21.2,82.9-21.2,130c0,31.4,4.5,61.4,13.5,89.9c9,28.5,22.1,53.5,39.4,74.9&#10;&#9;&#9;&#9;&#9;&#9;&#9;c17.3,21.4,38.3,38.4,63,50.8c24.7,12.5,52.4,18.7,83.2,18.7c2.6,0,5.2-0.1,7.8-0.2c2.5,2.4,6.3,3.1,9.3-0.2&#10;&#9;&#9;&#9;&#9;&#9;&#9;c0.2-0.2,0.3-0.4,0.5-0.5c6.6-0.7,13.1-1.7,19.7-3.1c3.5,0.6,6.9,1.5,9.7,2.1c12.9,2.8,25.8,4.7,39,5.6&#10;&#9;&#9;&#9;&#9;&#9;&#9;c29.3,2,59.4-1,87.4-10.1c47-15.4,87.6-50.5,101.6-98.8c9.6-33,8.1-70.5,2.3-104.1c-5.1-29.7-19.1-65.5-54-67.5&#10;&#9;&#9;&#9;&#9;&#9;&#9;c-2.6-0.1-4.4,0.9-5.5,2.4c-39.1,0.8-78.2-3.3-117.2-1.2c-2.6-0.4-5-0.7-7.4-0.7c-9.6,0-18.3,3-26,9.1&#10;&#9;&#9;&#9;&#9;&#9;&#9;c-6.3,5-12.7,10.2-19.3,15.6c-0.6-1.5-1.3-3.1-2-4.6c-6.1-14.1-11.3-27.4-13.6-42.7c-4.4-29.1,3.1-58.8,13-86&#10;&#9;&#9;&#9;&#9;&#9;&#9;c8.6-23.8,22.4-45.3,39.1-64.2c19.1-21.6,40.6-41.6,63.5-59c37.8-28.6,80.9-50.5,127.1-61.2c14,3.4,26.3,8.3,36.8,14.8&#10;&#9;&#9;&#9;&#9;&#9;&#9;c22.1,13.6,39.6,40.3,52.4,80.3c-9.6,48.5-21.5,105.4-35.6,170.7c-14.1,65.3-30.1,135.3-48.1,210.3&#10;&#9;&#9;&#9;&#9;&#9;&#9;c-18,74.9-37.1,153-57.3,234.3s-40.9,162-62,241.8h-252v94.2h227c-24.4,83.5-49.4,154.8-75,214&#10;&#9;&#9;&#9;&#9;&#9;&#9;c-25.7,59.2-52.4,107.9-80.3,146.1c-27.9,38.2-56.9,66.2-87,84c-7.8,4.6-15.7,8.6-23.7,12c-16-4.2-31.1-10.9-43.9-22.2&#10;&#9;&#9;&#9;&#9;&#9;&#9;c-14.9-13.1-25-29.7-35.7-46.1c-14.6-22.2-27.9-45.3-39.3-69.4c1.9-4.1-0.1-10.1-6-10.1c-45.1,0.2-89.2,12.6-134.4,10.7&#10;&#9;&#9;&#9;&#9;&#9;&#9;c-2.8-0.1-4.7,1.2-5.8,3c-5.9,1.7-11.4,4.4-16.6,8.2c-9.3,6.8-17.1,15.7-23.5,26.8c-6.4,11-11.4,23.2-14.9,36.4&#10;&#9;&#9;&#9;&#9;&#9;&#9;c-3.5,13.2-5.3,26.2-5.3,39c0,17.1,6.6,33,19.7,47.6c13.2,14.6,30.6,27.3,52.4,38c21.8,10.7,47,19.1,75.5,25.2&#10;&#9;&#9;&#9;&#9;&#9;&#9;c28.5,6,58.2,9.1,89,9.1c9.6,0,19.1-0.3,28.4-1c0.8,1.4,2.1,2.6,4.1,3.2c104,30.4,211.1-11.7,292.8-76.2&#10;&#9;&#9;&#9;&#9;&#9;&#9;c41.8-33,78.3-73,107.8-117.4c14.1-21.2,26.2-43.6,36.3-67c13.6-31.5,28.1-62.5,42.2-93.8c16-35.6,32.4-71.3,43.3-108.9&#10;&#9;&#9;&#9;&#9;&#9;&#9;c8.8-30.4,15.2-62,28-91.1h246.3l76.9,296.4c3.8,15,9.1,32.5,15.9,52.4c6.7,20,17.6,38.9,32.7,56.7&#10;&#9;&#9;&#9;&#9;&#9;&#9;c15.1,17.8,35.9,32.8,62.5,44.9c26.6,12.1,61.7,18.2,105.3,18.2c0.9,0,1.8,0,2.7,0c104.6,37.3,218.3-5.2,312.1-55.8&#10;&#9;&#9;&#9;&#9;&#9;&#9;c22.4-12.1,44.3-25,66-38.4c1.2-0.7,2-1.6,2.5-2.6C2199.5,1970.7,2200.7,1968.1,2200.1,1964.8z M1300.8,1506&#10;&#9;&#9;&#9;&#9;&#9;&#9;c10.1-38.7,21.9-77,33-115.4c19.1-65.8,33.8-132.8,50-199.3c5.3-21.9,10.4-43.8,15-65.9l98.9,380.6H1300.8z"/>
					<path fill="#333333" d="M2200.1,1964.8c-1.9-10.3-6.3-19.5-12.5-27.7c2.4-2.5,3.3-6.4,0-9.5c-7-6.7-16.4-8.7-25.7-9.9&#10;&#9;&#9;&#9;&#9;&#9;&#9;c-11.6-1.4-23.5-0.6-35.1,0.5c-22.6,2-45.2,7.3-67.9,7.4c-5.3,0-7.4,4.8-6.5,8.8c-1,0.6-2.1,1.1-3.2,1.7&#10;&#9;&#9;&#9;&#9;&#9;&#9;c-4.5-16.1-6.7-33.1-10.7-48.9c-8.2-32.3-18.9-64.1-29.4-95.8c-10.8-32.5-17.1-66.6-24.2-100c-6.5-30.5-12.9-60.9-20.6-91.1&#10;&#9;&#9;&#9;&#9;&#9;&#9;h62.5c0.8,2.5,2.9,4.6,6.4,4.3c36.9-2.2,73.9,2.1,110.9,2.1c2.4,6.2,13.4,5.3,13.4-2.7c0.1-28.9,3.8-58.9-5.1-86.8&#10;&#9;&#9;&#9;&#9;&#9;&#9;c1.5-3.5,0.5-8.2-4.3-9.4c-15.3-4.1-31-5.7-46.8-5.8c-10.7-0.1-21.3,1-32,1.4c-7,0.3-14,0.6-21,0.9c-5.1,0.3-11.3-0.2-16.1,1.7&#10;&#9;&#9;&#9;&#9;&#9;&#9;h-92c-5.4-13.9-8.9-28.8-12.4-42.8c-3.1-12.7-6-25.6-9.6-38.2c-3.8-13.7-9-27-13.4-40.5c-21.5-65.1-40.3-131-57.6-197.3&#10;&#9;&#9;&#9;&#9;&#9;&#9;c-34.7-132.7-63.2-266.9-94-400.5c-7.6-32.8-14.7-65.8-23.3-98.4c-6.1-23.3-14.1-46.2-24.2-68.1&#10;&#9;&#9;&#9;&#9;&#9;&#9;c-18.1-39.1-44.6-73.4-78.8-99.7c-37.1-28.4-82-45.3-127.1-55.9c-32-7.5-65.3-10.7-98.1-12.1c-16.5-0.7-33.1-0.8-49.7-0.9&#10;&#9;&#9;&#9;&#9;&#9;&#9;c-9.8-0.1-19.7-1.7-29.5-2.8c-9.5-1-19.2-1.9-28.8-1.1c-5.3,0.5-11.1,1.6-15.3,4.9c-11.6-0.4-23.5-0.7-35.8-0.7&#10;&#9;&#9;&#9;&#9;&#9;&#9;c-43.6,0-86.9,4.3-129.8,12.8c-43,8.6-84.2,21.2-123.6,38c-39.4,16.8-76.1,37.5-110.1,62.1c-34,24.6-63.5,53.1-88.5,85.6&#10;&#9;&#9;&#9;&#9;&#9;&#9;c-25,32.4-44.6,68.5-58.7,108.1c-14.1,39.6-21.2,82.9-21.2,130c0,31.4,4.5,61.4,13.5,89.9c9,28.5,22.1,53.5,39.4,74.9&#10;&#9;&#9;&#9;&#9;&#9;&#9;c17.3,21.4,38.3,38.4,63,50.8c24.7,12.5,52.4,18.7,83.2,18.7c2.6,0,5.2-0.1,7.8-0.2c2.5,2.4,6.3,3.1,9.3-0.2&#10;&#9;&#9;&#9;&#9;&#9;&#9;c0.2-0.2,0.3-0.4,0.5-0.5c6.6-0.7,13.1-1.7,19.7-3.1c3.5,0.6,6.9,1.5,9.7,2.1c12.9,2.8,25.8,4.7,39,5.6&#10;&#9;&#9;&#9;&#9;&#9;&#9;c29.3,2,59.4-1,87.4-10.1c47-15.4,87.6-50.5,101.6-98.8c9.6-33,8.1-70.5,2.3-104.1c-5.1-29.7-19.1-65.5-54-67.5&#10;&#9;&#9;&#9;&#9;&#9;&#9;c-2.6-0.1-4.4,0.9-5.5,2.4c-39.1,0.8-78.2-3.3-117.2-1.2c-2.6-0.4-5-0.7-7.4-0.7c-9.6,0-18.3,3-26,9.1&#10;&#9;&#9;&#9;&#9;&#9;&#9;c-6.3,5-12.7,10.2-19.3,15.6c-0.6-1.5-1.3-3.1-2-4.6c-6.1-14.1-11.3-27.4-13.6-42.7c-4.4-29.1,3.1-58.8,13-86&#10;&#9;&#9;&#9;&#9;&#9;&#9;c8.6-23.8,22.4-45.3,39.1-64.2c19.1-21.6,40.6-41.6,63.5-59c37.8-28.6,80.9-50.5,127.1-61.2c14,3.4,26.3,8.3,36.8,14.8&#10;&#9;&#9;&#9;&#9;&#9;&#9;c22.1,13.6,39.6,40.3,52.4,80.3c-9.6,48.5-21.5,105.4-35.6,170.7c-14.1,65.3-30.1,135.3-48.1,210.3&#10;&#9;&#9;&#9;&#9;&#9;&#9;c-18,74.9-37.1,153-57.3,234.3s-40.9,162-62,241.8h-252v94.2h227c-24.4,83.5-49.4,154.8-75,214&#10;&#9;&#9;&#9;&#9;&#9;&#9;c-25.7,59.2-52.4,107.9-80.3,146.1c-27.9,38.2-56.9,66.2-87,84c-7.8,4.6-15.7,8.6-23.7,12c-16-4.2-31.1-10.9-43.9-22.2&#10;&#9;&#9;&#9;&#9;&#9;&#9;c-14.9-13.1-25-29.7-35.7-46.1c-14.6-22.2-27.9-45.3-39.3-69.4c1.9-4.1-0.1-10.1-6-10.1c-45.1,0.2-89.2,12.6-134.4,10.7&#10;&#9;&#9;&#9;&#9;&#9;&#9;c-2.8-0.1-4.7,1.2-5.8,3c-5.9,1.7-11.4,4.4-16.6,8.2c-9.3,6.8-17.1,15.7-23.5,26.8c-6.4,11-11.4,23.2-14.9,36.4&#10;&#9;&#9;&#9;&#9;&#9;&#9;c-3.5,13.2-5.3,26.2-5.3,39c0,17.1,6.6,33,19.7,47.6c13.2,14.6,30.6,27.3,52.4,38c21.8,10.7,47,19.1,75.5,25.2&#10;&#9;&#9;&#9;&#9;&#9;&#9;c28.5,6,58.2,9.1,89,9.1c9.6,0,19.1-0.3,28.4-1c0.8,1.4,2.1,2.6,4.1,3.2c104,30.4,211.1-11.7,292.8-76.2&#10;&#9;&#9;&#9;&#9;&#9;&#9;c41.8-33,78.3-73,107.8-117.4c14.1-21.2,26.2-43.6,36.3-67c13.6-31.5,28.1-62.5,42.2-93.8c16-35.6,32.4-71.3,43.3-108.9&#10;&#9;&#9;&#9;&#9;&#9;&#9;c8.8-30.4,15.2-62,28-91.1h246.3l76.9,296.4c3.8,15,9.1,32.5,15.9,52.4c6.7,20,17.6,38.9,32.7,56.7&#10;&#9;&#9;&#9;&#9;&#9;&#9;c15.1,17.8,35.9,32.8,62.5,44.9c26.6,12.1,61.7,18.2,105.3,18.2c0.9,0,1.8,0,2.7,0c104.6,37.3,218.3-5.2,312.1-55.8&#10;&#9;&#9;&#9;&#9;&#9;&#9;c22.4-12.1,44.3-25,66-38.4c1.2-0.7,2-1.6,2.5-2.6C2199.5,1970.7,2200.7,1968.1,2200.1,1964.8z M2138.9,1519.7&#10;&#9;&#9;&#9;&#9;&#9;&#9;c7.7,23.5,5.8,48.5,5.1,73.1c-5.8,0-11.7-0.1-17.5-0.3c2.3-1.5,3.8-4.1,3.2-7.4c-4.2-22.3-0.1-45.2-4.2-67.6&#10;&#9;&#9;&#9;&#9;&#9;&#9;C2130,1518.1,2134.5,1518.8,2138.9,1519.7z M2035.3,1519.2c1.5,0.2,3.3,0,4.6,0c1.3,0,2.3-0.3,3.2-0.8c1.6-0.1,3.2-0.2,4.7-0.3&#10;&#9;&#9;&#9;&#9;&#9;&#9;v64.5c0,8.9,13.9,8.9,13.9,0v-65.1c2.8-0.1,5.6-0.3,8.4-0.4c2.6-0.1,5.2-0.2,7.8-0.3c1.9,22.5-2.1,45.2,2.2,67.6&#10;&#9;&#9;&#9;&#9;&#9;&#9;c1.7,8.8,15,5.1,13.4-3.7c-4-21.3,0.1-43-1.7-64.4c6.9-0.2,13.8-0.2,20.7,0.1c-0.5,1.2-0.6,2.5-0.4,4c4.2,22.5,0,45.7,4.3,68.3&#10;&#9;&#9;&#9;&#9;&#9;&#9;c0.3,1.5,0.9,2.6,1.7,3.4c-27.6-1.1-55.2-3.1-82.8-1.6V1519.2z M1024,1081.7c15.7-13.9,28.5-31.2,38.5-51.9&#10;&#9;&#9;&#9;&#9;&#9;&#9;c9.9-20.7,14.9-45.3,14.9-73.8c0-20-2.6-36.9-7.7-50.8c-5.2-13.9-11.4-25.2-18.8-33.7c-3.5-4.1-7.2-7.7-11.1-10.7&#10;&#9;&#9;&#9;&#9;&#9;&#9;c32.6,0.2,65.2,2.9,97.8,1.5c1.2-0.1,2.2-0.3,3.1-0.8c12.9,4,21.1,16.2,26.1,28.8c6.9,17.8,9.3,37.2,10.3,56.1&#10;&#9;&#9;&#9;&#9;&#9;&#9;c1.2,20.9,0.8,42-4.1,62.4c-5.2,21.7-16,41.1-31.7,56.9c-29.6,29.7-70.6,44.3-111.8,47.2c-17.7,1.2-36.1,0.8-53.8-2.1&#10;&#9;&#9;&#9;&#9;&#9;&#9;C993.7,1104,1009.7,1094.4,1024,1081.7z M1041.4,610.7c-42.1,33.3-81.2,74.1-99.7,125.4c-4.9,13.5-8.3,27.7-11.4,41.7&#10;&#9;&#9;&#9;&#9;&#9;&#9;c-3.2,14.7-3.6,29.6-1.8,44.6c1.9,15.4,6,29.2,12.1,43.4c2.1,4.9,4.4,9.8,6.4,14.8c-6.3,4.8-13.4,9.4-21.1,13.8&#10;&#9;&#9;&#9;&#9;&#9;&#9;c-10.6,6.1-23.5,9.1-38.9,9.1c-3.9,0-9.3-0.9-16.4-2.7c-7.1-1.8-14.3-6.1-21.7-12.9c-7.4-6.8-13.8-16.9-19.2-30.5&#10;&#9;&#9;&#9;&#9;&#9;&#9;c-5.5-13.5-8.2-31.7-8.2-54.6c0-39.2,9.8-74.7,29.3-106.4c19.5-31.8,44.4-58.5,74.6-80.3c30.1-21.7,63.6-38.5,100.5-50.3&#10;&#9;&#9;&#9;&#9;&#9;&#9;c36.9-11.7,72.6-17.7,107.3-17.7c6.6,0,12.9,0.2,19,0.6C1112,562.7,1074.7,584.3,1041.4,610.7z M2142.2,1931&#10;&#9;&#9;&#9;&#9;&#9;&#9;c2.5,9.9,8.3,18.6,15.1,26.1c-7.2-0.1-14.4,0-21.6,0.2c-0.3-0.7-0.8-1.4-1.4-2c-6.3-6.5-10.6-13.6-10.8-22.8c0,0,0-0.1,0-0.1&#10;&#9;&#9;&#9;&#9;&#9;&#9;C2129.8,1931.7,2136,1931.2,2142.2,1931z M2109.8,1934c0.5,9,3.6,16.9,8.7,23.9c-4.4,0.2-8.8,0.4-13.1,0.6&#10;&#9;&#9;&#9;&#9;&#9;&#9;c-5.1-6.9-9.2-14.4-13.1-22C2098.2,1935.7,2104,1934.8,2109.8,1934z M2078,1938.3c0.1,0.6,0.3,1.3,0.7,2&#10;&#9;&#9;&#9;&#9;&#9;&#9;c3.2,6.5,6.6,12.9,10.4,19c-3.1,0.1-6.3,0.2-9.5,0.3l-8.5-20.6C2073.5,1938.7,2075.7,1938.5,2078,1938.3z M709,2071&#10;&#9;&#9;&#9;&#9;&#9;&#9;c-32.7,0-58.4-7.9-76.9-23.6c-18.6-15.7-33.8-33-45.7-51.9c-11.8-18.9-21.6-36.2-29.3-51.9c-2.1-4.3-4.3-8-6.7-11.2&#10;&#9;&#9;&#9;&#9;&#9;&#9;c32.7-2.2,65-9,97.8-10c12.1,25.8,26.3,50.4,41.9,74.1c11.5,17.4,22.5,35,38.5,48.7c9.4,8.1,19.9,14,30.9,18.5&#10;&#9;&#9;&#9;&#9;&#9;&#9;C743.1,2068.6,726.3,2071,709,2071z M1238.6,1667.7c-4,15.1-8.2,30.1-13.4,44.8c-5.6,16-12.4,31.5-19.1,47.1&#10;&#9;&#9;&#9;&#9;&#9;&#9;c-13.5,31.3-27.9,62.2-41.9,93.2c-11.8,26.2-22.6,52.9-37,77.8c-26.2,45.6-60.8,86.5-100.2,121.3&#10;&#9;&#9;&#9;&#9;&#9;&#9;c-39.8,35.2-85.9,64.4-136.1,82.1c-43.9,15.5-90.9,21.1-136.6,13.3c31.6-5.3,61.2-14.6,88.8-28.1&#10;&#9;&#9;&#9;&#9;&#9;&#9;c45.2-22.1,86.7-56,124.6-101.7c37.8-45.6,72.3-103.1,103.4-172.3c31.1-69.2,60.1-150.9,87.1-245.1h101.3&#10;&#9;&#9;&#9;&#9;&#9;&#9;C1250.6,1622,1244.7,1645,1238.6,1667.7z M1286.4,1506h-102.3c24.4-90.6,48.9-188.3,73.6-293.2c24.7-104.9,50.2-216.9,76.5-336&#10;&#9;&#9;&#9;&#9;&#9;&#9;l56.5,217.4c-10.4,57.9-25.8,114.8-39.5,172c-7.9,33.2-15.4,66.4-24.6,99.2c-9.1,32.6-19.1,65-28.4,97.6&#10;&#9;&#9;&#9;&#9;&#9;&#9;C1294.1,1477.3,1290.2,1491.6,1286.4,1506z M1300.8,1506c10.1-38.7,21.9-77,33-115.4c19.1-65.8,33.8-132.8,50-199.3&#10;&#9;&#9;&#9;&#9;&#9;&#9;c5.3-21.9,10.4-43.8,15-65.9l98.9,380.6H1300.8z M1619.8,715.2c-11.5-43.5-26.2-81.8-43.8-115c-17.6-33.2-40.9-60.6-69.7-82.4&#10;&#9;&#9;&#9;&#9;&#9;&#9;c-28.9-21.7-64.6-38.2-107.3-49.2c-3.6-0.9-7.2-1.8-10.9-2.7c12.4,0.3,24.9,1,37.3,1.9c54.3,4.1,109,15.9,157.6,41.2&#10;&#9;&#9;&#9;&#9;&#9;&#9;c37.5,19.6,69.1,48,92,83.6c27.9,43.3,40.3,92.5,52.1,142.1c31.6,133.3,59.7,267.4,92.7,400.3c16.5,66.6,34.4,132.8,54.5,198.4&#10;&#9;&#9;&#9;&#9;&#9;&#9;c5,16.4,10.2,32.7,15.5,48.9c4.6,14,9.8,27.9,14.1,42c7.6,25.2,12,51.3,20.3,76.4c0.6,1.8,1.2,3.5,1.8,5.2h-99.3L1619.8,715.2z&#10;&#9;&#9;&#9;&#9;&#9;&#9; M1950.3,1600.2c7.7,30.1,14.2,60.4,20.6,90.8c3.6,16.8,7.2,33.5,11,50.2c3.8,16.7,7.4,33.6,12.8,49.8&#10;&#9;&#9;&#9;&#9;&#9;&#9;c10.7,32.1,20.8,64.3,29.9,96.9c5,17.9,7.4,36.5,12.5,54.3c-3.7,1.8-7.5,3.5-11.5,5.2c-15.4,6.8-32.1,10.2-50,10.2&#10;&#9;&#9;&#9;&#9;&#9;&#9;c-8.4,0-15.2-2.2-20.7-6.4c-5.5-4.3-9.9-9.8-13.5-16.6c-3.5-6.8-6.6-14.8-9.1-24.1c-2.6-9.3-5.2-19.3-7.7-30l-75-280.4H1950.3z&#10;&#9;&#9;&#9;&#9;&#9;&#9; M2033.2,2042.3c-53.6,20.3-112.2,33.2-169.6,24.4c-1.2-0.2-2.3-0.4-3.5-0.6c14.6-1.8,28.8-4.4,42.5-8&#10;&#9;&#9;&#9;&#9;&#9;&#9;c27.6-7.1,52.7-16,75.5-26.7c22.8-10.7,43-21.9,60.6-33.7c13.1-8.8,24.6-16.9,34.4-24.3c33.5-0.5,67.2-4.4,100.6-2.1&#10;&#9;&#9;&#9;&#9;&#9;&#9;C2128.7,1998.5,2082.4,2023.7,2033.2,2042.3z M2172.3,1957.6c0.7-2.1,0.3-4.5-1.7-6.6c-5.7-5.8-10.9-12.3-13.8-19.9&#10;&#9;&#9;&#9;&#9;&#9;&#9;c4.1,0.2,8.8,0.7,12.9,2c-0.6,2.1-0.2,4.4,1.7,6.4c5.5,5.7,9.7,12,12.5,19C2180.1,1958.2,2176.2,1957.9,2172.3,1957.6z"/>
					<path fill="#FFFFFF" d="M1132,1542.3c-0.1-5.5-2.6-10.9-7.3-14.3c-4.8-3.5-10.2-3.8-14.9-1.9c-4.8,0.9-8.6,4.6-11.3,8.7&#10;&#9;&#9;&#9;&#9;&#9;&#9;c-3.6,5.5-3.7,11.6-1,17.4c2.3,4.9,7.7,8.4,12.8,9.7c6.4,1.6,12.4-0.7,17-5.2C1131.7,1552.3,1133.1,1547.1,1132,1542.3z"/>
					<path fill="#FFFFFF" d="M524.4,2001.3c-0.1-5.5-2.6-10.9-7.3-14.3c-4.8-3.5-10.2-3.8-14.9-1.9c-4.8,0.9-8.6,4.6-11.3,8.7&#10;&#9;&#9;&#9;&#9;&#9;&#9;c-3.6,5.5-3.7,11.6-1,17.4c2.3,4.9,7.7,8.4,12.8,9.7c6.4,1.6,12.4-0.7,17-5.2C524.1,2011.4,525.4,2006.2,524.4,2001.3z"/>
					<path fill="#FFFFFF" d="M1527.3,701.9c-0.1-5.5-2.6-10.9-7.3-14.3c-4.8-3.5-10.2-3.8-14.9-1.9c-4.8,0.9-8.6,4.6-11.3,8.7&#10;&#9;&#9;&#9;&#9;&#9;&#9;c-3.6,5.5-3.7,11.6-1,17.4c2.3,4.9,7.7,8.4,12.8,9.7c6.4,1.6,12.4-0.7,17-5.2C1526.9,712,1528.3,706.7,1527.3,701.9z"/>
					<path fill="#FFFFFF" d="M1345.7,522.7c-0.1-5.5-2.6-10.9-7.3-14.3c-4.8-3.5-10.2-3.8-14.9-1.9c-4.8,0.9-8.6,4.6-11.3,8.7&#10;&#9;&#9;&#9;&#9;&#9;&#9;c-3.6,5.5-3.7,11.6-1,17.4c2.3,4.9,7.7,8.4,12.8,9.7c6.4,1.6,12.4-0.7,17-5.2C1345.4,532.8,1346.8,527.5,1345.7,522.7z"/>
					<path fill="#FFFFFF" d="M907.3,1002c-16.8,0-33.9,0.6-50.4-2.8c-14.9-3-27.8-10.4-39-20.5c-14.9-13.4-27.2-29.9-37.5-47.1&#10;&#9;&#9;&#9;&#9;&#9;&#9;c-11-18.3-20-39.5-17.5-61.4c1-8.9-12.9-8.8-13.9,0c-2.6,23,6.5,45.7,17.7,65.4c10.7,18.9,24.5,37,40.4,51.9&#10;&#9;&#9;&#9;&#9;&#9;&#9;c12.5,11.7,27.2,20.5,44,24.5c18.3,4.4,37.7,3.8,56.4,3.8C916.2,1015.8,916.2,1002,907.3,1002z"/>
					<path fill="#FFFFFF" d="M964.6,991.6c-14.1-2.1-32.1-6-41.7-17.4c-5.8-6.8-15.5,3-9.8,9.8c9.4,11.1,25.2,16.6,39.7,19.5&#10;&#9;&#9;&#9;&#9;&#9;&#9;c-5.1,10.7-11.1,21.1-18.4,30.4c-5.5,6.9,4.3,16.8,9.8,9.8c10.1-12.8,18.1-27,24.5-41.9C970.3,998.1,969.5,992.3,964.6,991.6z"/>
					<path fill="#FFFFFF" d="M1003,966c-7.5-2.1-15.1-4-22.5-6.2c-6.6-2-14.1-4.2-19.2-9.1c-6.5-6.1-16.3,3.7-9.8,9.8&#10;&#9;&#9;&#9;&#9;&#9;&#9;c10.6,10,26.3,13.4,40.5,16.9c-3.5,9.7-6.4,19.5-8.2,29.7c-1.5,8.7,11.8,12.5,13.4,3.7c2.2-12.5,6-24.5,10.7-36.3&#10;&#9;&#9;&#9;&#9;&#9;&#9;C1009.2,971,1006.3,966.9,1003,966z"/>
					<path fill="#FFFFFF" d="M1033,941.3c-15.5-3.6-29.6-11.8-45-15.9c-8.7-2.3-12.3,11.1-3.7,13.4c14.6,3.8,28.1,11.4,42.7,15.3&#10;&#9;&#9;&#9;&#9;&#9;&#9;c-5.1,12.8-9.2,26-9.4,39.9c-0.1,8.9,13.7,8.9,13.9,0c0.2-13.6,5-26.9,10.2-39.5c1.6-1.1,2.6-2.9,2.6-5.3V947&#10;&#9;&#9;&#9;&#9;&#9;&#9;C1044.3,941.6,1036.9,938.1,1033,941.3z"/>
					<path fill="#FFFFFF" d="M1671.2,1474.2c-13.7-85.8-42.6-168.3-66.1-251.7c-2.4-8.6-15.8-4.9-13.4,3.7&#10;&#9;&#9;&#9;&#9;&#9;&#9;c23.6,83.4,52.4,165.9,66.1,251.7C1659.2,1486.7,1672.6,1482.9,1671.2,1474.2z"/>
					<path fill="#FFFFFF" d="M1794.2,1854.3c-33.2-71.2-41.8-151.3-76.8-221.8c-4-8-15.9-1-12,7c35,70.5,43.6,150.6,76.8,221.8&#10;&#9;&#9;&#9;&#9;&#9;&#9;C1786,1869.4,1797.9,1862.4,1794.2,1854.3z"/>
					<path fill="#FFFFFF" d="M1625.3,1201.3c-15.5-6.7-30.2-15.1-44.8-23.5c-4.2-2.4-8.5,0-10.2,4.1c-4.9,11.9-6.4,24.7-10,36.9&#10;&#9;&#9;&#9;&#9;&#9;&#9;c-1,2.6-2,5.2-2.8,7.9c-2.6,8.8,10.1,11.7,13.4,3.7c1.2-2.9,2.2-5.9,3-8.8c3.3-8.8,7.1-17.3,9-26.5&#10;&#9;&#9;&#9;&#9;&#9;&#9;c11.6,6.5,23.2,12.8,35.4,18.1C1626.4,1216.8,1633.5,1204.8,1625.3,1201.3z"/>
					<path fill="#FFFFFF" d="M1602.3,1153.7c-9.1-2.1-13.8-9.1-20-15.5c-7.2-7.5-16.6-9.5-26.4-5.8c-2.8,1-4.2,3.2-4.6,5.5&#10;&#9;&#9;&#9;&#9;&#9;&#9;c-1.1,0.8-1.9,2-2.4,3.6c-4.3,14.8-10.3,29-16.4,43.1c-3.5,8.1,8.5,15.2,12,7c6.5-15.2,13.1-30.5,17.8-46.4&#10;&#9;&#9;&#9;&#9;&#9;&#9;c0-0.1,0.1-0.3,0.1-0.4c2.1-0.6,4.3-0.8,6.4,0.2c2.9,1.5,5,4.3,7.1,6.7c6.3,7.1,13.1,13.2,22.7,15.3&#10;&#9;&#9;&#9;&#9;&#9;&#9;C1607.4,1169,1611.1,1155.6,1602.3,1153.7z"/>
					<path fill="#FFFFFF" d="M1596.9,1108.5c-6.9-7.9-16.3-13.5-25.8-17.6c-9.5-4.1-19.6-6.9-30-5.5c-1.7,0.2-3,1.3-3.9,2.7&#10;&#9;&#9;&#9;&#9;&#9;&#9;c-2.2,0.9-3.7,2.9-3.3,6.1c0.8,7.4-1.8,14.1-4.8,20.7c-3.6,8-7.6,15.8-9.9,24.4c-2.3,8.6,11.1,12.3,13.4,3.7&#10;&#9;&#9;&#9;&#9;&#9;&#9;c4-14.9,15-28.7,15.4-44.4c5.9,0.1,12.4,2.6,17.5,4.8c8.1,3.5,15.9,8.2,21.6,14.9C1592.9,1125.1,1602.7,1115.2,1596.9,1108.5z"/>
					<path fill="#FFFFFF" d="M1813.5,1851.7c-4.4,11-8.8,22-11.5,33.6c-15.8-5.1-30.9-12.5-48-10.9c-8.8,0.8-8.9,14.7,0,13.9&#10;&#9;&#9;&#9;&#9;&#9;&#9;c18.3-1.7,34.3,8.1,51.5,12.5c3.3,0.9,7.9-1.1,8.5-4.8c2.2-14.1,7.5-27.3,12.8-40.5C1830.2,1847.1,1816.8,1843.5,1813.5,1851.7&#10;&#9;&#9;&#9;&#9;&#9;&#9;z"/>
					<path fill="#FFFFFF" d="M1837.7,1882c-6.5,13.1-13.1,26.2-20.9,38.6c-16-3.1-31.3-9.7-47.8-10c-8.9-0.2-8.9,13.7,0,13.9&#10;&#9;&#9;&#9;&#9;&#9;&#9;c17,0.3,32.7,8.1,49.3,10.4c3.3,0.5,5.9-0.3,7.8-3.2c8.9-13.5,16.2-28.2,23.5-42.7C1853.6,1881.1,1841.7,1874.1,1837.7,1882z"/>
					<path fill="#FFFFFF" d="M1856.9,1911.9c-9,14.5-16.9,29.7-26.4,43.9c-16.8-6.8-34.8-8.9-53-9c-8.9,0-8.9,13.8,0,13.9&#10;&#9;&#9;&#9;&#9;&#9;&#9;c17.8,0.1,35.8,1.9,52,9.7c3.6,1.8,7.2,0.8,9.5-2.5c11.1-15.7,19.8-32.8,29.9-49.1C1873.6,1911.3,1861.6,1904.3,1856.9,1911.9z&#10;&#9;&#9;&#9;&#9;&#9;&#9;"/>
					<path fill="#FFFFFF" d="M1052.3,1548c-18.1,1.3-36.2,2.1-54.4,1.9c-17.5-0.2-35.7-0.8-52.6-5.9c-8.6-2.6-12.2,10.8-3.7,13.4&#10;&#9;&#9;&#9;&#9;&#9;&#9;c17.5,5.2,36.4,6.1,54.6,6.4c18.7,0.3,37.4-0.5,56-1.9C1061.2,1561.2,1061.3,1547.4,1052.3,1548z"/>
					<path fill="#FFFFFF" d="M1387.2,524.2c-8.9,0.6-8.9,14.4,0,13.9c55.5-3.6,115.9,50.9,108.2,108.2c-0.5,3.8,3.5,6.9,6.9,6.9&#10;&#9;&#9;&#9;&#9;&#9;&#9;c4.2,0,6.4-3.2,6.9-6.9C1517.9,581.9,1449.5,520.1,1387.2,524.2z"/>
					<path fill="#FFFFFF" d="M722,2094.3c-65.4,24-135.7-8.7-185.2-51.5c-6.7-5.8-16.6,3.9-9.8,9.8c53,45.9,128.6,80.8,198.7,55.1&#10;&#9;&#9;&#9;&#9;&#9;&#9;C734,2104.6,730.4,2091.2,722,2094.3z"/>
				</g>
				<path fill="#333333" d="M1316.5,1051.9c-13.2,41.8-29.2,82.9-38.4,125.8c-1.9,8.7,11.5,12.4,13.4,3.7&#10;&#9;&#9;&#9;&#9;&#9;c9.2-43,25.2-84.1,38.4-125.8C1332.6,1047,1319.2,1043.4,1316.5,1051.9z"/>
				<path fill="#333333" d="M904.7,686.1c4.7-7.6-7.3-14.6-12-7c-13.9,22.7-24.8,48.6-30.3,74.6c-5.3,25.3-3.8,57.5,25.9,65.7&#10;&#9;&#9;&#9;&#9;&#9;c8.6,2.4,12.3-11,3.7-13.4c-23.2-6.4-19.5-34.8-15.2-53.2C882.4,729.5,892.3,706.5,904.7,686.1z"/>
				<path fill="#333333" d="M1157.4,980.2c-0.6-27.2-10.7-54-24.5-77.2c-4.6-7.7-16.6-0.7-12,7c12.2,20.4,21,43.4,22.4,67.3&#10;&#9;&#9;&#9;&#9;&#9;c1.6,25.5-7.2,49.4-25.6,67.2c-6.4,6.2,3.4,16,9.8,9.8C1148,1034.7,1158.1,1008.4,1157.4,980.2z"/>
				<path fill="#333333" d="M670.2,2026c-32.8-6.1-51.2-33.6-61.3-63.4c-2.8-8.4-16.2-4.8-13.4,3.7c11.5,34.1,33.3,66.1,71,73.1&#10;&#9;&#9;&#9;&#9;&#9;C675.3,2041,679,2027.7,670.2,2026z"/>
				<path fill="#333333" d="M1103.9,1884.2c-11.2,25.8-21.2,52.1-34.7,76.8c-13.1,23.9-30,46.4-54.5,59.4c-7.9,4.2-0.9,16.2,7,12&#10;&#9;&#9;&#9;&#9;&#9;c52.4-27.8,72.1-90.3,94.2-141.1C1119.4,1883.1,1107.5,1876,1103.9,1884.2z"/>
				<path fill="#333333" d="M1841.8,1431.5c-15.5-59.3-38.1-116.6-49.1-177c-1.6-8.8-14.9-5.1-13.4,3.7&#10;&#9;&#9;&#9;&#9;&#9;c10.9,60.4,33.6,117.8,49.1,177C1830.7,1443.8,1844.1,1440.2,1841.8,1431.5z"/>
			</g><path fill="#FEAAAA" d="M887.3,1058.4c-3.1-1.8-7.8-0.9-9.5,2.5c-1,2-1.8,4.2-2.9,6.2c-0.1-0.1-0.2-0.1-0.4-0.2&#10;&#9;&#9;&#9;&#9;&#9;c-3.4-1.7-7.5-1-9.5,2.5c-1.8,3.1-0.9,7.8,2.5,9.5c5.4,2.6,10.8,3.9,15.8-0.1c3.3-2.6,4.7-7.3,6.4-10.9&#10;&#9;&#9;&#9;&#9;&#9;C891.5,1064.5,890.8,1060.4,887.3,1058.4z" transform="matrix(1, 0, 0, 1, 0, 0)"/><path fill="#FEAAAA" d="M824.1,886.8c-8.9,0-8.9,13.9,0,13.9C833,900.7,833,886.8,824.1,886.8z" transform="matrix(1, 0, 0, 1, 0, 0)"/><path fill="#FEAAAA" d="M790,758.8h-4.3c-3.8,0-6.9,3.2-6.9,6.9c0,3.8,3.2,6.9,6.9,6.9h4.3c3.8,0,6.9-3.2,6.9-6.9&#10;&#9;&#9;&#9;&#9;&#9;C796.9,762,793.8,758.8,790,758.8z" transform="matrix(1, 0, 0, 1, 0, 0)"/><path fill="#FEAAAA" d="M1016.1,511.4c-8.9,0-8.9,13.9,0,13.9S1025,511.4,1016.1,511.4z" transform="matrix(1, 0, 0, 1, 0, 0)"/><path fill="#FEAAAA" d="M1382.9,665c-8.9,0-8.9,13.9,0,13.9S1391.9,665,1382.9,665z" transform="matrix(1, 0, 0, 1, 0, 0)"/><path fill="#FEAAAA" d="M1421.3,592.4c-8.9,0-8.9,13.9,0,13.9C1430.3,606.3,1430.3,592.4,1421.3,592.4z" transform="matrix(1, 0, 0, 1, 0, 0)"/><path fill="#FEAAAA" d="M1289.1,792.9c-8.9,0-8.9,13.9,0,13.9S1298,792.9,1289.1,792.9z" transform="matrix(1, 0, 0, 1, 0, 0)"/><path fill="#FEAAAA" d="M1489.6,1002c-8.9,0-8.9,13.9,0,13.9C1498.5,1015.8,1498.5,1002,1489.6,1002z" transform="matrix(1, 0, 0, 1, 0, 0)"/><path fill="#FEAAAA" d="M1485.3,834.4c-3.8,0-6.9,3.2-6.9,6.9v5.5c0,3.8,3.2,6.9,6.9,6.9s6.9-3.2,6.9-6.9v-5.5&#10;&#9;&#9;&#9;&#9;&#9;C1492.2,837.6,1489.1,834.4,1485.3,834.4z" transform="matrix(1, 0, 0, 1, 0, 0)"/><path fill="#FEAAAA" d="M1675.7,1021.7c0.1-3.8-3.3-6.9-6.9-6.9c-3.5,0-6.3,2.6-6.8,6c-0.3,0.3-0.6,0.7-0.8,0.9&#10;&#9;&#9;&#9;&#9;&#9;c-2.3,2.4-3.5,5.3-3.6,8.6c-0.1,3.8,3.3,6.9,6.9,6.9c3.5,0,6.3-2.6,6.8-6c0.3-0.3,0.6-0.7,0.8-0.9&#10;&#9;&#9;&#9;&#9;&#9;C1674.4,1027.9,1675.6,1025,1675.7,1021.7z" transform="matrix(1, 0, 0, 1, 0, 0)"/><path fill="#FEAAAA" d="M1536.5,1407.2c-8.9,0-8.9,13.9,0,13.9C1545.4,1421.1,1545.4,1407.2,1536.5,1407.2z" transform="matrix(1, 0, 0, 1, 0, 0)"/><path fill="#FEAAAA" d="M1732.7,1356h-5.5c-3.8,0-6.9,3.2-6.9,6.9s3.2,6.9,6.9,6.9h5.5c3.8,0,6.9-3.2,6.9-6.9&#10;&#9;&#9;&#9;&#9;&#9;S1736.5,1356,1732.7,1356z" transform="matrix(1, 0, 0, 1, 0, 0)"/><path fill="#FEAAAA" d="M1690.1,1560.8c-8.9,0-8.9,13.9,0,13.9C1699,1574.7,1699,1560.8,1690.1,1560.8z" transform="matrix(1, 0, 0, 1, 0, 0)"/><path fill="#FEAAAA" d="M1626.1,1829.6h-4.3c-3.8,0-6.9,3.2-6.9,6.9c0,3.8,3.2,6.9,6.9,6.9h4.3c3.8,0,6.9-3.2,6.9-6.9&#10;&#9;&#9;&#9;&#9;&#9;C1633,1832.7,1629.9,1829.6,1626.1,1829.6z" transform="matrix(1, 0, 0, 1, 0, 0)"/><path fill="#FEAAAA" d="M1835.1,1735.7c-3.8,0-6.9,3.2-6.9,6.9v4.3c0,3.8,3.2,6.9,6.9,6.9c3.8,0,6.9-3.2,6.9-6.9v-4.3&#10;&#9;&#9;&#9;&#9;&#9;C1842.1,1738.9,1838.9,1735.7,1835.1,1735.7z" transform="matrix(1, 0, 0, 1, 0, 0)"/><path fill="#FEAAAA" d="M1306.2,1543.7c-8.9,0-8.9,13.9,0,13.9S1315.1,1543.7,1306.2,1543.7z" transform="matrix(1, 0, 0, 1, 0, 0)"/><path fill="#FEAAAA" d="M1941.8,1539.5c-8.9,0-8.9,13.9,0,13.9C1950.7,1553.3,1950.7,1539.5,1941.8,1539.5z" transform="matrix(1, 0, 0, 1, 0, 0)"/><path fill="#FEAAAA" d="M1246.4,1078.8c-8.9,0-8.9,13.9,0,13.9S1255.4,1078.8,1246.4,1078.8z" transform="matrix(1, 0, 0, 1, 0, 0)"/><path fill="#FEAAAA" d="M1178.2,1339h-4.3c-3.8,0-6.9,3.2-6.9,6.9c0,3.8,3.2,6.9,6.9,6.9h4.3c3.8,0,6.9-3.2,6.9-6.9&#10;&#9;&#9;&#9;&#9;&#9;C1185.1,1342.1,1182,1339,1178.2,1339z" transform="matrix(1, 0, 0, 1, 0, 0)"/><path fill="#FEAAAA" d="M862.5,1543.7c-8.9,0-8.9,13.9,0,13.9C871.4,1557.6,871.4,1543.7,862.5,1543.7z" transform="matrix(1, 0, 0, 1, 0, 0)"/><path fill="#FEAAAA" d="M1085.4,1694.2c-1.8-3.6-5.8-5.4-9.7-5.4c-3.8-0.1-6.9,3.2-6.9,6.9c0,3,2,5.5,4.7,6.5&#10;&#9;&#9;&#9;&#9;&#9;c1,2.7,3.5,4.7,6.5,4.7c3.8,0,7-3.2,6.9-6.9C1087,1697.9,1086.4,1696,1085.4,1694.2z" transform="matrix(1, 0, 0, 1, 0, 0)"/><path fill="#FEAAAA" d="M969.8,1934c-1.4-1.4-2.8-2.8-4.3-4.3c-2.7-2.7-7.1-2.7-9.8,0s-2.7,7.1,0,9.8c1.4,1.4,2.8,2.8,4.3,4.3&#10;&#9;&#9;&#9;&#9;&#9;c2.7,2.7,7.1,2.7,9.8,0C972.5,1941.1,972.5,1936.6,969.8,1934z" transform="matrix(1, 0, 0, 1, 0, 0)"/><path fill="#FEAAAA" d="M836.9,2059.9c-8.9,0-8.9,13.9,0,13.9C845.8,2073.8,845.8,2059.9,836.9,2059.9z" transform="matrix(1, 0, 0, 1, 0, 0)"/><path fill="#FFFFFF" d="M1445.4,2098.7c-3.5,0-6.5,3-6.5,6.5v6c0,3.5,3,6.5,6.5,6.5s6.5-3,6.5-6.5v-6&#10;&#9;&#9;&#9;C1451.9,2101.7,1448.9,2098.7,1445.4,2098.7z" transform="matrix(1, 0, 0, 1, 0, 0)"/><path fill="#FFFFFF" d="M1637.3,2458.6h-6c-3.5,0-6.5,3-6.5,6.5s3,6.5,6.5,6.5h6c3.5,0,6.5-3,6.5-6.5S1640.9,2458.6,1637.3,2458.6&#10;&#9;&#9;&#9;z" transform="matrix(1, 0, 0, 1, 0, 0)"/><path fill="#FFFFFF" d="M1907.3,2128.7c-8.4,0-8.4,13,0,13S1915.6,2128.7,1907.3,2128.7z" transform="matrix(1, 0, 0, 1, 0, 0)"/><path fill="#FFFFFF" d="M2561.1,2056.7c-8.4,0-8.4,13,0,13S2569.5,2056.7,2561.1,2056.7z" transform="matrix(1, 0, 0, 1, 0, 0)"/><path fill="#FFFFFF" d="M2075.2,2566.6h-12c-8.4,0-8.4,13,0,13h12C2083.6,2579.6,2083.6,2566.6,2075.2,2566.6z" transform="matrix(1, 0, 0, 1, 0, 0)"/><path fill="#FFFFFF" d="M388.2,2430.6c-2-2-4-4-6-6c-2.5-2.5-6.7-2.5-9.2,0c-2.5,2.5-2.5,6.7,0,9.2c2,2,4,4,6,6&#10;&#9;&#9;&#9;c2.5,2.5,6.7,2.5,9.2,0C390.7,2437.2,390.7,2433.1,388.2,2430.6z" transform="matrix(1, 0, 0, 1, 0, 0)"/><path fill="#FFFFFF" d="M431.6,2193c-3.5,0-6.5,3-6.5,6.5v7.7c0,3.5,3,6.5,6.5,6.5s6.5-3,6.5-6.5v-7.7&#10;&#9;&#9;&#9;C438.1,2196,435.1,2193,431.6,2193z" transform="matrix(1, 0, 0, 1, 0, 0)"/><path fill="#FFFFFF" d="M245.6,1648.8h-6c-3.5,0-6.5,3-6.5,6.5s3,6.5,6.5,6.5h6c3.5,0,6.5-3,6.5-6.5S249.1,1648.8,245.6,1648.8z" transform="matrix(1, 0, 0, 1, 0, 0)"/><path fill="#FFFFFF" d="M765.3,1432.3c-2.3-1.9-5.2-2.7-8.1-1.7c-2.4,0.8-4.6,2.3-6.4,4.1c-2.5,2.5-2.5,6.7,0,9.2&#10;&#9;&#9;&#9;c2,2,5.2,2.4,7.6,1.2c0.9,0.5,1.9,0.7,3,0.7c3.5,0,6.6-3,6.5-6.5C767.9,1436.9,767.3,1434,765.3,1432.3z" transform="matrix(1, 0, 0, 1, 0, 0)"/><path fill="#FFFFFF" d="M821.5,1690.8c-8.4,0-8.4,13,0,13S829.9,1690.8,821.5,1690.8z" transform="matrix(1, 0, 0, 1, 0, 0)"/><path fill="#FFFFFF" d="M270,1128.6c-1.9-1.1-4.3-1.7-6.4-1.7c-3.5,0-6.5,3-6.5,6.5c0,3.4,2.7,6.2,6,6.5c0.3,3.3,3,6,6.5,6&#10;&#9;&#9;&#9;c3.5,0,6.6-3,6.5-6.5C276,1135,274,1130.8,270,1128.6z" transform="matrix(1, 0, 0, 1, 0, 0)"/><path fill="#FFFFFF" d="M683.5,1150.9h-6c-3.5,0-6.5,3-6.5,6.5s3,6.5,6.5,6.5h6c3.5,0,6.5-3,6.5-6.5S687,1150.9,683.5,1150.9z" transform="matrix(1, 0, 0, 1, 0, 0)"/><path fill="#FFFFFF" d="M299.6,821c-8.4,0-8.4,13,0,13S308,821,299.6,821z" transform="matrix(1, 0, 0, 1, 0, 0)"/><path fill="#FFFFFF" d="M635.5,665c-8.4,0-8.4,13,0,13S643.9,665,635.5,665z" transform="matrix(1, 0, 0, 1, 0, 0)"/><path fill="#FFFFFF" d="M262.2,247c-5.9-5.9-15.1,3.3-9.2,9.2c0.5,0.5,0.9,1,1.4,1.4c-0.5,0.5-0.9,0.9-1.4,1.4&#10;&#9;&#9;&#9;c-5.9,5.9,3.3,15.1,9.2,9.2c2.8-2.8,6.4-6.1,6.4-10.4C268.6,253.2,265.2,250,262.2,247z" transform="matrix(1, 0, 0, 1, 0, 0)"/><path fill="#FFFFFF" d="M652.1,331l-6-6c-2.5-2.5-6.7-2.5-9.2,0s-2.5,6.7,0,9.2l6,6c2.5,2.5,6.7,2.5,9.2,0S654.6,333.5,652.1,331z&#10;&#9;&#9;&#9;" transform="matrix(1, 0, 0, 1, 0, 0)"/><path fill="#FFFFFF" d="M1037.4,173.1c-8.4,0-8.4,13,0,13S1045.8,173.1,1037.4,173.1z" transform="matrix(1, 0, 0, 1, 0, 0)"/><path fill="#FFFFFF" d="M1523.8,185.6c0-3.4-3-6.6-6.5-6.5c-4.6,0.2-8,2.2-10.8,5.8c-2.1,2.7-3.5,5.7-5.8,8.1&#10;&#9;&#9;&#9;c-5.8,6,3.4,15.2,9.2,9.2c2.4-2.5,4.4-5.3,6.2-8.2c0.3-0.5,0.7-1.1,1-1.6c0,0,0-0.1,0.1-0.1c0,0,0.1-0.1,0.2-0.2&#10;&#9;&#9;&#9;C1520.9,192,1523.8,189.2,1523.8,185.6z" transform="matrix(1, 0, 0, 1, 0, 0)"/><path fill="#FFFFFF" d="M1433.4,401.1c-8.4,0-8.4,13,0,13S1441.7,401.1,1433.4,401.1z" transform="matrix(1, 0, 0, 1, 0, 0)"/><path fill="#FFFFFF" d="M1883.3,233.1c-8.4,0-8.4,13,0,13S1891.6,233.1,1883.3,233.1z" transform="matrix(1, 0, 0, 1, 0, 0)"/><path fill="#FFFFFF" d="M1967.2,737c-8.4,0-8.4,13,0,13S1975.6,737,1967.2,737z" transform="matrix(1, 0, 0, 1, 0, 0)"/><path fill="#FFFFFF" d="M2549.1,713c-8.4,0-8.4,13,0,13S2557.5,713,2549.1,713z" transform="matrix(1, 0, 0, 1, 0, 0)"/><path fill="#FFFFFF" d="M2453.2,305.1c-8.4,0-8.4,13,0,13S2461.5,305.1,2453.2,305.1z" transform="matrix(1, 0, 0, 1, 0, 0)"/><path fill="#FFFFFF" d="M2567.1,1102.9c-8.4,0-8.4,13,0,13S2575.5,1102.9,2567.1,1102.9z" transform="matrix(1, 0, 0, 1, 0, 0)"/><path fill="#FFFFFF" d="M2099.2,1210.9c-8.4,0-8.4,13,0,13S2107.6,1210.9,2099.2,1210.9z" transform="matrix(1, 0, 0, 1, 0, 0)"/><path fill="#FFFFFF" d="M2237.2,791c-1.7,0-3.2,0.6-4.3,1.7c-2.5-0.9-5-1.6-7.7-1.7c-3.5-0.1-6.5,3.1-6.5,6.5c0,3.6,3,6.4,6.5,6.5&#10;&#9;&#9;&#9;c0.3,0,0.4,0,0.5,0c0.3,0.1,0.7,0.1,1,0.2c0.8,0.2,1.7,0.5,2.5,0.8c1.3,0.5,2.6,1.1,4.1,1.3c6.1,1,10.2-2.9,10.4-8.9&#10;&#9;&#9;&#9;C2243.8,793.9,2240.6,791,2237.2,791z" transform="matrix(1, 0, 0, 1, 0, 0)"/><path fill="#FFFFFF" d="M2273.2,1630.8h-12c-8.4,0-8.4,13,0,13h12C2281.6,1643.8,2281.6,1630.8,2273.2,1630.8z" transform="matrix(1, 0, 0, 1, 0, 0)"/><path fill="#FFFFFF" d="M2441.2,929h-12c-8.4,0-8.4,13,0,13h12C2449.5,942,2449.5,929,2441.2,929z" transform="matrix(1, 0, 0, 1, 0, 0)"/><path fill="#FFFFFF" d="M2105.2,557h-6c-3.5,0-6.5,3-6.5,6.5s3,6.5,6.5,6.5h6c3.5,0,6.5-3,6.5-6.5S2108.8,557,2105.2,557z" transform="matrix(1, 0, 0, 1, 0, 0)"/><path fill="#FFFFFF" d="M2373.8,2154.6c-2.5-2.5-6.7-2.5-9.2,0l-6,6c-2.5,2.5-2.5,6.7,0,9.2c2.5,2.5,6.7,2.5,9.2,0l6-6&#10;&#9;&#9;&#9;C2376.3,2161.3,2376.3,2157.1,2373.8,2154.6z" transform="matrix(1, 0, 0, 1, 0, 0)"/><path fill="#FFFFFF" d="M1331.4,1750.8c-8.4,0-8.4,13,0,13S1339.8,1750.8,1331.4,1750.8z" transform="matrix(1, 0, 0, 1, 0, 0)"/>
</svg>