<?xml version="1.0" encoding="utf-8"?>
<svg id="master-artboard" viewBox="0 0 1400 1400" data-name="Layer 1" xmlns="http://www.w3.org/2000/svg" width="1400px" height="1400px"><title>vector-letter-a-typography-in-geometric-retro-line-styles</title><path d="M152.67,399c-6.23-3.12-9.74-10.52-7.4-17.15L251.68,116c2.72-7,10.52-10.13,16.76-7.4a11.68,11.68,0,0,1,7.4,7.4l106,265.83a13.33,13.33,0,0,1-7,17.15c-6.63,2.34-14.43-.78-17.15-7.4L263.76,155l-93.94,236.6A13.89,13.89,0,0,1,152.67,399Zm56.13,0a13.34,13.34,0,0,1-7-17.15l9.36-23.77c2.34-4.68,7.4-8.19,12.08-8.19h80.69a13.47,13.47,0,0,1,12.47,9.36l9.35,22.6a13.7,13.7,0,0,1-7,17.15c-6.63,2.34-14.42-.39-17.15-7.4l-6.24-15.2H232.19l-6.63,15.2C223.22,398.24,215.82,401.36,208.8,399Zm23-88.09a12.72,12.72,0,0,1,12.86-12.86h18.71l-11.69-28.84c-2.34-6.63.78-14.42,7-16.76,7-2.73,14.42.39,17.15,6.62l19.1,46.78a10.73,10.73,0,0,1,1.17,5.06,13.48,13.48,0,0,1-13.64,13.26H244.66A13.06,13.06,0,0,1,231.8,310.93Z" fill="#0e88b7" transform="matrix(4.257794890444252, 0, 0, 4.257794890444252, -415.44216594763606, -352.35336132304036)"/><path d="M151.88,399c-6.24-3.12-9.75-10.52-7.41-17.15L250.88,116c2.73-7,10.52-10.13,16.76-7.4a11.67,11.67,0,0,1,7.41,7.4l106,265.83a13.34,13.34,0,0,1-7,17.15,13.73,13.73,0,0,1-17.15-7.4L263,155,169,391.62A13.9,13.9,0,0,1,151.88,399ZM208,399a13.33,13.33,0,0,1-7-17.15l9.35-23.77c2.34-4.68,7.41-8.19,12.09-8.19h80.68a13.46,13.46,0,0,1,12.47,9.36l9.36,22.6a13.69,13.69,0,0,1-7,17.15c-6.62,2.34-14.42-.39-17.15-7.4l-6.23-15.2H231.39l-6.62,15.2C222.43,398.24,215,401.36,208,399Zm23-88.09a12.73,12.73,0,0,1,12.86-12.86h18.71l-11.69-28.84c-2.34-6.63.78-14.42,7-16.76,7-2.73,14.42.39,17.15,6.62l19.1,46.78a10.73,10.73,0,0,1,1.17,5.06,13.49,13.49,0,0,1-13.65,13.26H243.86A13.07,13.07,0,0,1,231,310.93Z" fill="#0e88b7" transform="matrix(4.257794890444252, 0, 0, 4.257794890444252, -415.44216594763606, -352.35336132304036)"/><path d="M151.08,399c-6.23-3.12-9.74-10.52-7.4-17.15L250.09,116c2.72-7,10.52-10.13,16.76-7.4a11.68,11.68,0,0,1,7.4,7.4l106,265.83a13.33,13.33,0,0,1-7,17.15c-6.62,2.34-14.42-.78-17.15-7.4L262.17,155l-93.94,236.6A13.89,13.89,0,0,1,151.08,399Zm56.13,0a13.34,13.34,0,0,1-7-17.15l9.36-23.77c2.34-4.68,7.4-8.19,12.08-8.19h80.69a13.47,13.47,0,0,1,12.47,9.36l9.35,22.6a13.7,13.7,0,0,1-7,17.15c-6.63,2.34-14.42-.39-17.15-7.4l-6.24-15.2H230.6L224,391.62C221.63,398.24,214.23,401.36,207.21,399Zm23-88.09a12.72,12.72,0,0,1,12.86-12.86h18.71l-11.69-28.84c-2.34-6.63.77-14.42,7-16.76,7-2.73,14.42.39,17.15,6.62l19.1,46.78a10.73,10.73,0,0,1,1.17,5.06,13.48,13.48,0,0,1-13.64,13.26H243.07A13.06,13.06,0,0,1,230.21,310.93Z" fill="#0e88b7" transform="matrix(4.257794890444252, 0, 0, 4.257794890444252, -415.44216594763606, -352.35336132304036)"/><path d="M150.29,399c-6.24-3.12-9.75-10.52-7.41-17.15L249.29,116c2.73-7,10.52-10.13,16.76-7.4a11.67,11.67,0,0,1,7.41,7.4l106,265.83a13.33,13.33,0,0,1-7,17.15,13.73,13.73,0,0,1-17.15-7.4L261.37,155l-93.93,236.6A13.9,13.9,0,0,1,150.29,399Zm56.12,0a13.33,13.33,0,0,1-7-17.15l9.35-23.77c2.34-4.68,7.41-8.19,12.09-8.19h80.68A13.46,13.46,0,0,1,314,359.27l9.36,22.6a13.69,13.69,0,0,1-7,17.15c-6.63,2.34-14.42-.39-17.15-7.4l-6.24-15.2H229.8l-6.63,15.2C220.84,398.24,213.43,401.36,206.41,399Zm23-88.09a12.73,12.73,0,0,1,12.86-12.86H261l-11.69-28.84c-2.34-6.63.78-14.42,7-16.76,7-2.73,14.42.39,17.15,6.62l19.09,46.78a10.73,10.73,0,0,1,1.17,5.06,13.48,13.48,0,0,1-13.64,13.26H242.27A13.07,13.07,0,0,1,229.41,310.93Z" fill="#0e88b7" transform="matrix(4.257794890444252, 0, 0, 4.257794890444252, -415.44216594763606, -352.35336132304036)"/><path d="M149.49,399c-6.24-3.12-9.74-10.52-7.4-17.15L248.49,116c2.73-7,10.53-10.13,16.76-7.4a11.67,11.67,0,0,1,7.41,7.4l106,265.83a13.33,13.33,0,0,1-7,17.15c-6.62,2.34-14.42-.78-17.15-7.4L260.58,155l-93.94,236.6A13.89,13.89,0,0,1,149.49,399Zm56.13,0a13.33,13.33,0,0,1-7-17.15L208,358.1c2.34-4.68,7.4-8.19,12.08-8.19h80.68a13.47,13.47,0,0,1,12.48,9.36l9.35,22.6a13.7,13.7,0,0,1-7,17.15c-6.63,2.34-14.43-.39-17.15-7.4l-6.24-15.2H229l-6.63,15.2C220,398.24,212.63,401.36,205.62,399Zm23-88.09a12.72,12.72,0,0,1,12.86-12.86h18.71l-11.7-28.84c-2.33-6.63.78-14.42,7-16.76,7-2.73,14.42.39,17.15,6.62l19.1,46.78a10.73,10.73,0,0,1,1.17,5.06,13.48,13.48,0,0,1-13.64,13.26H241.48A13.06,13.06,0,0,1,228.62,310.93Z" fill="#0e88b7" transform="matrix(4.257794890444252, 0, 0, 4.257794890444252, -415.44216594763606, -352.35336132304036)"/><path d="M148.7,399c-6.24-3.12-9.75-10.52-7.41-17.15L247.7,116c2.73-7,10.52-10.13,16.76-7.4a11.64,11.64,0,0,1,7.4,7.4l106,265.83a13.33,13.33,0,0,1-7,17.15,13.73,13.73,0,0,1-17.15-7.4L259.78,155l-93.93,236.6A13.9,13.9,0,0,1,148.7,399Zm56.12,0a13.33,13.33,0,0,1-7-17.15l9.35-23.77c2.34-4.68,7.41-8.19,12.09-8.19h80.68a13.47,13.47,0,0,1,12.47,9.36l9.36,22.6a13.7,13.7,0,0,1-7,17.15c-6.63,2.34-14.42-.39-17.15-7.4l-6.24-15.2H228.21l-6.63,15.2C219.25,398.24,211.84,401.36,204.82,399Zm23-88.09a12.73,12.73,0,0,1,12.86-12.86h18.71L247.7,269.23c-2.34-6.63.78-14.42,7-16.76,7-2.73,14.43.39,17.15,6.62L291,305.87a10.73,10.73,0,0,1,1.17,5.06,13.48,13.48,0,0,1-13.64,13.26H240.68A13.07,13.07,0,0,1,227.82,310.93Z" fill="#0e88b7" transform="matrix(4.257794890444252, 0, 0, 4.257794890444252, -415.44216594763606, -352.35336132304036)"/><path d="M147.9,399c-6.24-3.12-9.74-10.52-7.41-17.15L246.9,116c2.73-7,10.53-10.13,16.76-7.4a11.67,11.67,0,0,1,7.41,7.4l106,265.83a13.33,13.33,0,0,1-7,17.15c-6.62,2.34-14.42-.78-17.15-7.4L259,155l-93.94,236.6A13.89,13.89,0,0,1,147.9,399ZM204,399a13.33,13.33,0,0,1-7-17.15l9.36-23.77c2.34-4.68,7.4-8.19,12.08-8.19h80.68a13.47,13.47,0,0,1,12.48,9.36l9.35,22.6a13.69,13.69,0,0,1-7,17.15c-6.62,2.34-14.42-.39-17.15-7.4l-6.23-15.2H227.41l-6.62,15.2C218.45,398.24,211,401.36,204,399Zm23-88.09a12.73,12.73,0,0,1,12.87-12.86H258.6l-11.7-28.84c-2.34-6.63.78-14.42,7-16.76,7-2.73,14.42.39,17.15,6.62l19.1,46.78a10.73,10.73,0,0,1,1.17,5.06,13.48,13.48,0,0,1-13.64,13.26H239.89A13.07,13.07,0,0,1,227,310.93Z" fill="#0e88b7" transform="matrix(4.257794890444252, 0, 0, 4.257794890444252, -415.44216594763606, -352.35336132304036)"/><path d="M147.1,399c-6.23-3.12-9.74-10.52-7.4-17.15L246.11,116c2.73-7,10.52-10.13,16.76-7.4a11.66,11.66,0,0,1,7.4,7.4l106,265.83a13.33,13.33,0,0,1-7,17.15,13.73,13.73,0,0,1-17.15-7.4L258.19,155l-93.94,236.6A13.89,13.89,0,0,1,147.1,399Zm56.13,0a13.33,13.33,0,0,1-7-17.15l9.35-23.77c2.34-4.68,7.41-8.19,12.08-8.19h80.69a13.47,13.47,0,0,1,12.47,9.36l9.36,22.6a13.7,13.7,0,0,1-7,17.15c-6.63,2.34-14.42-.39-17.15-7.4l-6.24-15.2H226.62L220,391.62C217.65,398.24,210.25,401.36,203.23,399Zm23-88.09a12.73,12.73,0,0,1,12.86-12.86H257.8l-11.69-28.84c-2.34-6.63.78-14.42,7-16.76,7-2.73,14.43.39,17.15,6.62l19.1,46.78a10.73,10.73,0,0,1,1.17,5.06,13.48,13.48,0,0,1-13.64,13.26H239.09A13.07,13.07,0,0,1,226.23,310.93Z" fill="#0e88b7" transform="matrix(4.257794890444252, 0, 0, 4.257794890444252, -415.44216594763606, -352.35336132304036)"/><path d="M146.31,399c-6.24-3.12-9.75-10.52-7.41-17.15L245.31,116c2.73-7,10.53-10.13,16.76-7.4a11.67,11.67,0,0,1,7.41,7.4l106,265.83a13.33,13.33,0,0,1-7,17.15c-6.62,2.34-14.42-.78-17.15-7.4L257.4,155l-93.94,236.6A13.89,13.89,0,0,1,146.31,399Zm56.13,0a13.33,13.33,0,0,1-7-17.15l9.36-23.77c2.33-4.68,7.4-8.19,12.08-8.19h80.68A13.45,13.45,0,0,1,310,359.27l9.36,22.6a13.69,13.69,0,0,1-7,17.15c-6.62,2.34-14.42-.39-17.15-7.4L289,376.42H225.82l-6.62,15.2C216.86,398.24,209.45,401.36,202.44,399Zm23-88.09a12.73,12.73,0,0,1,12.87-12.86H257l-11.7-28.84c-2.34-6.63.78-14.42,7-16.76,7-2.73,14.42.39,17.15,6.62l19.1,46.78a10.73,10.73,0,0,1,1.17,5.06,13.49,13.49,0,0,1-13.65,13.26H238.3A13.07,13.07,0,0,1,225.43,310.93Z" fill="#0e88b7" transform="matrix(4.257794890444252, 0, 0, 4.257794890444252, -415.44216594763606, -352.35336132304036)"/><path d="M145.51,399c-6.23-3.12-9.74-10.52-7.4-17.15L244.52,116c2.73-7,10.52-10.13,16.76-7.4a11.68,11.68,0,0,1,7.4,7.4l106,265.83a13.33,13.33,0,0,1-7,17.15c-6.63,2.34-14.43-.78-17.15-7.4L256.6,155l-93.94,236.6A13.89,13.89,0,0,1,145.51,399Zm56.13,0a13.33,13.33,0,0,1-7-17.15L204,358.1c2.34-4.68,7.41-8.19,12.08-8.19h80.69a13.47,13.47,0,0,1,12.47,9.36l9.35,22.6a13.7,13.7,0,0,1-7,17.15c-6.63,2.34-14.42-.39-17.15-7.4l-6.24-15.2H225l-6.63,15.2C216.06,398.24,208.66,401.36,201.64,399Zm23-88.09a12.72,12.72,0,0,1,12.86-12.86h18.71l-11.69-28.84c-2.34-6.63.78-14.42,7-16.76,7-2.73,14.42.39,17.15,6.62l19.1,46.78a10.73,10.73,0,0,1,1.17,5.06,13.48,13.48,0,0,1-13.64,13.26H237.5A13.06,13.06,0,0,1,224.64,310.93Z" fill="#0e88b7" transform="matrix(4.257794890444252, 0, 0, 4.257794890444252, -415.44216594763606, -352.35336132304036)"/><path d="M144.72,399c-6.24-3.12-9.75-10.52-7.41-17.15L243.72,116c2.73-7,10.53-10.13,16.76-7.4a11.67,11.67,0,0,1,7.41,7.4l106,265.83a13.34,13.34,0,0,1-7,17.15,13.73,13.73,0,0,1-17.15-7.4L255.8,155l-93.93,236.6A13.9,13.9,0,0,1,144.72,399Zm56.13,0a13.33,13.33,0,0,1-7-17.15l9.35-23.77c2.34-4.68,7.41-8.19,12.09-8.19H296a13.46,13.46,0,0,1,12.47,9.36l9.36,22.6a13.69,13.69,0,0,1-7,17.15c-6.62,2.34-14.42-.39-17.15-7.4l-6.23-15.2H224.23l-6.62,15.2C215.27,398.24,207.86,401.36,200.85,399Zm23-88.09a12.73,12.73,0,0,1,12.87-12.86h18.71l-11.7-28.84c-2.34-6.63.78-14.42,7-16.76,7-2.73,14.42.39,17.15,6.62L287,305.87a10.73,10.73,0,0,1,1.17,5.06,13.49,13.49,0,0,1-13.65,13.26h-37.8A13.07,13.07,0,0,1,223.84,310.93Z" fill="#0e88b7" transform="matrix(4.257794890444252, 0, 0, 4.257794890444252, -415.44216594763606, -352.35336132304036)"/><path d="M143.92,399c-6.23-3.12-9.74-10.52-7.4-17.15L242.93,116c2.72-7,10.52-10.13,16.76-7.4a11.68,11.68,0,0,1,7.4,7.4l106,265.83a13.33,13.33,0,0,1-7,17.15c-6.63,2.34-14.43-.78-17.15-7.4L255,155l-93.94,236.6A13.89,13.89,0,0,1,143.92,399Zm56.13,0a13.34,13.34,0,0,1-7-17.15l9.36-23.77c2.34-4.68,7.4-8.19,12.08-8.19h80.69a13.47,13.47,0,0,1,12.47,9.36l9.35,22.6A13.7,13.7,0,0,1,310,399c-6.63,2.34-14.42-.39-17.15-7.4l-6.24-15.2H223.44l-6.63,15.2C214.47,398.24,207.07,401.36,200.05,399Zm23-88.09a12.72,12.72,0,0,1,12.86-12.86h18.71l-11.69-28.84c-2.34-6.63.78-14.42,7-16.76,7-2.73,14.42.39,17.15,6.62l19.1,46.78a10.73,10.73,0,0,1,1.17,5.06,13.48,13.48,0,0,1-13.64,13.26H235.91A13.06,13.06,0,0,1,223.05,310.93Z" fill="#0e88b7" transform="matrix(4.257794890444252, 0, 0, 4.257794890444252, -415.44216594763606, -352.35336132304036)"/><path d="M143.13,399c-6.24-3.12-9.75-10.52-7.41-17.15L242.13,116c2.73-7,10.52-10.13,16.76-7.4a11.67,11.67,0,0,1,7.41,7.4l106,265.83a13.34,13.34,0,0,1-7,17.15,13.73,13.73,0,0,1-17.15-7.4L254.21,155l-93.93,236.6A13.9,13.9,0,0,1,143.13,399Zm56.13,0a13.33,13.33,0,0,1-7-17.15l9.35-23.77c2.34-4.68,7.41-8.19,12.09-8.19h80.68a13.46,13.46,0,0,1,12.47,9.36l9.36,22.6a13.69,13.69,0,0,1-7,17.15c-6.62,2.34-14.42-.39-17.15-7.4l-6.23-15.2H222.64L216,391.62C213.68,398.24,206.27,401.36,199.26,399Zm23-88.09a12.73,12.73,0,0,1,12.86-12.86h18.71l-11.69-28.84c-2.34-6.63.78-14.42,7-16.76,7-2.73,14.42.39,17.15,6.62l19.1,46.78a10.73,10.73,0,0,1,1.17,5.06,13.49,13.49,0,0,1-13.65,13.26H235.11A13.07,13.07,0,0,1,222.25,310.93Z" fill="#0e88b7" transform="matrix(4.257794890444252, 0, 0, 4.257794890444252, -415.44216594763606, -352.35336132304036)"/><path d="M142.33,399c-6.23-3.12-9.74-10.52-7.4-17.15L241.34,116c2.72-7,10.52-10.13,16.76-7.4a11.68,11.68,0,0,1,7.4,7.4l106,265.83a13.33,13.33,0,0,1-7,17.15c-6.62,2.34-14.42-.78-17.15-7.4L253.42,155l-93.94,236.6A13.89,13.89,0,0,1,142.33,399Zm56.13,0a13.34,13.34,0,0,1-7-17.15l9.36-23.77c2.34-4.68,7.4-8.19,12.08-8.19h80.69A13.47,13.47,0,0,1,306,359.27l9.35,22.6a13.7,13.7,0,0,1-7,17.15c-6.63,2.34-14.42-.39-17.15-7.4L285,376.42H221.85l-6.63,15.2C212.88,398.24,205.48,401.36,198.46,399Zm23-88.09a12.72,12.72,0,0,1,12.86-12.86H253l-11.69-28.84c-2.34-6.63.77-14.42,7-16.76,7-2.73,14.42.39,17.15,6.62l19.1,46.78a10.73,10.73,0,0,1,1.17,5.06,13.48,13.48,0,0,1-13.64,13.26H234.32A13.06,13.06,0,0,1,221.46,310.93Z" fill="#0e88b7" transform="matrix(4.257794890444252, 0, 0, 4.257794890444252, -415.44216594763606, -352.35336132304036)"/><path d="M141.54,399c-6.24-3.12-9.75-10.52-7.41-17.15L240.54,116c2.73-7,10.52-10.13,16.76-7.4a11.67,11.67,0,0,1,7.41,7.4l106,265.83a13.33,13.33,0,0,1-7,17.15,13.73,13.73,0,0,1-17.15-7.4L252.62,155l-93.93,236.6A13.9,13.9,0,0,1,141.54,399Zm56.12,0a13.33,13.33,0,0,1-7-17.15L200,358.1c2.34-4.68,7.41-8.19,12.09-8.19h80.68a13.46,13.46,0,0,1,12.47,9.36l9.36,22.6a13.69,13.69,0,0,1-7,17.15c-6.63,2.34-14.42-.39-17.15-7.4l-6.24-15.2H221.05l-6.63,15.2C212.09,398.24,204.68,401.36,197.66,399Zm23-88.09a12.73,12.73,0,0,1,12.86-12.86h18.71l-11.69-28.84c-2.34-6.63.78-14.42,7-16.76,7-2.73,14.42.39,17.15,6.62l19.09,46.78a10.73,10.73,0,0,1,1.17,5.06,13.48,13.48,0,0,1-13.64,13.26H233.52A13.07,13.07,0,0,1,220.66,310.93Z" fill="#0e88b7" transform="matrix(4.257794890444252, 0, 0, 4.257794890444252, -415.44216594763606, -352.35336132304036)"/><path d="M140.74,399c-6.24-3.12-9.74-10.52-7.4-17.15L239.74,116c2.73-7,10.53-10.13,16.76-7.4a11.67,11.67,0,0,1,7.41,7.4l106,265.83a13.33,13.33,0,0,1-7,17.15c-6.62,2.34-14.42-.78-17.15-7.4L251.83,155l-93.94,236.6A13.89,13.89,0,0,1,140.74,399Zm56.13,0a13.33,13.33,0,0,1-7-17.15l9.36-23.77c2.34-4.68,7.4-8.19,12.08-8.19H292a13.47,13.47,0,0,1,12.48,9.36l9.35,22.6a13.7,13.7,0,0,1-7,17.15c-6.63,2.34-14.43-.39-17.15-7.4l-6.24-15.2H220.26l-6.63,15.2C211.29,398.24,203.88,401.36,196.87,399Zm23-88.09a12.72,12.72,0,0,1,12.86-12.86h18.71l-11.7-28.84c-2.33-6.63.78-14.42,7-16.76,7-2.73,14.42.39,17.15,6.62L283,305.87a10.73,10.73,0,0,1,1.17,5.06,13.48,13.48,0,0,1-13.64,13.26H232.73A13.06,13.06,0,0,1,219.87,310.93Z" fill="#0e88b7" transform="matrix(4.257794890444252, 0, 0, 4.257794890444252, -415.44216594763606, -352.35336132304036)"/><path d="M140,399c-6.24-3.12-9.75-10.52-7.41-17.15L239,116c2.73-7,10.52-10.13,16.76-7.4a11.64,11.64,0,0,1,7.4,7.4l106,265.83a13.33,13.33,0,0,1-7,17.15,13.73,13.73,0,0,1-17.15-7.4L251,155,157.1,391.62A13.9,13.9,0,0,1,140,399Zm56.12,0a13.33,13.33,0,0,1-7-17.15l9.35-23.77c2.34-4.68,7.41-8.19,12.09-8.19h80.68a13.47,13.47,0,0,1,12.47,9.36l9.36,22.6A13.7,13.7,0,0,1,306,399c-6.63,2.34-14.42-.39-17.15-7.4l-6.24-15.2H219.46l-6.63,15.2C210.5,398.24,203.09,401.36,196.07,399Zm23-88.09a12.73,12.73,0,0,1,12.86-12.86h18.71L239,269.23c-2.34-6.63.78-14.42,7-16.76,7-2.73,14.43.39,17.15,6.62l19.1,46.78a10.73,10.73,0,0,1,1.17,5.06,13.48,13.48,0,0,1-13.64,13.26H231.93A13.07,13.07,0,0,1,219.07,310.93Z" fill="#0e88b7" transform="matrix(4.257794890444252, 0, 0, 4.257794890444252, -415.44216594763606, -352.35336132304036)"/><path d="M139.15,399c-6.24-3.12-9.74-10.52-7.41-17.15L238.15,116c2.73-7,10.53-10.13,16.76-7.4a11.67,11.67,0,0,1,7.41,7.4l106,265.83a13.33,13.33,0,0,1-7,17.15c-6.62,2.34-14.42-.78-17.15-7.4L250.24,155,156.3,391.62A13.89,13.89,0,0,1,139.15,399Zm56.13,0a13.33,13.33,0,0,1-7-17.15l9.36-23.77c2.34-4.68,7.4-8.19,12.08-8.19h80.68a13.47,13.47,0,0,1,12.48,9.36l9.35,22.6a13.69,13.69,0,0,1-7,17.15c-6.62,2.34-14.42-.39-17.15-7.4l-6.23-15.2H218.66L212,391.62C209.7,398.24,202.29,401.36,195.28,399Zm23-88.09a12.73,12.73,0,0,1,12.87-12.86h18.71l-11.7-28.84c-2.34-6.63.78-14.42,7-16.76,7-2.73,14.42.39,17.15,6.62l19.1,46.78a10.73,10.73,0,0,1,1.17,5.06A13.48,13.48,0,0,1,269,324.19H231.14A13.07,13.07,0,0,1,218.27,310.93Z" fill="#0e88b7" transform="matrix(4.257794890444252, 0, 0, 4.257794890444252, -415.44216594763606, -352.35336132304036)"/><path d="M138.35,399c-6.23-3.12-9.74-10.52-7.4-17.15L237.36,116c2.73-7,10.52-10.13,16.76-7.4a11.66,11.66,0,0,1,7.4,7.4l106,265.83a13.33,13.33,0,0,1-7,17.15,13.73,13.73,0,0,1-17.15-7.4L249.44,155,155.5,391.62A13.89,13.89,0,0,1,138.35,399Zm56.13,0a13.33,13.33,0,0,1-7-17.15l9.35-23.77c2.34-4.68,7.41-8.19,12.08-8.19h80.69a13.47,13.47,0,0,1,12.47,9.36l9.36,22.6a13.7,13.7,0,0,1-7,17.15c-6.63,2.34-14.42-.39-17.15-7.4L281,376.42H217.87l-6.63,15.2C208.9,398.24,201.5,401.36,194.48,399Zm23-88.09a12.73,12.73,0,0,1,12.86-12.86h18.71l-11.69-28.84c-2.34-6.63.78-14.42,7-16.76,7-2.73,14.43.39,17.15,6.62l19.1,46.78a10.73,10.73,0,0,1,1.17,5.06,13.48,13.48,0,0,1-13.64,13.26H230.34A13.07,13.07,0,0,1,217.48,310.93Z" fill="#0e88b7" transform="matrix(4.257794890444252, 0, 0, 4.257794890444252, -415.44216594763606, -352.35336132304036)"/><path d="M137.56,399c-6.24-3.12-9.75-10.52-7.41-17.15L236.56,116c2.73-7,10.53-10.13,16.76-7.4a11.67,11.67,0,0,1,7.41,7.4l106,265.83a13.33,13.33,0,0,1-7,17.15c-6.62,2.34-14.42-.78-17.15-7.4L248.65,155l-93.94,236.6A13.89,13.89,0,0,1,137.56,399Zm56.13,0a13.33,13.33,0,0,1-7-17.15L196,358.1c2.33-4.68,7.4-8.19,12.08-8.19h80.68a13.45,13.45,0,0,1,12.47,9.36l9.36,22.6a13.69,13.69,0,0,1-7,17.15c-6.62,2.34-14.42-.39-17.15-7.4l-6.23-15.2H217.07l-6.62,15.2C208.11,398.24,200.7,401.36,193.69,399Zm23-88.09a12.73,12.73,0,0,1,12.87-12.86h18.71l-11.7-28.84c-2.34-6.63.78-14.42,7-16.76,7-2.73,14.42.39,17.15,6.62l19.1,46.78a10.73,10.73,0,0,1,1.17,5.06,13.49,13.49,0,0,1-13.65,13.26h-37.8A13.07,13.07,0,0,1,216.68,310.93Z" fill="#0e88b7" transform="matrix(4.257794890444252, 0, 0, 4.257794890444252, -415.44216594763606, -352.35336132304036)"/><path d="M136.76,399c-6.23-3.12-9.74-10.52-7.4-17.15L235.77,116c2.73-7,10.52-10.13,16.76-7.4a11.68,11.68,0,0,1,7.4,7.4L366,381.87a13.33,13.33,0,0,1-7,17.15c-6.63,2.34-14.43-.78-17.15-7.4L247.85,155l-93.94,236.6A13.89,13.89,0,0,1,136.76,399Zm56.13,0a13.33,13.33,0,0,1-7-17.15l9.35-23.77c2.34-4.68,7.41-8.19,12.08-8.19H288a13.47,13.47,0,0,1,12.47,9.36l9.35,22.6a13.7,13.7,0,0,1-7,17.15c-6.63,2.34-14.42-.39-17.15-7.4l-6.24-15.2H216.28l-6.63,15.2C207.31,398.24,199.91,401.36,192.89,399Zm23-88.09a12.72,12.72,0,0,1,12.86-12.86h18.71l-11.69-28.84c-2.34-6.63.78-14.42,7-16.76,7-2.73,14.42.39,17.15,6.62L279,305.87a10.73,10.73,0,0,1,1.17,5.06,13.48,13.48,0,0,1-13.64,13.26H228.75A13.06,13.06,0,0,1,215.89,310.93Z" fill="#0e88b7" transform="matrix(4.257794890444252, 0, 0, 4.257794890444252, -415.44216594763606, -352.35336132304036)"/><path d="M136.76,399c-6.23-3.12-9.74-10.52-7.4-17.15L235.77,116c2.73-7,10.52-10.13,16.76-7.4a11.68,11.68,0,0,1,7.4,7.4L366,381.87a13.33,13.33,0,0,1-7,17.15c-6.63,2.34-14.43-.78-17.15-7.4L247.85,155l-93.94,236.6A13.89,13.89,0,0,1,136.76,399Zm56.13,0a13.33,13.33,0,0,1-7-17.15l9.35-23.77c2.34-4.68,7.41-8.19,12.08-8.19H288a13.47,13.47,0,0,1,12.47,9.36l9.35,22.6a13.7,13.7,0,0,1-7,17.15c-6.63,2.34-14.42-.39-17.15-7.4l-6.24-15.2H216.28l-6.63,15.2C207.31,398.24,199.91,401.36,192.89,399Zm23-88.09a12.72,12.72,0,0,1,12.86-12.86h18.71l-11.69-28.84c-2.34-6.63.78-14.42,7-16.76,7-2.73,14.42.39,17.15,6.62L279,305.87a10.73,10.73,0,0,1,1.17,5.06,13.48,13.48,0,0,1-13.64,13.26H228.75A13.06,13.06,0,0,1,215.89,310.93Z" fill="#fcfbdd" transform="matrix(4.257794780641336, 0, 0, 4.257794780641336, -415.4421378696743, -355.37571323232316)"/><path d="M298,402.24a15.46,15.46,0,0,1-14.57-9.76l-5.61-13.68h-60l-6,13.7c-2.77,7.7-11.42,11.56-19.73,8.79l-.26-.11c-7.9-3.71-11.43-12.4-8.21-20.22L193,357.22a1.63,1.63,0,0,1,.09-.19c2.75-5.51,8.73-9.51,14.21-9.51H288a15.84,15.84,0,0,1,14.72,10.93L312,381a.56.56,0,0,1,0,.12,16.14,16.14,0,0,1-8.25,20.1.85.85,0,0,1-.22.09A16.72,16.72,0,0,1,298,402.24ZM216.28,374h63.14a2.38,2.38,0,0,1,2.21,1.48l6.24,15.2c2.35,6.06,8.95,7.83,14,6.1a11.25,11.25,0,0,0,5.69-14.09l-9.33-22.54c0-.07-.05-.14-.07-.21A11.1,11.1,0,0,0,288,352.3H207.31c-3.68,0-7.92,2.9-9.9,6.77l-9.31,23.68a10.9,10.9,0,0,0,5.68,14.05c5.81,1.87,11.77-.74,13.62-6l.06-.16,6.63-15.2A2.39,2.39,0,0,1,216.28,374Zm-75,28.16a15.86,15.86,0,0,1-5.3-.92l-.27-.11c-7.48-3.74-11.25-12.56-8.59-20.08l0-.09L233.55,115.16a15.39,15.39,0,0,1,8.5-8.73,14.66,14.66,0,0,1,11.3,0,13.92,13.92,0,0,1,8.82,8.81L368.17,381c3.2,7.79-.32,16.48-8.22,20.19a.85.85,0,0,1-.22.09,16.14,16.14,0,0,1-20.15-8.74l-91.73-231-91.72,231-.06.13A16.42,16.42,0,0,1,141.27,402.19ZM247.85,152.64a2.38,2.38,0,0,1,2.22,1.5L344,390.74a11.31,11.31,0,0,0,14,6.07,10.92,10.92,0,0,0,5.72-14l-106-265.85c-.68-1.82-2.33-4.94-5.88-6a1.48,1.48,0,0,1-.27-.1,9.87,9.87,0,0,0-7.69,0,10.69,10.69,0,0,0-5.89,6.07l-106.4,265.8c-1.82,5.24.85,11.4,6.11,14.11a11.5,11.5,0,0,0,14-6.16l93.91-236.52A2.38,2.38,0,0,1,247.85,152.64Zm18.71,173.93H228.75a15.46,15.46,0,0,1-15.25-15.64,15.09,15.09,0,0,1,15.25-15.25h15.17l-10.36-25.56a.3.3,0,0,1,0-.1c-2.81-8,1-17,8.42-19.79,8-3.11,16.88.36,20.18,7.91l19.09,46.74a13.24,13.24,0,0,1,1.38,6.05A15.85,15.85,0,0,1,266.56,326.57Zm-37.81-26.11a10.37,10.37,0,0,0-10.48,10.47,10.69,10.69,0,0,0,10.48,10.87h37.81a11.08,11.08,0,0,0,11.26-10.87,8.47,8.47,0,0,0-.92-4c0-.05,0-.11-.08-.16L257.72,260c-2.25-5.14-8.44-7.49-14.07-5.3-4.93,1.85-7.55,8.23-5.65,13.69l11.67,28.79a2.39,2.39,0,0,1-2.21,3.29Z" fill="#323163" transform="matrix(4.174375874290101, 0, 0, 4.174375874290101, -391.1084824284073, -330.1843931391495)"/></svg>