<?xml version="1.0" encoding="utf-8"?>
<svg id="master-artboard" viewBox="0 0 1387.837890625 1373.2432861328125" version="1.1" xmlns="http://www.w3.org/2000/svg" x="0px" y="0px" style="enable-background:new 0 0 1400 1400;" width="1387.837890625px" height="1373.2432861328125px"><defs><linearGradient id="gradient-0" gradientUnits="userSpaceOnUse" x1="1022.6403503417969" y1="270.0999450683594" x2="1022.6403503417969" y2="1129.9998474121094">
                <stop offset="0" style="stop-color: #11004f"/>
                <stop offset="1" style="stop-color: #000000"/>
              </linearGradient><linearGradient id="gradient-1" gradientUnits="userSpaceOnUse" x1="592.0499572753906" y1="952" x2="592.0499572753906" y2="1130">
                <stop offset="0" style="stop-color: #11004f"/>
                <stop offset="1" style="stop-color: #000000"/>
              </linearGradient><linearGradient id="gradient-2" gradientUnits="userSpaceOnUse" x1="699.9917297363281" y1="270" x2="699.9917297363281" y2="1130" gradientTransform="matrix(0.9997493797952036, -0.022390305841836405, 0.013956546069603977, 0.6231725153538069, -7.0221408582712215, 496.35749821124915)">
                <stop offset="0" style="stop-color: #1d0366"/>
                <stop offset="1" style="stop-color: #010003"/>
              </linearGradient><linearGradient id="gradient-3" gradientUnits="userSpaceOnUse" x1="599.4000244140625" y1="380.79998779296875" x2="599.4000244140625" y2="442.79998779296875">
                <stop offset="0" style="stop-color: #12dddd"/>
                <stop offset="1" style="stop-color: #0a7f7f"/>
              </linearGradient><linearGradient id="gradient-4" gradientUnits="userSpaceOnUse" x1="447.20001220703125" y1="480" x2="447.20001220703125" y2="542">
                <stop offset="0" style="stop-color: #ff005d"/>
                <stop offset="1" style="stop-color: #990038"/>
              </linearGradient><linearGradient id="gradient-5" gradientUnits="userSpaceOnUse" x1="588.9000244140625" y1="270" x2="588.9000244140625" y2="311">
                <stop offset="0" style="stop-color: #fcc615"/>
                <stop offset="1" style="stop-color: #a98202"/>
              </linearGradient><linearGradient id="gradient-6" gradientUnits="userSpaceOnUse" x1="392.29998779296875" y1="930.4000244140625" x2="392.29998779296875" y2="992.4000244140625">
                <stop offset="0" style="stop-color: #ff005d"/>
                <stop offset="1" style="stop-color: #990038"/>
              </linearGradient><linearGradient id="gradient-7" gradientUnits="userSpaceOnUse" x1="888.5999755859375" y1="1039.39990234375" x2="888.5999755859375" y2="1130" gradientTransform="matrix(0.9999990463256836, 6.395948730641976e-7, 2.038415821367956e-8, 0.8107437722707007, -1.7138668173282208, 213.85894152639918)">
                <stop offset="0" style="stop-color: #11004f"/>
                <stop offset="1" style="stop-color: #000000"/>
              </linearGradient><linearGradient id="gradient-8" gradientUnits="userSpaceOnUse" x1="359.1000061035156" y1="645.199951171875" x2="359.1000061035156" y2="735">
                <stop offset="0" style="stop-color: #fcc615"/>
                <stop offset="1" style="stop-color: #a98202"/>
              </linearGradient><linearGradient id="gradient-9" gradientUnits="userSpaceOnUse" x1="681.5999755859375" y1="287.3999938964844" x2="681.5999755859375" y2="320.1999816894531">
                <stop offset="0" style="stop-color: #6251a8"/>
                <stop offset="1" style="stop-color: #3a3063"/>
              </linearGradient><linearGradient id="gradient-10" gradientUnits="userSpaceOnUse" x1="760.5499877929688" y1="287.4000244140625" x2="760.5499877929688" y2="320.20001220703125">
                <stop offset="0" style="stop-color: #6251a8"/>
                <stop offset="1" style="stop-color: #3a3063"/>
              </linearGradient><linearGradient id="gradient-11" gradientUnits="userSpaceOnUse" x1="552.7000122070312" y1="474.1000061035156" x2="552.7000122070312" y2="506.8999938964844">
                <stop offset="0" style="stop-color: #6251a8"/>
                <stop offset="1" style="stop-color: #3a3063"/>
              </linearGradient><linearGradient id="gradient-12" gradientUnits="userSpaceOnUse" x1="631.5499877929688" y1="474.1000061035156" x2="631.5499877929688" y2="506.8999938964844">
                <stop offset="0" style="stop-color: #6251a8"/>
                <stop offset="1" style="stop-color: #3a3063"/>
              </linearGradient><linearGradient id="gradient-13" gradientUnits="userSpaceOnUse" x1="474.29998779296875" y1="648.199951171875" x2="474.29998779296875" y2="681">
                <stop offset="0" style="stop-color: #6251a8"/>
                <stop offset="1" style="stop-color: #3a3063"/>
              </linearGradient><linearGradient id="gradient-14" gradientUnits="userSpaceOnUse" x1="541.5000152587891" y1="648.199951171875" x2="541.5000152587891" y2="681">
                <stop offset="0" style="stop-color: #6251a8"/>
                <stop offset="1" style="stop-color: #3a3063"/>
              </linearGradient><linearGradient id="gradient-15" gradientUnits="userSpaceOnUse" x1="314.6000061035156" y1="829.2999877929688" x2="314.6000061035156" y2="862.1000366210938">
                <stop offset="0" style="stop-color: #6251a8"/>
                <stop offset="1" style="stop-color: #3a3063"/>
              </linearGradient><linearGradient id="gradient-16" gradientUnits="userSpaceOnUse" x1="381.70050048828125" y1="829.3999633789062" x2="381.70050048828125" y2="862.2000122070312">
                <stop offset="0" style="stop-color: #6251a8"/>
                <stop offset="1" style="stop-color: #3a3063"/>
              </linearGradient><linearGradient id="gradient-17" gradientUnits="userSpaceOnUse" x1="331" y1="1032.5" x2="331" y2="1065.300048828125">
                <stop offset="0" style="stop-color: #6251a8"/>
                <stop offset="1" style="stop-color: #3a3063"/>
              </linearGradient><linearGradient id="gradient-18" gradientUnits="userSpaceOnUse" x1="398.1999969482422" y1="1032.5999755859375" x2="398.1999969482422" y2="1065.4000244140625">
                <stop offset="0" style="stop-color: #6251a8"/>
                <stop offset="1" style="stop-color: #3a3063"/>
              </linearGradient></defs><rect id="ee-background" x="0" y="0" width="1387.837890625" height="1373.2432861328125" style="fill: white; fill-opacity: 0; pointer-events: none;"/>


<g id="XMLID_2_" transform="matrix(1.4186048002229654, 0, 0, 1.4186048002229654, -312.6248127094597, -295.45572179758165)">
		<g id="XMLID_32_">
			<path id="XMLID_34_" class="st1" d="M1161.9,1031.7l-132.6-697.2c-7.1-37.4-39.8-64.4-77.8-64.4h-69.6c38.1,0,70.7,27,77.8,64.4&#10;&#9;&#9;&#9;&#9;l132.6,697.2c7.4,38.7-13.4,75.3-46.5,90.7c10.6,4.9,22.4,7.6,34.8,7.6h0C1132.4,1130,1171.6,1082.7,1161.9,1031.7z" style="fill: url('#gradient-0'); stroke-opacity: 1; stroke: rgb(0, 0, 0); stroke-width: 0; fill-opacity: 1;"/>
			<path id="XMLID_33_" class="st1" d="M586.6,993.7l-41.9,84.2c-15.9,31.9-48.5,52.1-84.2,52.1h69.6h0c35.7,0,68.3-20.2,84.2-52.1&#10;&#9;&#9;&#9;&#9;l41.9-84.2C669,968.1,695,952,723.6,952h-69.6C625.4,952,599.3,968.1,586.6,993.7z" style="fill: url('#gradient-1'); stroke-opacity: 1; stroke: rgb(0, 0, 0); stroke-width: 0; fill-opacity: 1;"/>
		</g>
		
		<path d="M 630.400024 411.799988 A 31 31 0 0 1 599.400024 442.799988 A 31 31 0 0 1 568.400024 411.799988 A 31 31 0 0 1 599.400024 380.799988 A 31 31 0 0 1 630.400024 411.799988 Z" id="XMLID_26_" class="st3" style="fill: url('#gradient-3'); stroke-opacity: 1; stroke: rgb(0, 0, 0); stroke-width: 0; fill-opacity: 1;"/>
		<path d="M 478.200012 511 A 31 31 0 0 1 447.200012 542 A 31 31 0 0 1 416.200012 511 A 31 31 0 0 1 447.200012 480 A 31 31 0 0 1 478.200012 511 Z" id="XMLID_23_" class="st4" style="fill: url('#gradient-4'); stroke-opacity: 1; stroke: rgb(0, 0, 0); stroke-width: 0; fill-opacity: 1;"/>
		<path d="M 609.400024 290.5 A 20.5 20.5 0 0 1 588.900024 311 A 20.5 20.5 0 0 1 568.400024 290.5 A 20.5 20.5 0 0 1 588.900024 270 A 20.5 20.5 0 0 1 609.400024 290.5 Z" id="XMLID_20_" class="st5" style="fill: url('#gradient-5'); stroke-opacity: 1; stroke: rgb(0, 0, 0); stroke-width: 0; fill-opacity: 1;"/>
		<path d="M 423.299988 961.400024 A 31 31 0 0 1 392.299988 992.400024 A 31 31 0 0 1 361.299988 961.400024 A 31 31 0 0 1 392.299988 930.400024 A 31 31 0 0 1 423.299988 961.400024 Z" id="XMLID_17_" class="st4" style="fill: url('#gradient-6'); stroke-opacity: 1; stroke: rgb(0, 0, 0); stroke-width: 0; fill-opacity: 1;"/>
		<path d="M 933.899975 1084.699951 A 45.299999 45.299999 0 0 1 888.599976 1129.99995 A 45.299999 45.299999 0 0 1 843.299976 1084.699951 A 45.299999 45.299999 0 0 1 888.599976 1039.399952 A 45.299999 45.299999 0 0 1 933.899975 1084.699951 Z" id="XMLID_16_" class="st1" style="fill: url('#gradient-7'); stroke-opacity: 1; stroke: rgb(0, 0, 0); stroke-width: 0; fill-opacity: 1;" transform="matrix(1, 0, 0, 1, -8.573326885852453, 2.842170943040401e-14)"/>
		<path d="M 404.000008 690.099976 A 44.900002 44.900002 0 0 1 359.100006 734.999977 A 44.900002 44.900002 0 0 1 314.200005 690.099976 A 44.900002 44.900002 0 0 1 359.100006 645.199974 A 44.900002 44.900002 0 0 1 404.000008 690.099976 Z" id="XMLID_13_" class="st5" style="fill: url('#gradient-8'); stroke-opacity: 1; stroke: rgb(0, 0, 0); stroke-width: 0; fill-opacity: 1;"/>
		<path d="M 697.999975 303.799988 A 16.4 16.4 0 0 1 681.599976 320.199987 A 16.4 16.4 0 0 1 665.199976 303.799988 A 16.4 16.4 0 0 1 681.599976 287.399988 A 16.4 16.4 0 0 1 697.999975 303.799988 Z" id="XMLID_12_" class="st6" style="fill: url('#gradient-9'); stroke-opacity: 1; stroke: rgb(0, 0, 0); stroke-width: 0; fill-opacity: 1;"/>
		<path id="XMLID_11_" class="st6" d="M795.6,320.2h-70.1c-9.1,0-16.4-7.4-16.4-16.4v0c0-9.1,7.4-16.4,16.4-16.4h70.1&#10;&#9;&#9;&#9;c9.1,0,16.4,7.4,16.4,16.4v0C812,312.9,804.6,320.2,795.6,320.2z" style="fill: url('#gradient-10'); stroke-opacity: 1; stroke: rgb(0, 0, 0); stroke-width: 0; fill-opacity: 1;"/>
		<path d="M 569.100012 490.5 A 16.4 16.4 0 0 1 552.700012 506.9 A 16.4 16.4 0 0 1 536.300013 490.5 A 16.4 16.4 0 0 1 552.700012 474.1 A 16.4 16.4 0 0 1 569.100012 490.5 Z" id="XMLID_10_" class="st6" style="fill: url('#gradient-11'); stroke-opacity: 1; stroke: rgb(0, 0, 0); stroke-width: 0; fill-opacity: 1;"/>
		<path id="XMLID_9_" class="st6" d="M666.6,506.9h-70.1c-9.1,0-16.4-7.4-16.4-16.4v0c0-9.1,7.4-16.4,16.4-16.4h70.1&#10;&#9;&#9;&#9;c9.1,0,16.4,7.4,16.4,16.4v0C683,499.5,675.7,506.9,666.6,506.9z" style="fill: url('#gradient-12'); stroke-opacity: 1; stroke: rgb(0, 0, 0); stroke-width: 0; fill-opacity: 1;"/>
		<path d="M 490.699987 664.599976 A 16.4 16.4 0 0 1 474.299988 680.999975 A 16.4 16.4 0 0 1 457.899988 664.599976 A 16.4 16.4 0 0 1 474.299988 648.199976 A 16.4 16.4 0 0 1 490.699987 664.599976 Z" id="XMLID_8_" class="st6" style="fill: url('#gradient-13'); stroke-opacity: 1; stroke: rgb(0, 0, 0); stroke-width: 0; fill-opacity: 1;"/>
		<path id="XMLID_7_" class="st6" d="M564.8,681h-46.6c-9.1,0-16.4-7.4-16.4-16.4l0,0c0-9.1,7.4-16.4,16.4-16.4h46.6&#10;&#9;&#9;&#9;c9.1,0,16.4,7.4,16.4,16.4l0,0C581.2,673.7,573.8,681,564.8,681z" style="fill: url('#gradient-14'); stroke-opacity: 1; stroke: rgb(0, 0, 0); stroke-width: 0; fill-opacity: 1;"/>
		<path d="M 331.000006 845.700012 A 16.4 16.4 0 0 1 314.600006 862.100012 A 16.4 16.4 0 0 1 298.200006 845.700012 A 16.4 16.4 0 0 1 314.600006 829.300013 A 16.4 16.4 0 0 1 331.000006 845.700012 Z" id="XMLID_6_" class="st6" style="fill: url('#gradient-15'); stroke-opacity: 1; stroke: rgb(0, 0, 0); stroke-width: 0; fill-opacity: 1;"/>
		<path id="XMLID_5_" class="st6" d="M405,862.2h-46.6c-9.1,0-16.4-7.4-16.4-16.4l0,0c0-9.1,7.4-16.4,16.4-16.4H405&#10;&#9;&#9;&#9;c9.1,0,16.4,7.4,16.4,16.4l0,0C421.5,854.8,414.1,862.2,405,862.2z" style="fill: url('#gradient-16'); stroke-opacity: 1; stroke: rgb(0, 0, 0); stroke-width: 0; fill-opacity: 1;"/>
		<path d="M 347.4 1048.900024 A 16.4 16.4 0 0 1 331 1065.300024 A 16.4 16.4 0 0 1 314.6 1048.900024 A 16.4 16.4 0 0 1 331 1032.500025 A 16.4 16.4 0 0 1 347.4 1048.900024 Z" id="XMLID_4_" class="st6" style="fill: url('#gradient-17'); stroke-opacity: 1; stroke: rgb(0, 0, 0); stroke-width: 0; fill-opacity: 1;"/>
		<path id="XMLID_3_" class="st6" d="M421.5,1065.4h-46.6c-9.1,0-16.4-7.3-16.4-16.4l0,0c0-9.1,7.4-16.4,16.4-16.4h46.6&#10;&#9;&#9;&#9;c9.1,0,16.4,7.3,16.4,16.4l0,0C437.9,1058,430.5,1065.4,421.5,1065.4z" style="fill: url('#gradient-18'); stroke-opacity: 1; stroke: rgb(0, 0, 0); stroke-width: 0; fill-opacity: 1;"/>
	<path id="XMLID_29_" class="st2" d="M 1050.5 1130 L 1050.5 1130 C 1102.5 1130 1172.464013671875 1087.84404296875 1162.764013671875 1036.84404296875 L 1028.5493530273438 326.68402709960935 C 1021.4493530273437 289.2840270996094 996.8939453125 268.28533935546875 958.8939453125 268.28533935546875 L 827.2 270 L 694.7 270 C 659 270 630 299 630 334.7 L 630 334.7 C 630 370.4 659 399.4 694.7 399.4 L 693.2 399.4 C 716.5 399.4 731.4000000000001 424.29999999999995 720.5 444.79999999999995 L 720.5 444.79999999999995 C 715.1 454.9 704.7 461.09999999999997 693.2 461.09999999999997 L 548.1 461.09999999999997 C 521.7 461.09999999999997 500.3 482.49999999999994 500.3 508.9 L 500.3 508.9 C 500.3 535.3 521.7 556.6999999999999 548.1 556.6999999999999 L 571.4 556.6999999999999 C 599.6 556.6999999999999 617.5 586.6999999999999 604.3 611.4999999999999 L 604.3 611.4999999999999 C 597.8 623.5999999999999 585.1999999999999 631.1999999999999 571.4 631.1999999999999 L 482.9 631.1999999999999 C 450.7 631.1999999999999 424.59999999999997 657.3 424.59999999999997 689.4999999999999 L 424.59999999999997 689.4999999999999 C 424.59999999999997 721.6999999999999 450.7 747.7999999999998 482.9 747.7999999999998 L 480.59999999999997 747.7999999999998 C 505.2 747.7999999999998 521 774.0999999999998 509.4 795.7999999999998 L 509.4 795.7999999999998 C 503.7 806.3999999999999 492.7 813.0999999999998 480.59999999999997 813.0999999999998 L 314.4 813.0999999999998 C 288 813.0999999999998 266.59999999999997 834.4999999999998 266.59999999999997 860.8999999999997 L 266.59999999999997 860.8999999999997 C 266.59999999999997 887.2999999999997 287.99999999999994 908.6999999999997 314.4 908.6999999999997 L 399.29999999999995 908.6999999999997 C 438.59999999999997 908.6999999999997 463.69999999999993 950.5999999999997 445.19999999999993 985.2999999999997 L 445.19999999999993 985.2999999999997 C 436.0999999999999 1002.2999999999997 418.49999999999994 1012.7999999999997 399.29999999999995 1012.7999999999997 L 343.19999999999993 1012.7999999999997 C 310.79999999999995 1012.7999999999997 284.5999999999999 1039.0999999999997 284.5999999999999 1071.3999999999996 L 284.5999999999999 1071.3999999999996 C 284.5999999999999 1103.7999999999997 310.8999999999999 1129.9999999999995 343.19999999999993 1129.9999999999995 L 367.8999999999999 1129.9999999999995 L 500.29999999999995 1129.9999999999995 L 500.29999999999995 1129.9999999999995 C 536 1129.9999999999995 568.5999999999999 1109.7999999999995 584.5 1077.8999999999996 L 636.6879638671875 1014.2759887695308 C 654.5319213867188 990.4906616210938 660.0559570312499 958.8586425781245 688.5559570312499 958.8586425781245 L 926.0999999999999 951.9999999999995 C 938.0999999999999 951.9999999999995 948.3 960.7999999999995 950.1999999999999 972.6999999999996 L 969.4999999999999 1064.2999999999995 C 977.6 1102.6 1011.4 1130 1050.5 1130 Z M 729.9 784.9 L 853.1999999999999 536.5 C 860.4 521.9 882.1999999999999 525.3 884.5999999999999 541.4 L 897.1999999999999 624.8 L 916.8 754.0999999999999 L 919.5999999999999 772.8999999999999 C 922.4999999999999 791.7999999999998 907.8 808.8999999999999 888.5999999999999 808.8999999999999 L 744.8 808.8999999999999 C 732.4 809 724.4 796 729.9 784.9 Z" style="fill: url('#gradient-2'); stroke-opacity: 1; stroke: rgb(0, 0, 0); stroke-width: 0; fill-opacity: 1;"/><path style="fill: rgb(255, 255, 255); fill-opacity: 1; stroke: rgb(0, 0, 0); stroke-opacity: 1; stroke-width: 0; paint-order: stroke;"/><path d="M 1417.4732666015625 382.14385986328125" style="fill: rgb(255, 255, 255); fill-opacity: 1; stroke: rgb(0, 0, 0); stroke-opacity: 1; stroke-width: 0; paint-order: stroke;"/></g>

</svg>