<?xml version="1.0" encoding="utf-8"?>
<svg id="master-artboard" viewBox="0 0 595.3 595.3" version="1.1" xmlns="http://www.w3.org/2000/svg" x="0px" y="0px" width="595.2999877929688px" height="595.2999877929688px" enable-background="new 0 0 595.3 595.3" xmlns:xlink="http://www.w3.org/1999/xlink"><rect id="ee-background" x="0" y="0" width="595.2999877929688" height="595.2999877929688" style="fill: white; fill-opacity: 0; pointer-events: none;"/>
<radialGradient id="SVGID_1_" cx="297.64" cy="297.64" r="444.1083" gradientUnits="userSpaceOnUse">
	<stop offset="0" style="stop-color:#FFFFFF"/>
	<stop offset="1" style="stop-color:#C7D6FF"/>
</radialGradient>


<g>
	<path fill="#1E6EFF" d="M370.2,565.1h139l-144-534.9H230L86,565.1h139l17.6-65.5h110L370.2,565.1z M272.4,389.1l25.2-93.8&#10;&#9;&#9;l25.2,93.8H272.4z" style="fill-opacity: 1; stroke-opacity: 1; stroke: rgb(0, 0, 0); stroke-width: 0;"/>
	<g>
		<defs>
			<path id="SVGID_4_" d="M370.2,565.1h139l-144-534.9H230L86,565.1h139l17.6-65.5h110L370.2,565.1z M272.4,389.1l25.2-93.8&#10;&#9;&#9;&#9;&#9;l25.2,93.8H272.4z"/>
		</defs>
		<clipPath id="SVGID_2_">
			<use overflow="visible" xlink:href="#SVGID_4_"/>
		</clipPath>
		<g clip-path="url(#SVGID_2_)">
			<path fill="#92A3E9" d="M326.8,401.7c4,0.4,8.1,0.6,12.3,0.6c4.2,0,8.3-0.2,12.4-0.6c3.6-7.1,6.5-14.6,8.6-22.4&#10;&#9;&#9;&#9;&#9;C350.4,388.5,339.1,396.1,326.8,401.7z" style="fill-opacity: 1; stroke-opacity: 1; stroke: rgb(0, 0, 0); stroke-width: 0;"/>
			<path fill="#92A3E9" d="M162.2,126.7c28.6-32.5,66-57.1,108.5-70c-94.4,2.6-175,60.9-210,143.2&#10;&#9;&#9;&#9;&#9;C87.1,167.2,122.1,141.6,162.2,126.7z" style="fill-opacity: 1; stroke-opacity: 1; stroke: rgb(0, 0, 0); stroke-width: 0;"/>
			<path fill="#35A0FE" d="M285.3,389.6c5.1,7.3,11,14,17.6,20c8.3-1.8,16.3-4.5,23.9-7.9C312,400.2,298,395.9,285.3,389.6z" style="fill-opacity: 1; stroke-opacity: 1; stroke: rgb(0, 0, 0); stroke-width: 0;"/>
			<path fill="#35A0FE" d="M389.7,85.1c45.8,1.2,88.4,15.4,124.1,39.2c-43.1-47.7-105.4-77.6-174.7-77.6c-23.8,0-46.7,3.5-68.4,10.1&#10;&#9;&#9;&#9;&#9;c2.2-0.1,4.4-0.1,6.7-0.1C318,56.7,356.3,67,389.7,85.1z" style="fill-opacity: 1; stroke-opacity: 1; stroke: rgb(0, 0, 0); stroke-width: 0;"/>
			<path fill="#3CBBFF" d="M162.2,126.7c14.3-5.3,29.2-9.2,44.6-11.7c30.8-14.8,65.2-23,101.6-23c5.4,0,10.7,0.2,16,0.6&#10;&#9;&#9;&#9;&#9;c18.9-4.9,38.7-7.5,59.1-7.5c2,0,4,0,6,0.1C356.3,67,318,56.7,277.4,56.7c-2.2,0-4.5,0-6.7,0.1&#10;&#9;&#9;&#9;&#9;C228.2,69.7,190.8,94.2,162.2,126.7z" style="fill-opacity: 1; stroke-opacity: 1; stroke: rgb(0, 0, 0); stroke-width: 0;"/>
			<path fill="#3CBBFF" d="M326.8,401.7c-7.6,3.4-15.6,6.1-23.9,7.9c8.7,7.9,18.6,14.5,29.4,19.6c7.6-8.2,14.1-17.5,19.2-27.5&#10;&#9;&#9;&#9;&#9;c-4.1,0.4-8.2,0.6-12.4,0.6C334.9,402.3,330.8,402.1,326.8,401.7z" style="fill-opacity: 1; stroke-opacity: 1; stroke: rgb(0, 0, 0); stroke-width: 0;"/>
			<path fill="#4A3ECC" d="M42,292.8c0-0.3,0-0.5,0-0.8c0-32.7,6.7-63.8,18.7-92.1c-32.5,40.4-52,91.7-52,147.5&#10;&#9;&#9;&#9;&#9;c0,22.1,3.1,43.5,8.8,63.8c-0.2-4.3-0.4-8.7-0.4-13.1C17.1,360.3,26.1,324.5,42,292.8z" style="fill-opacity: 1; stroke-opacity: 1; stroke: rgb(0, 0, 0); stroke-width: 0;"/>
			<path fill="#2E3ECC" d="M360.1,379.3c3.3-3.1,6.3-6.3,9.2-9.8c-1.3-5.4-3-10.7-5.1-15.9C363.7,362.5,362.3,371.1,360.1,379.3z" style="fill-opacity: 1; stroke-opacity: 1; stroke: rgb(0, 0, 0); stroke-width: 0;"/>
			<path fill="#615DEF" d="M360.1,379.3c-2.1,7.8-5,15.3-8.6,22.4c7.3-0.7,14.4-2.2,21.3-4.2c-0.1-9.6-1.3-19-3.4-27.9&#10;&#9;&#9;&#9;&#9;C366.4,373,363.3,376.2,360.1,379.3z" style="fill-opacity: 1; stroke-opacity: 1; stroke: rgb(0, 0, 0); stroke-width: 0;"/>
			<path fill="#615DEF" d="M42,292.8c14.1-28.1,33.6-53,57.2-73.2c8.4-16.3,18.7-31.5,30.6-45.4c8.9-17.2,19.8-33.1,32.4-47.5&#10;&#9;&#9;&#9;&#9;c-40.2,14.9-75.1,40.5-101.5,73.2C48.7,228.2,42,259.4,42,292C42,292.3,42,292.6,42,292.8z" style="fill-opacity: 1; stroke-opacity: 1; stroke: rgb(0, 0, 0); stroke-width: 0;"/>
			<path fill="#286BFF" d="M206.9,115c-15.4,2.5-30.4,6.4-44.6,11.7c-12.6,14.4-23.6,30.3-32.4,47.5&#10;&#9;&#9;&#9;&#9;C151,149.5,177.2,129.3,206.9,115z" style="fill-opacity: 1; stroke-opacity: 1; stroke: rgb(0, 0, 0); stroke-width: 0;"/>
			<path fill="#286BFF" d="M372.7,397.5c-6.9,2-14,3.4-21.3,4.2c-5.1,10.1-11.6,19.3-19.2,27.5c7.7,3.6,15.8,6.5,24.3,8.4&#10;&#9;&#9;&#9;&#9;c3.9-1.7,7.7-3.6,11.3-5.7c3.1-10.7,4.8-22,4.8-33.7C372.8,398,372.7,397.7,372.7,397.5z" style="fill-opacity: 1; stroke-opacity: 1; stroke: rgb(0, 0, 0); stroke-width: 0;"/>
			<path fill="#38D8FF" d="M271.1,113.6c16.7-9.1,34.6-16.2,53.4-21.1c-5.3-0.4-10.6-0.6-16-0.6c-36.4,0-70.9,8.3-101.6,23&#10;&#9;&#9;&#9;&#9;c12.1-1.9,24.6-2.9,37.2-2.9C253.2,112.1,262.3,112.6,271.1,113.6z" style="fill-opacity: 1; stroke-opacity: 1; stroke: rgb(0, 0, 0); stroke-width: 0;"/>
			<path fill="#5CA1FD" d="M129.8,174.2c-11.9,13.8-22.1,29-30.6,45.4c5.4-4.7,11.1-9.1,16.9-13.2&#10;&#9;&#9;&#9;&#9;C119.9,195.2,124.5,184.5,129.8,174.2z" style="fill-opacity: 1; stroke-opacity: 1; stroke: rgb(0, 0, 0); stroke-width: 0;"/>
			<path fill="#79B5E9" d="M365.5,439.3c0.9-2.4,1.7-4.9,2.4-7.4c-3.7,2.1-7.4,4-11.3,5.7C359.5,438.3,362.5,438.9,365.5,439.3z" style="fill-opacity: 1; stroke-opacity: 1; stroke: rgb(0, 0, 0); stroke-width: 0;"/>
			<path fill="#25AAFF" d="M182.5,173.4c10.3-6.6,21.2-12.4,32.6-17.3c16.4-16.8,35.3-31.2,56-42.5c-8.9-1-17.9-1.6-27-1.6&#10;&#9;&#9;&#9;&#9;c-12.7,0-25.1,1-37.2,2.9c-29.7,14.2-55.9,34.5-77.1,59.2c-5.3,10.3-9.9,21-13.7,32.1C136.1,192.1,158.5,180.9,182.5,173.4z" style="fill-opacity: 1; stroke-opacity: 1; stroke: rgb(0, 0, 0); stroke-width: 0;"/>
			<path fill="#C981F1" d="M285.3,389.6c-13.8-19.6-21.9-43.4-21.9-69.1c0-2,0.1-4,0.2-6c-9.9,10.2-18,22.1-23.9,35.3&#10;&#9;&#9;&#9;&#9;C251.2,366.6,266.9,380.4,285.3,389.6z" style="fill-opacity: 1; stroke-opacity: 1; stroke: rgb(0, 0, 0); stroke-width: 0;"/>
			<path fill="#C981F1" d="M571.5,319.3c8.8,24.7,13.6,51.2,13.6,78.9c0,18.4-2.1,36.4-6.1,53.6c25.3-37.5,40.1-82.7,40.1-131.4&#10;&#9;&#9;&#9;&#9;c0-81.9-41.8-154-105.2-196.1c37.7,41.7,60.7,97.1,60.7,157.8C574.4,294.7,573.4,307.2,571.5,319.3z" style="fill-opacity: 1; stroke-opacity: 1; stroke: rgb(0, 0, 0); stroke-width: 0;"/>
			<path fill="#AAA2FF" d="M468.7,154.9c27,25.1,48.1,56.3,61,91.6c18,21.4,32.3,46,41.9,72.8c1.9-12.1,2.9-24.6,2.9-37.3&#10;&#9;&#9;&#9;&#9;c0-60.7-23-116-60.7-157.8c-35.7-23.7-78.3-38-124.1-39.2C421,102.2,448,126.1,468.7,154.9z" style="fill-opacity: 1; stroke-opacity: 1; stroke: rgb(0, 0, 0); stroke-width: 0;"/>
			<path fill="#C981F1" d="M285.3,389.6c-18.4-9.2-34.1-23-45.6-39.9c-6.6,14.8-10.2,31.2-10.2,48.5c0,1.4,0.1,2.8,0.1,4.2&#10;&#9;&#9;&#9;&#9;c14.7,6.4,30.8,9.9,47.8,9.9c8.8,0,17.3-1,25.5-2.7C296.3,403.6,290.4,396.9,285.3,389.6z" style="fill-opacity: 1; stroke-opacity: 1; stroke: rgb(0, 0, 0); stroke-width: 0;"/>
			<path fill="#C981F1" d="M332.3,429.2c-10.8-5.1-20.7-11.7-29.4-19.6c-8.2,1.8-16.8,2.7-25.5,2.7c-17,0-33.2-3.5-47.8-9.9&#10;&#9;&#9;&#9;&#9;c0.2,5.9,0.8,11.6,1.8,17.2c20.9,17.5,47.8,28,77.1,28c0.7,0,1.5,0,2.2-0.1C318.6,442.3,325.9,436.1,332.3,429.2z" style="fill-opacity: 1; stroke-opacity: 1; stroke: rgb(0, 0, 0); stroke-width: 0;"/>
			<path fill="#ADBCFF" d="M389.7,85.1c-2-0.1-4-0.1-6-0.1c-20.4,0-40.2,2.6-59.1,7.5c55.6,3.7,105.8,26.7,144.2,62.4&#10;&#9;&#9;&#9;&#9;C448,126.1,421,102.2,389.7,85.1z" style="fill-opacity: 1; stroke-opacity: 1; stroke: rgb(0, 0, 0); stroke-width: 0;"/>
			<path fill="#C981F1" d="M310.7,447.6c16.3-0.3,31.8-3.8,45.9-10c-8.5-1.9-16.6-4.8-24.3-8.4C325.9,436.1,318.6,442.3,310.7,447.6&#10;&#9;&#9;&#9;&#9;z" style="fill-opacity: 1; stroke-opacity: 1; stroke: rgb(0, 0, 0); stroke-width: 0;"/>
			<path fill="#A9C9FF" d="M529.6,246.5c-12.9-35.2-34-66.5-61-91.6c13.7,19,24.5,40.1,32.1,62.8&#10;&#9;&#9;&#9;&#9;C511.2,226.5,520.8,236.1,529.6,246.5z" style="fill-opacity: 1; stroke-opacity: 1; stroke: rgb(0, 0, 0); stroke-width: 0;"/>
			<path fill="#ABD9FF" d="M359.9,142.5c34.9,7.8,66.9,23.3,94,44.6c16.8,8.3,32.6,18.6,46.8,30.6c-7.5-22.7-18.4-43.8-32.1-62.8&#10;&#9;&#9;&#9;&#9;c-38.4-35.6-88.6-58.6-144.2-62.4c-18.8,4.9-36.7,12-53.4,21.1C303.1,117.3,333.1,127.3,359.9,142.5z" style="fill-opacity: 1; stroke-opacity: 1; stroke: rgb(0, 0, 0); stroke-width: 0;"/>
			<path fill="#C981F1" d="M231.4,419.6c3.2,17.6,10.1,33.8,20,47.9c21.9-1.3,42.1-8.4,59.3-19.9c-0.7,0-1.5,0.1-2.2,0.1&#10;&#9;&#9;&#9;&#9;C279.2,447.6,252.3,437.1,231.4,419.6z" style="fill-opacity: 1; stroke-opacity: 1; stroke: rgb(0, 0, 0); stroke-width: 0;"/>
			<path fill="#A3ABFF" d="M359.9,142.5c-26.8-15.2-56.8-25.2-88.8-28.9c-20.8,11.3-39.7,25.7-56,42.5&#10;&#9;&#9;&#9;&#9;c28.6-12.4,60.2-19.3,93.4-19.3C326.2,136.9,343.3,138.8,359.9,142.5z" style="fill-opacity: 1; stroke-opacity: 1; stroke: rgb(0, 0, 0); stroke-width: 0;"/>
			<path fill="#C981F1" d="M365.5,439.3c-3-0.5-6-1.1-8.9-1.7c-14.1,6.2-29.6,9.7-45.9,10c-17.2,11.4-37.4,18.6-59.3,19.9&#10;&#9;&#9;&#9;&#9;c4.4,6.3,9.4,12.1,15,17.4c13.1,4.9,27.3,7.6,42.1,7.6c7.1,0,14.1-0.7,20.9-1.8C345.6,477.1,358.2,459.5,365.5,439.3z" style="fill-opacity: 1; stroke-opacity: 1; stroke: rgb(0, 0, 0); stroke-width: 0;"/>
			<path fill="#2381FF" d="M215.1,156.2c-11.4,4.9-22.3,10.7-32.6,17.3c7.2-2.2,14.6-4.1,22-5.7&#10;&#9;&#9;&#9;&#9;C207.9,163.8,211.4,159.9,215.1,156.2z" style="fill-opacity: 1; stroke-opacity: 1; stroke: rgb(0, 0, 0); stroke-width: 0;"/>
			<path fill="#A4A5FF" d="M453.9,187.1c-27.2-21.4-59.1-36.9-94-44.6c12.7,7.2,24.6,15.5,35.7,24.8&#10;&#9;&#9;&#9;&#9;C416.1,171.4,435.7,178.1,453.9,187.1z" style="fill-opacity: 1; stroke-opacity: 1; stroke: rgb(0, 0, 0); stroke-width: 0;"/>
			<path fill="#9D82FF" d="M355.2,162.9c-5.3-0.7-10.7-1.1-16.2-1.1c-13,0-25.6,2.1-37.3,5.9c15.5-3.2,31.5-4.9,47.9-4.9&#10;&#9;&#9;&#9;&#9;C351.5,162.8,353.4,162.9,355.2,162.9z" style="fill-opacity: 1; stroke-opacity: 1; stroke: rgb(0, 0, 0); stroke-width: 0;"/>
			<path fill="#9D82FF" d="M266.4,484.9c10.1,9.7,21.8,17.6,34.7,23.3c10.3-4.5,19.8-10.5,28.3-17.6c-6.8,1.2-13.8,1.8-20.9,1.8&#10;&#9;&#9;&#9;&#9;C293.7,492.5,279.5,489.8,266.4,484.9z" style="fill-opacity: 1; stroke-opacity: 1; stroke: rgb(0, 0, 0); stroke-width: 0;"/>
			<path fill="#9D82FF" d="M252.5,162.8c16.7,0,32.9,1.7,48.6,5c0.2,0,0.4-0.1,0.7-0.1c11.7-3.8,24.3-5.9,37.3-5.9&#10;&#9;&#9;&#9;&#9;c5.5,0,10.9,0.4,16.2,1.1c13.8,0.3,27.3,1.8,40.4,4.4c-11.1-9.3-23-17.6-35.7-24.8c-16.5-3.7-33.7-5.6-51.4-5.6&#10;&#9;&#9;&#9;&#9;c-33.2,0-64.8,6.9-93.4,19.3c-3.6,3.7-7.2,7.6-10.6,11.6C220,164.5,236.1,162.8,252.5,162.8z" style="fill-opacity: 1; stroke-opacity: 1; stroke: rgb(0, 0, 0); stroke-width: 0;"/>
			<path fill="#ABD9FF" d="M364.2,353.7c0.1-2.1,0.2-4.1,0.2-6.2c0-25.8-8.1-49.7-22-69.3c-14.6,0.9-28.5,4.4-41.3,10&#10;&#9;&#9;&#9;&#9;C329.8,300.9,352.5,324.5,364.2,353.7z" style="fill-opacity: 1; stroke-opacity: 1; stroke: rgb(0, 0, 0); stroke-width: 0;"/>
			<path fill="#235BFF" d="M192.7,577.2c-84.6-18.8-152-83.1-175.2-165.9c6.8,123.9,109.4,222.3,235,222.3c16.7,0,32.9-1.7,48.6-5&#10;&#9;&#9;&#9;&#9;c-36-7.6-68.9-23.3-96.8-45.2C200.4,581.4,196.5,579.3,192.7,577.2z" style="fill-opacity: 1; stroke-opacity: 1; stroke: rgb(0, 0, 0); stroke-width: 0;"/>
			<path fill="#4A3ECC" d="M342.4,278.2c13.8,19.6,22,43.5,22,69.3c0,2.1-0.1,4.2-0.2,6.2c2,5.1,3.8,10.4,5.1,15.9&#10;&#9;&#9;&#9;&#9;c17.7-20.9,28.3-48,28.3-77.5c0-0.2,0-0.4,0-0.6c-1.8-2-3.8-4-5.8-5.9c-13.1-4.9-27.3-7.6-42.1-7.6&#10;&#9;&#9;&#9;&#9;C347.2,278,344.8,278.1,342.4,278.2z" style="fill-opacity: 1; stroke-opacity: 1; stroke: rgb(0, 0, 0); stroke-width: 0;"/>
			<path fill="#4A3ECC" d="M192.7,577.2c-59.3-33.6-102.5-92.1-115.5-161.3C55,380.1,42.1,338,42,292.8&#10;&#9;&#9;&#9;&#9;c-15.9,31.7-24.9,67.5-24.9,105.4c0,4.4,0.1,8.8,0.4,13.1C40.8,494.1,108.2,558.4,192.7,577.2z" style="fill-opacity: 1; stroke-opacity: 1; stroke: rgb(0, 0, 0); stroke-width: 0;"/>
			<path fill="#554FF7" d="M74.2,349.8c-0.7-7.4-1.1-14.9-1.1-22.4c0-38.8,9.4-75.5,26.1-107.8c-23.6,20.3-43.1,45.1-57.2,73.2&#10;&#9;&#9;&#9;&#9;c0.1,45.2,13,87.3,35.2,123.1c-2.7-14.2-4.1-28.8-4.1-43.7C73.1,364.7,73.5,357.2,74.2,349.8z" style="fill-opacity: 1; stroke-opacity: 1; stroke: rgb(0, 0, 0); stroke-width: 0;"/>
			<path fill="#554FF7" d="M397.6,292c0,29.5-10.7,56.6-28.3,77.5c2.2,9,3.4,18.3,3.4,27.9c18.2-5.3,34.7-14.8,48.2-27.4&#10;&#9;&#9;&#9;&#9;c2.5-6.5,4.4-13.3,5.7-20.3c-4.2-22.2-14.5-42.3-29-58.3C397.6,291.7,397.6,291.8,397.6,292z" style="fill-opacity: 1; stroke-opacity: 1; stroke: rgb(0, 0, 0); stroke-width: 0;"/>
			<path fill="#235BFF" d="M372.8,398.2c0,11.7-1.7,23-4.8,33.7c24.1-13.7,43-35.6,53-61.8c-13.5,12.6-30,22.1-48.2,27.4&#10;&#9;&#9;&#9;&#9;C372.7,397.7,372.8,398,372.8,398.2z" style="fill-opacity: 1; stroke-opacity: 1; stroke: rgb(0, 0, 0); stroke-width: 0;"/>
			<path fill="#5089FE" d="M74.2,349.8c3.3-35,14.3-67.8,31.2-96.6c2-16.2,5.6-31.8,10.7-46.8c-5.8,4.2-11.5,8.6-16.9,13.2&#10;&#9;&#9;&#9;&#9;c-16.7,32.3-26.1,68.9-26.1,107.8C73.1,334.9,73.5,342.4,74.2,349.8z" style="fill-opacity: 1; stroke-opacity: 1; stroke: rgb(0, 0, 0); stroke-width: 0;"/>
			<path fill="#5089FE" d="M428.3,362.6c-0.3-4.3-0.9-8.6-1.7-12.8c-1.3,7-3.2,13.8-5.7,20.3C423.5,367.7,426,365.2,428.3,362.6z" style="fill-opacity: 1; stroke-opacity: 1; stroke: rgb(0, 0, 0); stroke-width: 0;"/>
			<path fill="#2091FF" d="M182.5,173.4c-24,7.5-46.3,18.7-66.3,32.9c-5.1,15-8.7,30.6-10.7,46.8&#10;&#9;&#9;&#9;&#9;C124.4,220.9,150.9,193.5,182.5,173.4z" style="fill-opacity: 1; stroke-opacity: 1; stroke: rgb(0, 0, 0); stroke-width: 0;"/>
			<path fill="#2091FF" d="M428.3,362.6c-2.4,2.6-4.8,5.1-7.4,7.5c-10,26.2-28.9,48.1-53,61.8c-0.7,2.5-1.5,5-2.4,7.4&#10;&#9;&#9;&#9;&#9;c5.9,0.9,11.9,1.4,18.1,1.4c8.8,0,17.4-1,25.6-2.8c12.3-18.9,19.5-41.4,19.5-65.7C428.8,369,428.6,365.8,428.3,362.6z" style="fill-opacity: 1; stroke-opacity: 1; stroke: rgb(0, 0, 0); stroke-width: 0;"/>
			<path fill="#8F92FF" d="M365.5,439.3c-7.3,20.2-19.9,37.8-36.1,51.3c33.4-5.8,62-25.4,79.8-52.7c-8.3,1.8-16.8,2.8-25.6,2.8&#10;&#9;&#9;&#9;&#9;C377.5,440.7,371.4,440.2,365.5,439.3z" style="fill-opacity: 1; stroke-opacity: 1; stroke: rgb(0, 0, 0); stroke-width: 0;"/>
			<path fill="#706DBC" d="M192.7,577.2c3.8,2.1,7.6,4.2,11.5,6.1c-2.1-1.6-4.1-3.3-6.1-5C196.4,578,194.6,577.6,192.7,577.2z" style="fill-opacity: 1; stroke-opacity: 1; stroke: rgb(0, 0, 0); stroke-width: 0;"/>
			<path fill="#482FE2" d="M397.6,291.5c0-1.2-0.1-2.4-0.1-3.6c-1.9-0.8-3.8-1.6-5.7-2.3C393.8,287.5,395.8,289.4,397.6,291.5z" style="fill-opacity: 1; stroke-opacity: 1; stroke: rgb(0, 0, 0); stroke-width: 0;"/>
			<path fill="#482FE2" d="M128.6,479.1c-4-4.7-7.8-9.6-11.4-14.6c-15.4-14.3-28.9-30.6-40-48.6c13,69.2,56.3,127.7,115.5,161.3&#10;&#9;&#9;&#9;&#9;c1.8,0.4,3.6,0.8,5.5,1.2C167.1,552.1,142.8,518,128.6,479.1z" style="fill-opacity: 1; stroke-opacity: 1; stroke: rgb(0, 0, 0); stroke-width: 0;"/>
			<path fill="#513BFB" d="M117.2,464.5c-23.6-32.9-39-72.2-43-114.7c-0.7,7.4-1.1,14.9-1.1,22.4c0,14.9,1.4,29.5,4.1,43.7&#10;&#9;&#9;&#9;&#9;C88.3,433.9,101.8,450.2,117.2,464.5z" style="fill-opacity: 1; stroke-opacity: 1; stroke: rgb(0, 0, 0); stroke-width: 0;"/>
			<path fill="#513BFB" d="M397.6,291.5c14.6,16.1,24.9,36.1,29,58.3c1.4-7.3,2.1-14.8,2.1-22.4c0-7.3-0.7-14.4-1.9-21.4&#10;&#9;&#9;&#9;&#9;c-8.8-7.4-18.7-13.5-29.3-18.1C397.5,289.1,397.6,290.3,397.6,291.5z" style="fill-opacity: 1; stroke-opacity: 1; stroke: rgb(0, 0, 0); stroke-width: 0;"/>
			<path fill="#706DBC" d="M126,324.7c6.5-19.7,15.5-38.3,26.6-55.3C139.4,284.9,130,303.8,126,324.7z" style="fill-opacity: 1; stroke-opacity: 1; stroke: rgb(0, 0, 0); stroke-width: 0;"/>
			<path fill="#706DBC" d="M117.2,464.5c3.6,5,7.4,9.9,11.4,14.6c-0.8-2.2-1.5-4.4-2.3-6.6C123.2,469.9,120.2,467.3,117.2,464.5z" style="fill-opacity: 1; stroke-opacity: 1; stroke: rgb(0, 0, 0); stroke-width: 0;"/>
			<path fill="#4D68FF" d="M114.3,398.2c0-12.7,1-25.1,2.9-37.3c-8.8-24.7-13.6-51.2-13.6-78.9c0-9.8,0.6-19.4,1.8-28.9&#10;&#9;&#9;&#9;&#9;c-17,28.8-27.9,61.6-31.2,96.6c4,42.6,19.4,81.8,43,114.7c3,2.8,6,5.4,9.1,8C118.5,449.2,114.3,424.2,114.3,398.2z" style="fill-opacity: 1; stroke-opacity: 1; stroke: rgb(0, 0, 0); stroke-width: 0;"/>
			<path fill="#4D68FF" d="M426.8,306c1.2,6.9,1.9,14.1,1.9,21.4c0,7.7-0.7,15.2-2.1,22.4c0.8,4.2,1.4,8.4,1.7,12.8&#10;&#9;&#9;&#9;&#9;c8.5-9.4,15.5-20.2,20.7-32C442.8,321.4,435.3,313.1,426.8,306z" style="fill-opacity: 1; stroke-opacity: 1; stroke: rgb(0, 0, 0); stroke-width: 0;"/>
			<path fill="#1E6EFF" d="M428.8,372.2c0,24.2-7.2,46.8-19.5,65.7c23.5-5.1,44.4-17,60.6-33.7c0.1-2,0.2-4,0.2-6&#10;&#9;&#9;&#9;&#9;c0-25.1-7.7-48.4-20.8-67.7c-5.2,11.8-12.2,22.6-20.7,32C428.6,365.8,428.8,369,428.8,372.2z" style="fill-opacity: 1; stroke-opacity: 1; stroke: rgb(0, 0, 0); stroke-width: 0;"/>
			<path fill="#1E6EFF" d="M117.3,360.9c2-12.4,4.9-24.5,8.8-36.2c4-20.8,13.4-39.8,26.6-55.3c0.6-0.9,1.1-1.7,1.7-2.6&#10;&#9;&#9;&#9;&#9;c8.7-37.2,26.1-71,50.1-99.1c-7.5,1.5-14.8,3.4-22,5.7c-31.6,20.1-58,47.4-77,79.7c-1.2,9.5-1.8,19.1-1.8,28.9&#10;&#9;&#9;&#9;&#9;C103.7,309.7,108.5,336.3,117.3,360.9z" style="fill-opacity: 1; stroke-opacity: 1; stroke: rgb(0, 0, 0); stroke-width: 0;"/>
			<path fill="#706DBC" d="M441.1,476.3c10.1-11.9,18-25.7,22.9-40.9c-1.1,1.4-2.2,2.8-3.3,4.2C455.3,452.4,448.7,464.7,441.1,476.3&#10;&#9;&#9;&#9;&#9;z" style="fill-opacity: 1; stroke-opacity: 1; stroke: rgb(0, 0, 0); stroke-width: 0;"/>
			<path fill="#706DBC" d="M464,435.4c1.5-4.7,2.8-9.5,3.7-14.4c-2.1,6.3-4.4,12.5-7,18.6C461.9,438.2,463,436.8,464,435.4z" style="fill-opacity: 1; stroke-opacity: 1; stroke: rgb(0, 0, 0); stroke-width: 0;"/>
			<path fill="#706DBC" d="M342.7,518.2c2.3,0.1,4.7,0.2,7,0.2c13,0,25.6-2.1,37.3-5.9c-13.4,2.8-27.2,4.4-41.2,4.8&#10;&#9;&#9;&#9;&#9;C344.7,517.6,343.7,517.9,342.7,518.2z" style="fill-opacity: 1; stroke-opacity: 1; stroke: rgb(0, 0, 0); stroke-width: 0;"/>
			<path fill="#706DBC" d="M339.1,517.4c-1.8,0-3.7,0-5.5-0.1c3,0.4,6,0.7,9.1,0.9c1-0.3,2.1-0.6,3.1-0.9&#10;&#9;&#9;&#9;&#9;C343.5,517.4,341.3,517.4,339.1,517.4z" style="fill-opacity: 1; stroke-opacity: 1; stroke: rgb(0, 0, 0); stroke-width: 0;"/>
			<path fill="#8869FF" d="M284.4,172c-2.3-0.1-4.7-0.2-7-0.2c-53.4,0-98.7,34.9-114.4,83.1C193.2,215.6,235.5,186.1,284.4,172z" style="fill-opacity: 1; stroke-opacity: 1; stroke: rgb(0, 0, 0); stroke-width: 0;"/>
			<path fill="#8869FF" d="M345.8,517.3c14.1-0.4,27.9-2,41.2-4.8c21.3-6.9,39.9-19.6,54.1-36.3c7.6-11.6,14.2-23.8,19.7-36.7&#10;&#9;&#9;&#9;&#9;C431.5,475.9,391.6,503.4,345.8,517.3z" style="fill-opacity: 1; stroke-opacity: 1; stroke: rgb(0, 0, 0); stroke-width: 0;"/>
			<path fill="#896FFF" d="M277.4,171.8c2.4,0,4.7,0.1,7,0.2c5.5-1.6,11.1-3,16.7-4.2c-15.7-3.3-31.9-5-48.6-5&#10;&#9;&#9;&#9;&#9;c-16.5,0-32.5,1.7-48,4.9c-24,28.1-41.5,61.9-50.1,99.1c2.7-4.1,5.6-8.1,8.6-12C178.7,206.7,223.9,171.8,277.4,171.8z" style="fill-opacity: 1; stroke-opacity: 1; stroke: rgb(0, 0, 0); stroke-width: 0;"/>
			<path fill="#896FFF" d="M409.2,437.9c-17.8,27.3-46.4,46.9-79.8,52.7c-8.5,7.1-18,13-28.3,17.6c10.2,4.5,21,7.6,32.4,9.1&#10;&#9;&#9;&#9;&#9;c1.8,0,3.7,0.1,5.5,0.1c2.2,0,4.5,0,6.7-0.1c45.8-13.9,85.7-41.4,115-77.8c2.6-6.1,4.9-12.3,7-18.6c1-5.5,1.7-11,2-16.7&#10;&#9;&#9;&#9;&#9;C453.6,420.9,432.7,432.8,409.2,437.9z" style="fill-opacity: 1; stroke-opacity: 1; stroke: rgb(0, 0, 0); stroke-width: 0;"/>
			<path fill="#B570FF" d="M477.1,536.5c-27,27.7-60.7,48.7-98.5,60.5c-23.4,14.8-49.5,25.7-77.5,31.5c15.7,3.3,31.9,5,48.6,5&#10;&#9;&#9;&#9;&#9;c111.5,0,205-77.6,229.2-181.8C553.9,488.9,518.6,518.5,477.1,536.5z" style="fill-opacity: 1; stroke-opacity: 1; stroke: rgb(0, 0, 0); stroke-width: 0;"/>
			<path fill="#B570FF" d="M301.1,288.2c-9.6-4.2-19.8-7.3-30.5-8.9c-4,11-6.5,22.8-7.1,35.1C274.2,303.4,286.9,294.5,301.1,288.2z" style="fill-opacity: 1; stroke-opacity: 1; stroke: rgb(0, 0, 0); stroke-width: 0;"/>
			<path fill="#E071FF" d="M263.5,314.4c0.6-12.3,3.1-24,7.1-35.1c-5.9-0.9-11.9-1.4-18.1-1.4c-7.1,0-14.1,0.7-20.9,1.8&#10;&#9;&#9;&#9;&#9;c-4.4,3.7-8.5,7.6-12.4,11.9c1.7,21.4,9,41.2,20.4,58C245.5,336.5,253.6,324.6,263.5,314.4z" style="fill-opacity: 1; stroke-opacity: 1; stroke: rgb(0, 0, 0); stroke-width: 0;"/>
			<path fill="#E071FF" d="M571.5,319.3c-4.7,29.4-14.8,57.1-29.4,81.8c-6.4,52.4-30,99.5-65.1,135.4c41.5-18,76.8-47.6,101.9-84.7&#10;&#9;&#9;&#9;&#9;c4-17.2,6.1-35.2,6.1-53.6C585.1,370.5,580.3,344,571.5,319.3z" style="fill-opacity: 1; stroke-opacity: 1; stroke: rgb(0, 0, 0); stroke-width: 0;"/>
			<path fill="#CE8EFF" d="M542.8,349.8c0.7,7.4,1.1,14.9,1.1,22.4c0,9.8-0.6,19.4-1.8,28.9c14.5-24.7,24.7-52.4,29.4-81.8&#10;&#9;&#9;&#9;&#9;c-9.6-26.9-23.8-51.5-41.9-72.8c9.2,25.2,14.3,52.5,14.3,80.9C543.9,334.9,543.5,342.4,542.8,349.8z" style="fill-opacity: 1; stroke-opacity: 1; stroke: rgb(0, 0, 0); stroke-width: 0;"/>
			<path fill="#CE8EFF" d="M229.4,398.2c0-17.3,3.7-33.7,10.2-48.5c-11.4-16.8-18.7-36.6-20.4-58c-14.5,16-24.7,36-28.8,58.1&#10;&#9;&#9;&#9;&#9;c2.6,13.6,7.4,26.3,14.1,37.9c7.7,5.9,16.1,10.8,25,14.7C229.5,401,229.4,399.6,229.4,398.2z" style="fill-opacity: 1; stroke-opacity: 1; stroke: rgb(0, 0, 0); stroke-width: 0;"/>
			<path fill="#D0A5FF" d="M204.5,387.7c7.1,12.1,16.2,22.9,26.9,31.9c-1-5.6-1.6-11.4-1.8-17.2&#10;&#9;&#9;&#9;&#9;C220.6,398.5,212.2,393.5,204.5,387.7z" style="fill-opacity: 1; stroke-opacity: 1; stroke: rgb(0, 0, 0); stroke-width: 0;"/>
			<path fill="#CEB0FF" d="M204.5,387.7c-6.7-11.5-11.6-24.3-14.1-37.9c-1.4,7.3-2.1,14.8-2.1,22.4c0,0.2,0,0.4,0,0.6&#10;&#9;&#9;&#9;&#9;C193.2,378.3,198.7,383.2,204.5,387.7z" style="fill-opacity: 1; stroke-opacity: 1; stroke: rgb(0, 0, 0); stroke-width: 0;"/>
			<path fill="#CEB0FF" d="M500.8,217.7c3.3,9.9,6,20.2,7.9,30.6c18.6,30,30.7,64.5,34.1,101.4c0.7-7.4,1.1-14.9,1.1-22.4&#10;&#9;&#9;&#9;&#9;c0-28.4-5-55.7-14.3-80.9C520.8,236.1,511.2,226.5,500.8,217.7z" style="fill-opacity: 1; stroke-opacity: 1; stroke: rgb(0, 0, 0); stroke-width: 0;"/>
			<path fill="#CFBEFF" d="M508.7,248.4c-2-10.5-4.6-20.7-7.9-30.6c-14.3-12-30-22.2-46.8-30.6C475.6,204.2,494.1,224.9,508.7,248.4&#10;&#9;&#9;&#9;&#9;z" style="fill-opacity: 1; stroke-opacity: 1; stroke: rgb(0, 0, 0); stroke-width: 0;"/>
			<path fill="#CFBEFF" d="M251.4,467.5c-9.9-14-16.9-30.3-20-47.9c-10.7-9-19.8-19.8-26.9-31.9c-5.8-4.5-11.3-9.4-16.2-14.9&#10;&#9;&#9;&#9;&#9;c0.2,38.5,18.4,72.6,46.7,94.5c3,0.2,6.1,0.4,9.1,0.4C246.6,467.7,249,467.6,251.4,467.5z" style="fill-opacity: 1; stroke-opacity: 1; stroke: rgb(0, 0, 0); stroke-width: 0;"/>
			<path fill="#CA96FF" d="M251.4,467.5c-2.4,0.1-4.9,0.2-7.3,0.2c-3.1,0-6.1-0.2-9.1-0.4c9.5,7.3,20,13.3,31.4,17.5&#10;&#9;&#9;&#9;&#9;C260.9,479.6,255.8,473.7,251.4,467.5z" style="fill-opacity: 1; stroke-opacity: 1; stroke: rgb(0, 0, 0); stroke-width: 0;"/>
			<path fill="#B355FF" d="M378.6,597c37.8-11.8,71.5-32.8,98.5-60.5c-14.5,6.3-29.7,11.1-45.4,14.4&#10;&#9;&#9;&#9;&#9;C416.4,568.8,398.5,584.4,378.6,597z" style="fill-opacity: 1; stroke-opacity: 1; stroke: rgb(0, 0, 0); stroke-width: 0;"/>
			<path fill="#B570FF" d="M442.7,221.1c-1.7-2.8-3.4-5.6-5.3-8.2c-0.1,0-0.2-0.1-0.3-0.1C439,215.5,440.9,218.3,442.7,221.1z" style="fill-opacity: 1; stroke-opacity: 1; stroke: rgb(0, 0, 0); stroke-width: 0;"/>
			<path fill="#B570FF" d="M150.2,422.5c-3.4-4.6-6.7-9.3-9.8-14.2C143.4,413.3,146.6,418.1,150.2,422.5z" style="fill-opacity: 1; stroke-opacity: 1; stroke: rgb(0, 0, 0); stroke-width: 0;"/>
			<path fill="#8B90FF" d="M150.2,422.5c10.9,13.6,24.7,24.8,40.4,32.6c-23.7-33.8-38.7-74.2-41.7-117.9&#10;&#9;&#9;&#9;&#9;c-9.5,16.2-15.4,34.8-16.4,54.7c2.3,5.7,5,11.2,8,16.4C143.5,413.2,146.8,417.9,150.2,422.5z" style="fill-opacity: 1; stroke-opacity: 1; stroke: rgb(0, 0, 0); stroke-width: 0;"/>
			<path fill="#8B90FF" d="M479.1,334.4c4.2,15.1,7,30.8,8.2,47c10.5-17.9,16.6-38.7,16.6-60.9c0-47.1-27.1-87.8-66.4-107.5&#10;&#9;&#9;&#9;&#9;c1.9,2.7,3.7,5.4,5.3,8.2C463.8,254.2,476.8,292.8,479.1,334.4z" style="fill-opacity: 1; stroke-opacity: 1; stroke: rgb(0, 0, 0); stroke-width: 0;"/>
			<path fill="#9F6BFF" d="M208.9,478.2c-22.6-15-42.5-33.9-58.7-55.6c-3.6-4.5-6.8-9.2-9.8-14.2c-2.8-4.5-5.5-9-8.1-13.7&#10;&#9;&#9;&#9;&#9;c0,1.2-0.1,2.3-0.1,3.5c0,66.4,53.8,120.2,120.2,120.2c1.2,0,2.5-0.1,3.7-0.1C238.7,507.1,222.8,493.6,208.9,478.2z" style="fill-opacity: 1; stroke-opacity: 1; stroke: rgb(0, 0, 0); stroke-width: 0;"/>
			<path fill="#9F6BFF" d="M459.2,285.6c0-1.2,0.1-2.3,0.1-3.5c0-22.2-6.1-43.1-16.6-60.9c-1.8-2.8-3.7-5.6-5.6-8.4&#10;&#9;&#9;&#9;&#9;c-16.1-8-34.3-12.6-53.5-12.6c-1.2,0-2.5,0.1-3.7,0.1C413,221.6,440.3,250.9,459.2,285.6z" style="fill-opacity: 1; stroke-opacity: 1; stroke: rgb(0, 0, 0); stroke-width: 0;"/>
			<path fill="#8071FF" d="M150.2,422.5c16.2,21.8,36.1,40.6,58.7,55.6c-6.6-7.3-12.7-15-18.3-23&#10;&#9;&#9;&#9;&#9;C174.9,447.3,161.1,436.1,150.2,422.5z" style="fill-opacity: 1; stroke-opacity: 1; stroke: rgb(0, 0, 0); stroke-width: 0;"/>
			<path fill="#B570FF" d="M132.4,392c0,0.9,0,1.8-0.1,2.7c2.5,4.7,5.2,9.2,8.1,13.7C137.4,403.2,134.7,397.7,132.4,392z" style="fill-opacity: 1; stroke-opacity: 1; stroke: rgb(0, 0, 0); stroke-width: 0;"/>
			<path fill="#8071FF" d="M459.2,285.6c8.4,15.3,15.1,31.7,19.9,48.8c-2.3-41.5-15.3-80.2-36.4-113.3&#10;&#9;&#9;&#9;&#9;c10.5,17.9,16.6,38.7,16.6,60.9C459.3,283.2,459.3,284.4,459.2,285.6z" style="fill-opacity: 1; stroke-opacity: 1; stroke: rgb(0, 0, 0); stroke-width: 0;"/>
			<path fill="#DC56FF" d="M231.6,279.8c-4.3,0.8-8.6,1.8-12.8,3c0,3,0.2,6,0.4,8.9C223.1,287.4,227.2,283.5,231.6,279.8z" style="fill-opacity: 1; stroke-opacity: 1; stroke: rgb(0, 0, 0); stroke-width: 0;"/>
			<path fill="#DC56FF" d="M517.8,435.2c-14,27.1-33.1,51.1-56,70.8c-8.3,16.1-18.5,31.2-30.2,44.9c15.8-3.3,31-8.1,45.4-14.4&#10;&#9;&#9;&#9;&#9;c35-35.9,58.7-83,65.1-135.4C535,413.2,526.9,424.6,517.8,435.2z" style="fill-opacity: 1; stroke-opacity: 1; stroke: rgb(0, 0, 0); stroke-width: 0;"/>
			<path fill="#CB6CFF" d="M542.8,349.8c-2.9,30.5-11.6,59.4-25,85.4c9.1-10.6,17.2-22,24.3-34.1c1.2-9.5,1.8-19.1,1.8-28.9&#10;&#9;&#9;&#9;&#9;C543.9,364.7,543.5,357.2,542.8,349.8z" style="fill-opacity: 1; stroke-opacity: 1; stroke: rgb(0, 0, 0); stroke-width: 0;"/>
			<path fill="#CB6CFF" d="M190.4,349.8c4.2-22.1,14.4-42.1,28.8-58.1c-0.2-2.9-0.4-5.9-0.4-8.9c-9.1,2.6-17.7,6.3-25.7,10.9&#10;&#9;&#9;&#9;&#9;c-3.1,10.7-4.8,22-4.8,33.7C188.3,335,189,342.5,190.4,349.8z" style="fill-opacity: 1; stroke-opacity: 1; stroke: rgb(0, 0, 0); stroke-width: 0;"/>
			<path fill="#DA79FF" d="M475.4,473.9c-3.8,11.1-8.3,21.8-13.6,32.1c22.9-19.7,42-43.7,56-70.8&#10;&#9;&#9;&#9;&#9;C505.3,449.7,491.1,462.8,475.4,473.9z" style="fill-opacity: 1; stroke-opacity: 1; stroke: rgb(0, 0, 0); stroke-width: 0;"/>
			<path fill="#B570FF" d="M437.4,212.9c-1.4-2-2.9-4-4.5-5.9c1.4,1.9,2.8,3.8,4.2,5.8C437.2,212.8,437.3,212.8,437.4,212.9z" style="fill-opacity: 1; stroke-opacity: 1; stroke: rgb(0, 0, 0); stroke-width: 0;"/>
			<path fill="#CA85FF" d="M508.7,248.4c2.7,14.2,4.1,28.8,4.1,43.7c0,37.9-9,73.7-24.9,105.4c0,0.3,0,0.5,0,0.8&#10;&#9;&#9;&#9;&#9;c0,26.5-4.4,51.9-12.4,75.7c15.6-11.1,29.9-24.2,42.4-38.7c13.4-26,22.1-54.9,25-85.4C539.3,312.8,527.3,278.3,508.7,248.4z" style="fill-opacity: 1; stroke-opacity: 1; stroke: rgb(0, 0, 0); stroke-width: 0;"/>
			<path fill="#CA85FF" d="M190.4,349.8c-1.4-7.3-2.1-14.8-2.1-22.4c0-11.7,1.7-23,4.8-33.7c-12.4,7-23.4,16.2-32.5,27&#10;&#9;&#9;&#9;&#9;c4.8,19.7,14.5,37.5,27.7,52.1c0-0.2,0-0.4,0-0.6C188.3,364.6,189,357.1,190.4,349.8z" style="fill-opacity: 1; stroke-opacity: 1; stroke: rgb(0, 0, 0); stroke-width: 0;"/>
			<path fill="#CB90FF" d="M235,467.3c-28.2-21.9-46.5-56.1-46.7-94.5c-13.2-14.6-22.9-32.4-27.7-52.1c-4.4,5.2-8.3,10.7-11.7,16.6&#10;&#9;&#9;&#9;&#9;c3.1,43.6,18.1,84,41.7,117.9C204.1,461.9,219.1,466.1,235,467.3z" style="fill-opacity: 1; stroke-opacity: 1; stroke: rgb(0, 0, 0); stroke-width: 0;"/>
			<path fill="#CB90FF" d="M433,207c1.5,1.9,3,3.9,4.5,5.9c39.4,19.7,66.4,60.5,66.4,107.5c0,22.2-6.1,43.1-16.6,60.9&#10;&#9;&#9;&#9;&#9;c0.4,5.3,0.6,10.7,0.6,16.1c15.9-31.7,24.9-67.5,24.9-105.4c0-14.9-1.4-29.5-4.1-43.7c-14.6-23.5-33.1-44.2-54.7-61.2&#10;&#9;&#9;&#9;&#9;c-18.2-9-37.8-15.8-58.3-19.8C409.5,179,422.1,192.3,433,207z" style="fill-opacity: 1; stroke-opacity: 1; stroke: rgb(0, 0, 0); stroke-width: 0;"/>
			<path fill="#D36CFF" d="M379.9,200.3c1.2,0,2.5-0.1,3.7-0.1c19.2,0,37.4,4.5,53.5,12.6c-1.4-1.9-2.7-3.9-4.2-5.8&#10;&#9;&#9;&#9;&#9;c-18.9-23.6-46.4-39.8-77.7-44.1c-1.8,0-3.7-0.1-5.5-0.1c-16.4,0-32.5,1.7-47.9,4.9c-0.2,0.1-0.3,0.1-0.5,0.2&#10;&#9;&#9;&#9;&#9;C329.7,173.9,356.3,185,379.9,200.3z" style="fill-opacity: 1; stroke-opacity: 1; stroke: rgb(0, 0, 0); stroke-width: 0;"/>
			<path fill="#D36CFF" d="M256.2,518.4c11.9-0.4,23.3-2.4,34.1-6c-29.6-6.2-57.1-18-81.4-34.2C222.8,493.6,238.7,507.1,256.2,518.4&#10;&#9;&#9;&#9;&#9;z" style="fill-opacity: 1; stroke-opacity: 1; stroke: rgb(0, 0, 0); stroke-width: 0;"/>
			<path fill="#C772FF" d="M433,207c-10.9-14.6-23.4-27.9-37.4-39.6c-13.1-2.6-26.6-4.1-40.4-4.4C386.6,167.1,414.1,183.4,433,207z" style="fill-opacity: 1; stroke-opacity: 1; stroke: rgb(0, 0, 0); stroke-width: 0;"/>
			<path fill="#C772FF" d="M266.4,484.9c-11.4-4.3-22-10.2-31.4-17.5c-15.8-1.2-30.8-5.4-44.4-12.2c5.6,8.1,11.8,15.8,18.3,23&#10;&#9;&#9;&#9;&#9;c24.3,16.2,51.8,27.9,81.4,34.2c3.7-1.2,7.3-2.6,10.8-4.2C288.2,502.5,276.4,494.5,266.4,484.9z" style="fill-opacity: 1; stroke-opacity: 1; stroke: rgb(0, 0, 0); stroke-width: 0;"/>
			<path fill="#B570FF" d="M301.8,167.7c-0.2,0-0.4,0.1-0.7,0.1c0,0,0.1,0,0.1,0C301.4,167.8,301.6,167.8,301.8,167.7z" style="fill-opacity: 1; stroke-opacity: 1; stroke: rgb(0, 0, 0); stroke-width: 0;"/>
			<path fill="#AD5FFF" d="M301.1,288.2c12.8-5.6,26.7-9.1,41.3-10c-6.9-9.8-15.2-18.5-24.7-25.8c-3-0.2-6.1-0.4-9.1-0.4&#10;&#9;&#9;&#9;&#9;c-8.8,0-17.4,1-25.6,2.8c-5,7.6-9.2,15.9-12.3,24.6C281.3,280.9,291.5,284,301.1,288.2z" style="fill-opacity: 1; stroke-opacity: 1; stroke: rgb(0, 0, 0); stroke-width: 0;"/>
			<path fill="#B570FF" d="M308.5,607.6c-37.4,0-72.8-8.8-104.2-24.3c27.9,21.9,60.8,37.7,96.8,45.2c28-5.9,54.1-16.7,77.5-31.5&#10;&#9;&#9;&#9;&#9;C356.4,603.9,332.9,607.6,308.5,607.6z" style="fill-opacity: 1; stroke-opacity: 1; stroke: rgb(0, 0, 0); stroke-width: 0;"/>
			<path fill="#9636FF" d="M342.4,278.2c2.4-0.1,4.9-0.2,7.3-0.2c14.8,0,29,2.7,42.1,7.6c-19.6-18.8-45.4-31-74.2-33.2&#10;&#9;&#9;&#9;&#9;C327.1,259.7,335.5,268.4,342.4,278.2z" style="fill-opacity: 1; stroke-opacity: 1; stroke: rgb(0, 0, 0); stroke-width: 0;"/>
			<path fill="#D260FF" d="M270.6,279.3c3.2-8.7,7.3-16.9,12.3-24.6c-19.2,4.2-36.7,12.9-51.3,25.1c6.8-1.2,13.8-1.8,20.9-1.8&#10;&#9;&#9;&#9;&#9;C258.7,278,264.7,278.4,270.6,279.3z" style="fill-opacity: 1; stroke-opacity: 1; stroke: rgb(0, 0, 0); stroke-width: 0;"/>
			<path fill="#AA48FF" d="M431.6,550.9c-15.5,3.2-31.6,4.9-48,4.9c-5.4,0-10.7-0.2-16-0.6c-7.2,1.9-14.5,3.4-21.9,4.6&#10;&#9;&#9;&#9;&#9;c-30.8,14.8-65.2,23-101.6,23c-15.7,0-31.1-1.6-45.9-4.5c2,1.7,4,3.3,6.1,5c31.4,15.5,66.8,24.3,104.2,24.3&#10;&#9;&#9;&#9;&#9;c24.4,0,47.9-3.7,70-10.6C398.5,584.4,416.4,568.8,431.6,550.9z" style="fill-opacity: 1; stroke-opacity: 1; stroke: rgb(0, 0, 0); stroke-width: 0;"/>
			<path fill="#AA48FF" d="M317.7,252.4c-6.9-5.3-14.3-9.9-22.2-13.7c-4.6,5-8.8,10.3-12.5,16c8.3-1.8,16.8-2.8,25.6-2.8&#10;&#9;&#9;&#9;&#9;C311.6,252,314.6,252.1,317.7,252.4z" style="fill-opacity: 1; stroke-opacity: 1; stroke: rgb(0, 0, 0); stroke-width: 0;"/>
			<path fill="#9529FF" d="M295.4,238.7c7.9,3.7,15.4,8.3,22.2,13.7c28.7,2.2,54.6,14.4,74.2,33.2c1.9,0.7,3.8,1.5,5.7,2.3&#10;&#9;&#9;&#9;&#9;c-0.7-20.4-6.5-39.5-16.1-56.1c-13.4-10.2-28.9-17.6-45.8-21.5C320.2,216.9,306.6,226.6,295.4,238.7z" style="fill-opacity: 1; stroke-opacity: 1; stroke: rgb(0, 0, 0); stroke-width: 0;"/>
			<path fill="#9529FF" d="M128.6,479.1c14.2,38.9,38.5,73,69.6,99.3c14.8,2.9,30.2,4.5,45.9,4.5c36.4,0,70.9-8.3,101.6-23&#10;&#9;&#9;&#9;&#9;c-12.1,1.9-24.6,2.9-37.2,2.9C236.3,562.7,171.8,530.2,128.6,479.1z" style="fill-opacity: 1; stroke-opacity: 1; stroke: rgb(0, 0, 0); stroke-width: 0;"/>
			<path fill="#9B33FF" d="M426.8,306c-5.4-30.2-22-56.4-45.5-74.3c9.6,16.6,15.4,35.7,16.1,56.1C408.2,292.5,418,298.6,426.8,306z" style="fill-opacity: 1; stroke-opacity: 1; stroke: rgb(0, 0, 0); stroke-width: 0;"/>
			<path fill="#B570FF" d="M345.8,559.8c7.4-1.2,14.7-2.7,21.9-4.6c-3.7-0.2-7.4-0.6-11-1C353,556.2,349.4,558,345.8,559.8z" style="fill-opacity: 1; stroke-opacity: 1; stroke: rgb(0, 0, 0); stroke-width: 0;"/>
			<path fill="#877AFF" d="M132.4,392c1-19.9,6.9-38.5,16.4-54.7c-0.4-5.6-0.6-11.2-0.6-16.9c0-18.1,2.1-35.8,5.9-52.8&#10;&#9;&#9;&#9;&#9;c-0.5,0.6-1,1.2-1.5,1.7c-11.2,17-20.2,35.6-26.6,55.3c-1.4,7.4-2.2,15-2.2,22.8C123.9,363.2,126.9,378.2,132.4,392z" style="fill-opacity: 1; stroke-opacity: 1; stroke: rgb(0, 0, 0); stroke-width: 0;"/>
			<path fill="#877AFF" d="M479.5,347.5c0,18.1-2.1,35.8-5.9,52.8c5.2-5.8,9.8-12.1,13.7-18.9c-1.1-16.2-3.9-31.9-8.2-47&#10;&#9;&#9;&#9;&#9;C479.3,338.7,479.5,343.1,479.5,347.5z" style="fill-opacity: 1; stroke-opacity: 1; stroke: rgb(0, 0, 0); stroke-width: 0;"/>
			<path fill="#9255FF" d="M358.1,202.9c-7.8,1.7-15.4,4.1-22.6,7.3c16.9,3.9,32.5,11.3,45.8,21.5&#10;&#9;&#9;&#9;&#9;C375.1,221,367.3,211.2,358.1,202.9z" style="fill-opacity: 1; stroke-opacity: 1; stroke: rgb(0, 0, 0); stroke-width: 0;"/>
			<path fill="#9255FF" d="M271.3,527.3c-55.2-1.4-105.6-21.8-145-54.8c0.7,2.2,1.5,4.4,2.3,6.6c43.2,51.2,107.8,83.7,179.9,83.7&#10;&#9;&#9;&#9;&#9;c12.7,0,25.1-1,37.2-2.9c3.7-1.8,7.3-3.6,10.9-5.6C326,550.8,297.2,541.4,271.3,527.3z" style="fill-opacity: 1; stroke-opacity: 1; stroke: rgb(0, 0, 0); stroke-width: 0;"/>
			<path fill="#985BFF" d="M381.4,231.7c23.4,17.9,40,44.1,45.5,74.3c8.5,7.1,16,15.4,22.3,24.6c6.1-13.8,9.7-29,10.1-45&#10;&#9;&#9;&#9;&#9;c-18.9-34.6-46.3-64-79.3-85.3c-7.5,0.2-14.8,1.1-21.8,2.6C367.3,211.2,375.1,221,381.4,231.7z" style="fill-opacity: 1; stroke-opacity: 1; stroke: rgb(0, 0, 0); stroke-width: 0;"/>
			<path fill="#985BFF" d="M252.5,518.5c-66.4,0-120.2-53.8-120.2-120.2c0-1.2,0.1-2.4,0.1-3.5c-5.9-10.8-10.9-22-15.1-33.7&#10;&#9;&#9;&#9;&#9;c-1.9,12.1-2.9,24.6-2.9,37.3c0,26,4.2,51,12,74.3c39.4,33,89.9,53.4,145,54.8c-5.2-2.8-10.2-5.8-15.1-9&#10;&#9;&#9;&#9;&#9;C255,518.4,253.7,518.5,252.5,518.5z" style="fill-opacity: 1; stroke-opacity: 1; stroke: rgb(0, 0, 0); stroke-width: 0;"/>
			<path fill="#7D60FF" d="M132.4,392c-5.5-13.8-8.6-28.8-8.6-44.5c0-7.8,0.8-15.4,2.2-22.8c-3.8,11.7-6.8,23.8-8.8,36.2&#10;&#9;&#9;&#9;&#9;c4.2,11.7,9.2,23,15.1,33.7C132.4,393.8,132.4,392.9,132.4,392z" style="fill-opacity: 1; stroke-opacity: 1; stroke: rgb(0, 0, 0); stroke-width: 0;"/>
			<path fill="#7D60FF" d="M479.1,334.4c-4.8-17.1-11.5-33.5-19.9-48.8c-0.5,16-4,31.2-10.1,45c13.1,19.3,20.8,42.6,20.8,67.7&#10;&#9;&#9;&#9;&#9;c0,2-0.1,4-0.2,6c1.3-1.3,2.5-2.7,3.8-4c3.9-17,5.9-34.6,5.9-52.8C479.5,343.1,479.3,338.7,479.1,334.4z" style="fill-opacity: 1; stroke-opacity: 1; stroke: rgb(0, 0, 0); stroke-width: 0;"/>
			<path fill="#B570FF" d="M154.4,266.8c-0.6,0.9-1.1,1.7-1.7,2.6c0.5-0.6,1-1.2,1.5-1.7C154.2,267.4,154.3,267.1,154.4,266.8z" style="fill-opacity: 1; stroke-opacity: 1; stroke: rgb(0, 0, 0); stroke-width: 0;"/>
			<path fill="#CE48FF" d="M383.6,555.8c16.5,0,32.5-1.7,48-4.9c11.7-13.7,21.8-28.8,30.2-44.9c-26.8,23-58.9,40.1-94.1,49.3&#10;&#9;&#9;&#9;&#9;C372.9,555.6,378.3,555.8,383.6,555.8z" style="fill-opacity: 1; stroke-opacity: 1; stroke: rgb(0, 0, 0); stroke-width: 0;"/>
			<path fill="#CE48FF" d="M218.8,282.8c4.2-1.2,8.4-2.2,12.8-3c14.6-12.1,32.1-20.9,51.3-25.1c3.7-5.7,7.9-11.1,12.5-16&#10;&#9;&#9;&#9;&#9;c-15.6-7.4-33-11.5-51.3-11.5c-0.7,0-1.5,0-2.2,0.1c-5.4,3.6-10.5,7.6-15.2,12.1c-5,13.3-7.8,27.7-7.8,42.7&#10;&#9;&#9;&#9;&#9;C218.8,282.3,218.8,282.5,218.8,282.8z" style="fill-opacity: 1; stroke-opacity: 1; stroke: rgb(0, 0, 0); stroke-width: 0;"/>
			<path fill="#BF5CFF" d="M218.8,282c0-15,2.8-29.4,7.8-42.7c-15.7,14.6-27.4,33.3-33.6,54.4c8-4.6,16.7-8.3,25.7-10.9&#10;&#9;&#9;&#9;&#9;C218.8,282.5,218.8,282.3,218.8,282z" style="fill-opacity: 1; stroke-opacity: 1; stroke: rgb(0, 0, 0); stroke-width: 0;"/>
			<path fill="#B570FF" d="M295.4,238.7c11.2-12.1,24.8-21.8,40.1-28.5c-8.7-2-17.7-3.1-27-3.1c-24.6,0-47.5,7.4-66.6,20.1&#10;&#9;&#9;&#9;&#9;c0.7,0,1.5-0.1,2.2-0.1C262.5,227.2,279.9,231.3,295.4,238.7z" style="fill-opacity: 1; stroke-opacity: 1; stroke: rgb(0, 0, 0); stroke-width: 0;"/>
			<path fill="#CC66FF" d="M231.7,227.8c-1.9,3.7-3.6,7.6-5.1,11.5c4.7-4.4,9.8-8.5,15.2-12.1C238.5,227.3,235.1,227.5,231.7,227.8z&#10;&#9;&#9;&#9;&#9;" style="fill-opacity: 1; stroke-opacity: 1; stroke: rgb(0, 0, 0); stroke-width: 0;"/>
			<path fill="#CC66FF" d="M421,502.8c-18.2,20.7-40,38.2-64.3,51.5c3.7,0.4,7.3,0.8,11,1c35.3-9.1,67.3-26.2,94.1-49.3&#10;&#9;&#9;&#9;&#9;c5.3-10.3,9.9-21,13.6-32.1C458.8,485.8,440.5,495.5,421,502.8z" style="fill-opacity: 1; stroke-opacity: 1; stroke: rgb(0, 0, 0); stroke-width: 0;"/>
			<path fill="#BE71FF" d="M160.6,320.7c9.1-10.8,20.1-20,32.5-27c6.1-21.1,17.9-39.8,33.6-54.4c1.5-3.9,3.2-7.8,5.1-11.5&#10;&#9;&#9;&#9;&#9;c-27.1,2.8-51.6,14.6-70.3,32.4c-2.8,10.1-4.3,20.8-4.3,31.8C157.1,301.9,158.3,311.5,160.6,320.7z" style="fill-opacity: 1; stroke-opacity: 1; stroke: rgb(0, 0, 0); stroke-width: 0;"/>
			<path fill="#BB61FF" d="M441.1,476.3c-6.1,9.3-12.8,18.2-20.2,26.5c19.5-7.2,37.8-17,54.5-28.9c8.1-23.8,12.4-49.2,12.4-75.7&#10;&#9;&#9;&#9;&#9;c0-0.3,0-0.5,0-0.8c-6.7,13.4-14.7,26.1-23.8,38C459.1,450.6,451.3,464.4,441.1,476.3z" style="fill-opacity: 1; stroke-opacity: 1; stroke: rgb(0, 0, 0); stroke-width: 0;"/>
			<path fill="#BF7BFF" d="M157.1,292c0-11,1.5-21.7,4.3-31.8c-2.5,2.4-4.9,4.9-7.2,7.5c-3.9,17-5.9,34.6-5.9,52.8&#10;&#9;&#9;&#9;&#9;c0,5.7,0.2,11.3,0.6,16.9c3.5-5.9,7.4-11.4,11.7-16.6C158.3,311.5,157.1,301.9,157.1,292z" style="fill-opacity: 1; stroke-opacity: 1; stroke: rgb(0, 0, 0); stroke-width: 0;"/>
			<path fill="#BF7BFF" d="M473.5,400.2c-1.6,7-3.6,14-5.8,20.8c-0.9,4.9-2.2,9.7-3.7,14.4c9.1-11.8,17.1-24.5,23.8-38&#10;&#9;&#9;&#9;&#9;c0-5.4-0.2-10.8-0.6-16.1C483.3,388.1,478.7,394.4,473.5,400.2z" style="fill-opacity: 1; stroke-opacity: 1; stroke: rgb(0, 0, 0); stroke-width: 0;"/>
			<path fill="#C456FF" d="M231.7,227.8c3.3-0.3,6.7-0.5,10.2-0.6c19.1-12.7,42-20.1,66.6-20.1c9.3,0,18.3,1.1,27,3.1&#10;&#9;&#9;&#9;&#9;c7.2-3.1,14.7-5.6,22.6-7.3c-18.5-16.8-42.2-27.8-68.4-30.5C264.6,183.7,244.1,203.4,231.7,227.8z" style="fill-opacity: 1; stroke-opacity: 1; stroke: rgb(0, 0, 0); stroke-width: 0;"/>
			<path fill="#C456FF" d="M349.7,518.5c-2.4,0-4.7-0.1-7-0.2c-20.7,6-42.6,9.2-65.3,9.2c-2,0-4,0-6-0.1&#10;&#9;&#9;&#9;&#9;c25.9,14.1,54.7,23.4,85.3,26.9c24.4-13.3,46.1-30.8,64.3-51.5c-11,4.1-22.3,7.3-34,9.8C375.2,516.4,362.7,518.5,349.7,518.5z" style="fill-opacity: 1; stroke-opacity: 1; stroke: rgb(0, 0, 0); stroke-width: 0;"/>
			<path fill="#C75DFF" d="M379.9,200.3c-23.7-15.3-50.2-26.4-78.7-32.4c-4,1.3-7.8,2.8-11.6,4.5c26.2,2.7,49.9,13.7,68.4,30.5&#10;&#9;&#9;&#9;&#9;C365.2,201.4,372.4,200.5,379.9,200.3z" style="fill-opacity: 1; stroke-opacity: 1; stroke: rgb(0, 0, 0); stroke-width: 0;"/>
			<path fill="#C75DFF" d="M342.7,518.2c-3.1-0.2-6.1-0.5-9.1-0.9c-14.8-0.3-29.2-2.1-43.2-5c-10.8,3.6-22.2,5.7-34.1,6&#10;&#9;&#9;&#9;&#9;c4.9,3.2,10,6.2,15.1,9c2,0.1,4,0.1,6,0.1C300,527.4,321.9,524.2,342.7,518.2z" style="fill-opacity: 1; stroke-opacity: 1; stroke: rgb(0, 0, 0); stroke-width: 0;"/>
			<path fill="#B570FF" d="M387,512.5c11.7-2.4,23-5.7,34-9.8c7.3-8.3,14.1-17.2,20.2-26.5C426.9,492.9,408.3,505.6,387,512.5z" style="fill-opacity: 1; stroke-opacity: 1; stroke: rgb(0, 0, 0); stroke-width: 0;"/>
			<path fill="#BA5CFF" d="M289.7,172.4c-1.7-0.2-3.5-0.3-5.3-0.4c-48.9,14.1-91.2,43.6-121.4,82.8c-0.6,1.8-1.1,3.5-1.6,5.3&#10;&#9;&#9;&#9;&#9;c18.7-17.8,43.2-29.6,70.3-32.4C244.1,203.4,264.6,183.7,289.7,172.4z" style="fill-opacity: 1; stroke-opacity: 1; stroke: rgb(0, 0, 0); stroke-width: 0;"/>
			<path fill="#BB61FF" d="M467.8,421c2.2-6.8,4.2-13.7,5.8-20.8c-1.2,1.4-2.5,2.7-3.8,4C469.5,409.9,468.8,415.5,467.8,421z" style="fill-opacity: 1; stroke-opacity: 1; stroke: rgb(0, 0, 0); stroke-width: 0;"/>
			<path fill="#B570FF" d="M161.4,260.2c0.5-1.8,1-3.6,1.6-5.3c-3,3.9-5.9,7.9-8.6,12c-0.1,0.3-0.1,0.6-0.2,0.9&#10;&#9;&#9;&#9;&#9;C156.5,265.1,158.9,262.6,161.4,260.2z" style="fill-opacity: 1; stroke-opacity: 1; stroke: rgb(0, 0, 0); stroke-width: 0;"/>
			<path fill="#B570FF" d="M289.7,172.4c3.8-1.7,7.6-3.2,11.6-4.5c0,0-0.1,0-0.1,0c-5.6,1.2-11.2,2.6-16.7,4.2&#10;&#9;&#9;&#9;&#9;C286.2,172.1,287.9,172.2,289.7,172.4z" style="fill-opacity: 1; stroke-opacity: 1; stroke: rgb(0, 0, 0); stroke-width: 0;"/>
			<path fill="#BB61FF" d="M290.3,512.3c14,2.9,28.4,4.7,43.2,5c-11.4-1.5-22.3-4.7-32.4-9.1C297.6,509.7,294,511.1,290.3,512.3z" style="fill-opacity: 1; stroke-opacity: 1; stroke: rgb(0, 0, 0); stroke-width: 0;"/>
		</g>
	</g>
</g>
<g>
	<radialGradient id="SVGID_3_" cx="301.7932" cy="342.6052" r="171.6284" gradientUnits="userSpaceOnUse">
		<stop offset="0" style="stop-color:#3C4661"/>
		<stop offset="1" style="stop-color:#262C3D"/>
	</radialGradient>
	<path fill="url(#SVGID_3_)" d="M525.5,577.6H360.7L343,512.1h-90.8l-17.6,65.5H69.7L220.4,17.7h154.4L525.5,577.6z M379.8,552.6&#10;&#9;&#9;h113.1L355.7,42.7H239.6L102.3,552.6h113.1l17.6-65.5h129.1L379.8,552.6z M339.2,401.6h-83.1l41.5-154.4L339.2,401.6z M288.7,376.6&#10;&#9;&#9;h17.9l-8.9-33.2L288.7,376.6z" style="stroke-opacity: 1;"/>
</g>
<linearGradient id="SVGID_5_" gradientUnits="userSpaceOnUse" x1="412.8715" y1="300.8042" x2="428.5381" y2="296.4709">
	<stop offset="0" style="stop-color:#3C4661;stop-opacity:0.1"/>
	<stop offset="1" style="stop-color:#262C3D"/>
</linearGradient>
<path d="M 492.8999938964844 552.5999755859375 L 480 552.5999755859375 L 345.70001220703125 53.70000076293945 L 355.70001220703125 42.70000076293945 Z" fill="url(#SVGID_5_)"/>
<linearGradient id="SVGID_6_" gradientUnits="userSpaceOnUse" x1="296.1602" y1="58.3333" x2="296.1602" y2="37.3287">
	<stop offset="0" style="stop-color:#3C4661;stop-opacity:0.1"/>
	<stop offset="1" style="stop-color:#262C3D"/>
</linearGradient>
<path d="M 239.60000610351562 42.70000076293945 L 355.70001220703125 42.70000076293945 L 345.70001220703125 53.70000076293945 L 236.60000610351562 53.70000076293945 Z" fill="url(#SVGID_6_)"/>
<linearGradient id="SVGID_7_" gradientUnits="userSpaceOnUse" x1="292.6399" y1="413.6667" x2="292.6399" y2="395.9216">
	<stop offset="0" style="stop-color:#3C4661;stop-opacity:0.1"/>
	<stop offset="1" style="stop-color:#262C3D"/>
</linearGradient>
<path d="M 339.20001220703125 401.6000061035156 L 329.20001220703125 412.6000061035156 L 246.10000610351562 412.6000061035156 L 256.1000061035156 401.6000061035156 Z" fill="url(#SVGID_7_)"/>
<linearGradient id="SVGID_8_" gradientUnits="userSpaceOnUse" x1="267.4343" y1="328.8092" x2="276.7677" y2="331.1425">
	<stop offset="0" style="stop-color:#3C4661;stop-opacity:0.1"/>
	<stop offset="1" style="stop-color:#262C3D"/>
</linearGradient>
<path d="M 297.6000061035156 247.1999969482422 L 287.6000061035156 258.20001220703125 L 246.10000610351562 412.6000061035156 L 256.1000061035156 401.6000061035156 Z" fill="url(#SVGID_8_)"/>
<linearGradient id="SVGID_9_" gradientUnits="userSpaceOnUse" x1="213.6908" y1="518.0441" x2="225.0618" y2="520.9818">
	<stop offset="0" style="stop-color:#3C4661;stop-opacity:0.1"/>
	<stop offset="1" style="stop-color:#262C3D"/>
</linearGradient>
<path d="M 233.10000610351562 487.1000061035156 L 223.10000610351562 498.1000061035156 L 208.39999389648438 552.5999755859375 L 215.5 552.5999755859375 Z" fill="url(#SVGID_9_)"/>
</svg>