<?xml version="1.0" encoding="utf-8"?>
<svg id="master-artboard" viewBox="0 0 2340 1560" version="1.1" xmlns="http://www.w3.org/2000/svg" x="0px" y="0px" width="2340px" height="1560px" enable-background="new 0 0 2340 1560"><rect id="ee-background" x="0" y="0" width="2340" height="1560" style="fill: rgb(245, 245, 245); fill-opacity: 0; pointer-events: none;"/>
<metadata><!--?xpacket begin="﻿" id="W5M0MpCehiHzreSzNTczkc9d"?-->

                                                                                                    
                                                                                                    
                                                                                                    
                                                                                                    
                                                                                                    
                                                                                                    
                                                                                                    
                                                                                                    
                                                                                                    
                                                                                                    
                                                                                                    
                                                                                                    
                                                                                                    
                                                                                                    
                                                                                                    
                                                                                                    
                                                                                                    
                                                                                                    
                                                                                                    
                                                                                                    
                           
<!--?xpacket end="w"?-->
	</metadata>


<linearGradient id="SVGID_1_" gradientUnits="userSpaceOnUse" x1="1077.7344" y1="570.9922" x2="1321.4264" y2="482.4872" gradientTransform="matrix(1.352074218616549, -0.04557207544051778, -0.188065211382807, 1.0364045678372136, -225.49396725490226, 29.044281401476823)">
		<stop offset="0" style="stop-color:#662682"/>
		<stop offset="1" style="stop-color:#29265B"/>
	</linearGradient><path fill="url(#SVGID_1_)" d="M1211.386,523.718c-3.11-7.373-12.2-13.405-20.203-13.405h-50.27&#10;&#9;&#9;c-8.001,0-17.081,6.037-20.176,13.417l-23.438,56.332c-3.051,7.397,0.774,11.748,8.501,9.666l105.701-28.476&#10;&#9;&#9;c7.727-2.082,11.538-9.832,8.469-17.221L1211.386,523.718z" transform="matrix(3.4843288225831555, 0, 0, 3.4843288225831555, -2949.9624280493135, -1697.8275855407587)" style="paint-order: fill; stroke: rgb(0, 0, 0); stroke-width: 6; stroke-opacity: 0;"/><linearGradient id="SVGID_2_" gradientUnits="userSpaceOnUse" x1="1112.8667" y1="667.7251" x2="1356.5591" y2="579.22" gradientTransform="matrix(0.5689338329973649, 0.010542229709090967, 0.4157422190672223, 0.859048976164701, 210.71410486407746, 77.36978204452848)">
		<stop offset="0" style="stop-color:#662682"/>
		<stop offset="1" style="stop-color:#29265B"/>
	</linearGradient><path fill="url(#SVGID_2_)" d="M1235.998,583.072c-1.205-2.958-8.126-2.62-15.382,0.754l-140.582,65.377&#10;&#9;&#9;c-7.256,3.375-15.622,12.214-18.592,19.645l-25.355,63.605c-2.955,7.435-0.071,9.68,6.411,4.988l186.201-134.792&#10;&#9;&#9;C1235.181,597.957,1237.2,586.031,1235.998,583.072z" transform="matrix(3.4843288225831555, 0, 0, 3.4843288225831555, -2949.9624280493135, -1697.8275855407587)" style="paint-order: fill; stroke: rgb(0, 0, 0); stroke-width: 6; stroke-opacity: 0;"/><linearGradient id="SVGID_3_" gradientUnits="userSpaceOnUse" x1="1161.1108" y1="800.5615" x2="1404.8031" y2="712.0565" gradientTransform="matrix(0.460471935208894, -0.07344969959765349, 0.7160760377657057, 0.6196880239583231, 98.32109334002493, 322.4066574545682)">
		<stop offset="0" style="stop-color:#662682"/>
		<stop offset="1" style="stop-color:#29265B"/>
	</linearGradient><path fill="url(#SVGID_3_)" d="M1254.657,629.285c-2.974-7.43-10.034-8.879-15.692-3.221l-35.096,35.096&#10;&#9;&#9;c-5.658,5.658-7.979,16.415-5.156,23.902l13.665,36.497c2.784,7.502-1.485,13.64-9.488,13.64h-58.511&#10;&#9;&#9;c-8.001,0-19.178,4.629-24.837,10.288L993.056,871.974c-5.658,5.659-3.741,10.288,4.261,10.288h52.859&#10;&#9;&#9;c8.002,0,16.645-6.203,19.204-13.784l17.926-52.964c2.599-7.568,11.271-13.761,19.274-13.761h116.169&#10;&#9;&#9;c8.002,0,16.694,6.186,19.316,13.745l18.117,52.994c2.584,7.574,11.244,13.77,19.246,13.77h60.577c8.001,0,12.171-6.1,9.266-13.556&#10;&#9;&#9;L1254.657,629.285z" transform="matrix(3.4843288225831555, 0, 0, 3.4843288225831555, -2949.9624280493135, -1697.8275855407587)" style="paint-order: fill; stroke: rgb(0, 0, 0); stroke-width: 6; stroke-opacity: 0;"/>
</svg>