<?xml version="1.0" encoding="utf-8"?>
<svg id="master-artboard" viewBox="0 0 900 900" xmlns="http://www.w3.org/2000/svg" width="900px" height="900px"><title>colorful-3d-beveled-letter-a-typography-vector-design</title><path d="M 509.2900085449219 165.07000732421875 L 509.260009765625 165 L 300.5299987792969 165 L 300.5299987792969 250.1999969482422 L 300.5299987792969 250.1999969482422 L 344.4700012207031 298.94000244140625 L 250.9499969482422 570.4299926757812 L 188.8300018310547 570.4299926757812 L 188.8300018310547 655.5999755859375 L 188.82000732421875 655.5999755859375 L 188.8300018310547 655.6099853515625 L 188.8300018310547 655.6300048828125 L 188.85000610351562 655.6300048828125 L 403.5199890136719 875.9500122070312 L 403.8800048828125 875.9500122070312 L 407.1000061035156 879.52001953125 L 407.45001220703125 879.52001953125 L 410.6700134277344 883.0999755859375 L 411.0299987792969 883.0999755859375 L 414.239990234375 886.6699829101562 L 414.6000061035156 886.6699829101562 L 417.80999755859375 890.239990234375 L 418.1700134277344 890.239990234375 L 421.3800048828125 893.8099975585938 L 421.739990234375 893.8099975585938 L 424.95001220703125 897.3800048828125 L 425.30999755859375 897.3800048828125 L 427.6700134277344 900 L 900 900 L 900 555.739990234375 L 512.8400268554688 168.57000732421875 L 509.2900085449219 165.07000732421875 Z" fill="#2b275c" opacity="0.15" transform="matrix(1.2194227583134645, 0, 0, 1.2194227583134645, -160.96021833340592, -106.97372999112078)"/><g style="isolation:isolate" transform="matrix(1.2194227583134645, 0, 0, 1.2194227583134645, -160.96021833340592, -106.97372999112078)"><path d="M 361.2300109863281 250.1999969482422 L 411.6099853515625 306.25 L 351.05999755859375 306.25 L 300.5299987792969 250.1999969482422 L 361.2300109863281 250.1999969482422 Z" fill="#342e6e"/><path d="M 449.3500061035156 242.0399932861328 L 499.69000244140625 298.1000061035156 L 438.0400085449219 475.9100036621094 L 387.760009765625 419.8500061035156 L 449.3500061035156 242.0399932861328 Z" fill="#463d94"/><path d="M 361.19000244140625 498.8900146484375 L 411.44000244140625 554.9500122070312 L 387.6000061035156 626.5 L 337.3699951171875 570.4400024414062 L 361.19000244140625 498.8900146484375 Z" fill="#463d94"/><path d="M 538.3300170898438 498.8900146484375 L 588.4600219726562 554.9500122070312 L 411.44000244140625 554.9500122070312 L 361.19000244140625 498.8900146484375 L 538.3300170898438 498.8900146484375 Z" fill="#342e6e"/><path d="M 393.739990234375 570.4400024414062 L 443.79998779296875 626.5 L 443.79998779296875 711.6699829101562 L 393.739990234375 655.5999755859375 L 393.739990234375 570.4400024414062 Z" fill="#5246ab"/><path d="M 393.739990234375 655.5999755859375 L 443.79998779296875 711.6699829101562 L 239.24000549316406 711.6699829101562 L 188.82000732421875 655.5999755859375 L 393.739990234375 655.5999755859375 Z" fill="#342e6e"/><path d="M 509.25 165.02999877929688 L 559.5800170898438 221.0800018310547 L 700.8499755859375 626.5 L 650.8400268554688 570.4400024414062 L 509.25 165.02999877929688 Z" fill="#4c419e"/><path d="M 711.2100219726562 570.4400024414062 L 761.1699829101562 626.5 L 761.1699829101562 711.6699829101562 L 711.2100219726562 655.5999755859375 L 711.2100219726562 570.4400024414062 Z" fill="#4c419e"/><path d="M 711.2100219726562 655.5999755859375 L 761.1699829101562 711.6699829101562 L 556.219970703125 711.6699829101562 L 506.0799865722656 655.5999755859375 L 711.2100219726562 655.5999755859375 Z" fill="#342e6e"/></g><g id="_Group_" data-name="&lt;Group&gt;" transform="matrix(1.2194227583134645, 0, 0, 1.2194227583134645, -160.96021833340592, -106.97372999112078)"><path d="M 711.1799926757812 570.4299926757812 L 711.1799926757812 655.6300048828125 L 669.7899780273438 613.1400146484375 L 711.1799926757812 570.4299926757812 Z" fill="#ff80a3"/><path d="M 711.1799926757812 570.4299926757812 L 669.7899780273438 613.1400146484375 L 620.1300048828125 613.1400146484375 L 650.8099975585938 570.4299926757812 L 711.1799926757812 570.4299926757812 Z" fill="#ffda99"/><path d="M 669.7899780273438 613.1400146484375 L 711.1799926757812 655.6300048828125 L 506.07000732421875 655.6300048828125 L 547.6599731445312 613.1400146484375 L 620.1300048828125 613.1400146484375 L 669.7899780273438 613.1400146484375 Z" fill="#ed6686"/><path d="M 509.260009765625 165 L 650.8099975585938 570.4299926757812 L 620.1300048828125 613.1400146484375 L 567.3400268554688 458.1000061035156 L 481.92999267578125 207.42999267578125 L 509.260009765625 165 Z" fill="#ff80a3"/><path d="M 567.3400268554688 458.1000061035156 L 620.1300048828125 613.1400146484375 L 561.6400146484375 570.4299926757812 L 538.3400268554688 498.8500061035156 L 567.3400268554688 458.1000061035156 Z" fill="#ffc87a"/><path d="M 620.1300048828125 613.1400146484375 L 547.6599731445312 613.1400146484375 L 506.07000732421875 570.4299926757812 L 561.6400146484375 570.4299926757812 L 620.1300048828125 613.1400146484375 Z" fill="#ffda99"/><path d="M 567.3400268554688 458.1000061035156 L 538.3400268554688 498.8500061035156 L 361.19000244140625 498.8500061035156 L 333.44000244140625 458.1000061035156 L 567.3400268554688 458.1000061035156 Z" fill="#ed6686"/><path d="M 481.92999267578125 207.42999267578125 L 567.3400268554688 458.1000061035156 L 510.79998779296875 419.8500061035156 L 449.3800048828125 242.05999755859375 L 481.92999267578125 207.42999267578125 Z" fill="#ffc87a"/><path d="M 567.3400268554688 458.1000061035156 L 333.44000244140625 458.1000061035156 L 387.760009765625 419.8500061035156 L 510.79998779296875 419.8500061035156 L 567.3400268554688 458.1000061035156 Z" fill="#ffda99"/><path d="M 506.07000732421875 570.4299926757812 L 547.6599731445312 613.1400146484375 L 506.07000732421875 655.6300048828125 L 506.07000732421875 570.4299926757812 Z" fill="#ffc87a"/><path d="M 509.260009765625 165 L 481.92999267578125 207.42999267578125 L 416.9700012207031 207.42999267578125 L 340.739990234375 207.42999267578125 L 300.5299987792969 165 L 509.260009765625 165 Z" fill="#ffda99"/><path d="M 481.92999267578125 207.42999267578125 L 449.3800048828125 242.05999755859375 L 416.9700012207031 207.57000732421875 L 416.9700012207031 207.42999267578125 L 481.92999267578125 207.42999267578125 Z" fill="#ed6686"/><path d="M 416.9700012207031 207.57000732421875 L 449.3800048828125 242.05999755859375 L 387.760009765625 419.8500061035156 L 333.44000244140625 458.1000061035156 L 333.3699951171875 458.0299987792969 L 416.9700012207031 207.57000732421875 Z" fill="#ff80a3"/><path d="M 416.9700012207031 207.42999267578125 L 416.9700012207031 207.57000732421875 L 361.260009765625 250.1999969482422 L 300.5299987792969 250.1999969482422 L 340.739990234375 207.42999267578125 L 416.9700012207031 207.42999267578125 Z" fill="#ed6686"/><path d="M 416.9700012207031 207.57000732421875 L 333.3699951171875 458.0299987792969 L 333.29998779296875 458.0299987792969 L 281.54998779296875 613.1400146484375 L 250.9499969482422 570.4299926757812 L 361.260009765625 250.1999969482422 L 416.9700012207031 207.57000732421875 Z" fill="#ffc87a"/><path d="M 393.739990234375 570.4299926757812 L 393.739990234375 655.6300048828125 L 351.0299987792969 613.1400146484375 L 393.739990234375 570.4299926757812 Z" fill="#ff80a3"/><path d="M 393.739990234375 570.4299926757812 L 351.0299987792969 613.1400146484375 L 281.54998779296875 613.1400146484375 L 337.3999938964844 570.4299926757812 L 393.739990234375 570.4299926757812 Z" fill="#ffda99"/><path d="M 393.739990234375 655.6300048828125 L 188.8300018310547 655.6300048828125 L 231.47000122070312 613.1400146484375 L 281.54998779296875 613.1400146484375 L 351.0299987792969 613.1400146484375 L 393.739990234375 655.6300048828125 Z" fill="#ed6686"/><path d="M 333.44000244140625 458.1000061035156 L 361.19000244140625 498.8500061035156 L 337.3999938964844 570.4299926757812 L 281.54998779296875 613.1400146484375 L 333.29998779296875 458.0299987792969 L 333.3699951171875 458.0299987792969 L 333.44000244140625 458.1000061035156 Z" fill="#ff80a3"/><path d="M 300.5299987792969 165 L 340.739990234375 207.42999267578125 L 300.5299987792969 250.1999969482422 L 300.5299987792969 165 Z" fill="#ffc87a"/><path d="M 250.9499969482422 570.4299926757812 L 281.54998779296875 613.1400146484375 L 231.47000122070312 613.1400146484375 L 188.8300018310547 570.4299926757812 L 250.9499969482422 570.4299926757812 Z" fill="#ffda99"/><path d="M 188.8300018310547 570.4299926757812 L 231.47000122070312 613.1400146484375 L 188.8300018310547 655.6300048828125 L 188.8300018310547 570.4299926757812 Z" fill="#ffc87a"/></g></svg>